G04 #@! TF.GenerationSoftware,KiCad,Pcbnew,10.0.1*
G04 #@! TF.CreationDate,2026-04-26T01:44:08+09:00*
G04 #@! TF.ProjectId,TinyGameConsole,54696e79-4761-46d6-9543-6f6e736f6c65,Ver.0.9*
G04 #@! TF.SameCoordinates,PX55d4a80PY5f5e100*
G04 #@! TF.FileFunction,Legend,Top*
G04 #@! TF.FilePolarity,Positive*
%FSLAX46Y46*%
G04 Gerber Fmt 4.6, Leading zero omitted, Abs format (unit mm)*
G04 Created by KiCad (PCBNEW 10.0.1) date 2026-04-26 01:44:08*
%MOMM*%
%LPD*%
G01*
G04 APERTURE LIST*
%ADD10C,0.150000*%
%ADD11C,0.200000*%
%ADD12C,0.300000*%
%ADD13C,0.120000*%
%ADD14C,0.203200*%
%ADD15C,0.127000*%
%ADD16C,0.100000*%
G04 APERTURE END LIST*
D10*
X8910089Y7005753D02*
X8576756Y7481944D01*
X8338661Y7005753D02*
X8338661Y8005753D01*
X8338661Y8005753D02*
X8719613Y8005753D01*
X8719613Y8005753D02*
X8814851Y7958134D01*
X8814851Y7958134D02*
X8862470Y7910515D01*
X8862470Y7910515D02*
X8910089Y7815277D01*
X8910089Y7815277D02*
X8910089Y7672420D01*
X8910089Y7672420D02*
X8862470Y7577182D01*
X8862470Y7577182D02*
X8814851Y7529563D01*
X8814851Y7529563D02*
X8719613Y7481944D01*
X8719613Y7481944D02*
X8338661Y7481944D01*
X9243423Y8005753D02*
X9910089Y7005753D01*
X9910089Y8005753D02*
X9243423Y7005753D01*
X10910090Y8005753D02*
X11481518Y8005753D01*
X11195804Y7005753D02*
X11195804Y8005753D01*
X11719614Y8005753D02*
X12386280Y7005753D01*
X12386280Y8005753D02*
X11719614Y7005753D01*
X13481519Y7053372D02*
X13624376Y7005753D01*
X13624376Y7005753D02*
X13862471Y7005753D01*
X13862471Y7005753D02*
X13957709Y7053372D01*
X13957709Y7053372D02*
X14005328Y7100992D01*
X14005328Y7100992D02*
X14052947Y7196230D01*
X14052947Y7196230D02*
X14052947Y7291468D01*
X14052947Y7291468D02*
X14005328Y7386706D01*
X14005328Y7386706D02*
X13957709Y7434325D01*
X13957709Y7434325D02*
X13862471Y7481944D01*
X13862471Y7481944D02*
X13671995Y7529563D01*
X13671995Y7529563D02*
X13576757Y7577182D01*
X13576757Y7577182D02*
X13529138Y7624801D01*
X13529138Y7624801D02*
X13481519Y7720039D01*
X13481519Y7720039D02*
X13481519Y7815277D01*
X13481519Y7815277D02*
X13529138Y7910515D01*
X13529138Y7910515D02*
X13576757Y7958134D01*
X13576757Y7958134D02*
X13671995Y8005753D01*
X13671995Y8005753D02*
X13910090Y8005753D01*
X13910090Y8005753D02*
X14052947Y7958134D01*
X14386281Y8005753D02*
X14624376Y7005753D01*
X14624376Y7005753D02*
X14814852Y7720039D01*
X14814852Y7720039D02*
X15005328Y7005753D01*
X15005328Y7005753D02*
X15243424Y8005753D01*
X15624376Y7005753D02*
X15624376Y8005753D01*
X15624376Y8005753D02*
X15862471Y8005753D01*
X15862471Y8005753D02*
X16005328Y7958134D01*
X16005328Y7958134D02*
X16100566Y7862896D01*
X16100566Y7862896D02*
X16148185Y7767658D01*
X16148185Y7767658D02*
X16195804Y7577182D01*
X16195804Y7577182D02*
X16195804Y7434325D01*
X16195804Y7434325D02*
X16148185Y7243849D01*
X16148185Y7243849D02*
X16100566Y7148611D01*
X16100566Y7148611D02*
X16005328Y7053372D01*
X16005328Y7053372D02*
X15862471Y7005753D01*
X15862471Y7005753D02*
X15624376Y7005753D01*
X17243424Y8005753D02*
X17576757Y7005753D01*
X17576757Y7005753D02*
X17910090Y8005753D01*
X19529138Y7958134D02*
X19433900Y8005753D01*
X19433900Y8005753D02*
X19291043Y8005753D01*
X19291043Y8005753D02*
X19148186Y7958134D01*
X19148186Y7958134D02*
X19052948Y7862896D01*
X19052948Y7862896D02*
X19005329Y7767658D01*
X19005329Y7767658D02*
X18957710Y7577182D01*
X18957710Y7577182D02*
X18957710Y7434325D01*
X18957710Y7434325D02*
X19005329Y7243849D01*
X19005329Y7243849D02*
X19052948Y7148611D01*
X19052948Y7148611D02*
X19148186Y7053372D01*
X19148186Y7053372D02*
X19291043Y7005753D01*
X19291043Y7005753D02*
X19386281Y7005753D01*
X19386281Y7005753D02*
X19529138Y7053372D01*
X19529138Y7053372D02*
X19576757Y7100992D01*
X19576757Y7100992D02*
X19576757Y7434325D01*
X19576757Y7434325D02*
X19386281Y7434325D01*
D11*
X30225863Y6152781D02*
X29749673Y6152781D01*
X29749673Y6152781D02*
X29749673Y7152781D01*
X30559197Y6676591D02*
X30892530Y6676591D01*
X31035387Y6152781D02*
X30559197Y6152781D01*
X30559197Y6152781D02*
X30559197Y7152781D01*
X30559197Y7152781D02*
X31035387Y7152781D01*
X31797292Y6676591D02*
X31463959Y6676591D01*
X31463959Y6152781D02*
X31463959Y7152781D01*
X31463959Y7152781D02*
X31940149Y7152781D01*
X32178245Y7152781D02*
X32749673Y7152781D01*
X32463959Y6152781D02*
X32463959Y7152781D01*
X39909673Y1072781D02*
X39909673Y2072781D01*
X39909673Y2072781D02*
X40147768Y2072781D01*
X40147768Y2072781D02*
X40290625Y2025162D01*
X40290625Y2025162D02*
X40385863Y1929924D01*
X40385863Y1929924D02*
X40433482Y1834686D01*
X40433482Y1834686D02*
X40481101Y1644210D01*
X40481101Y1644210D02*
X40481101Y1501353D01*
X40481101Y1501353D02*
X40433482Y1310877D01*
X40433482Y1310877D02*
X40385863Y1215639D01*
X40385863Y1215639D02*
X40290625Y1120400D01*
X40290625Y1120400D02*
X40147768Y1072781D01*
X40147768Y1072781D02*
X39909673Y1072781D01*
X41100149Y2072781D02*
X41290625Y2072781D01*
X41290625Y2072781D02*
X41385863Y2025162D01*
X41385863Y2025162D02*
X41481101Y1929924D01*
X41481101Y1929924D02*
X41528720Y1739448D01*
X41528720Y1739448D02*
X41528720Y1406115D01*
X41528720Y1406115D02*
X41481101Y1215639D01*
X41481101Y1215639D02*
X41385863Y1120400D01*
X41385863Y1120400D02*
X41290625Y1072781D01*
X41290625Y1072781D02*
X41100149Y1072781D01*
X41100149Y1072781D02*
X41004911Y1120400D01*
X41004911Y1120400D02*
X40909673Y1215639D01*
X40909673Y1215639D02*
X40862054Y1406115D01*
X40862054Y1406115D02*
X40862054Y1739448D01*
X40862054Y1739448D02*
X40909673Y1929924D01*
X40909673Y1929924D02*
X41004911Y2025162D01*
X41004911Y2025162D02*
X41100149Y2072781D01*
X41862054Y2072781D02*
X42100149Y1072781D01*
X42100149Y1072781D02*
X42290625Y1787067D01*
X42290625Y1787067D02*
X42481101Y1072781D01*
X42481101Y1072781D02*
X42719197Y2072781D01*
X43100149Y1072781D02*
X43100149Y2072781D01*
X43100149Y2072781D02*
X43671577Y1072781D01*
X43671577Y1072781D02*
X43671577Y2072781D01*
X41179673Y12232781D02*
X41179673Y11423258D01*
X41179673Y11423258D02*
X41227292Y11328020D01*
X41227292Y11328020D02*
X41274911Y11280400D01*
X41274911Y11280400D02*
X41370149Y11232781D01*
X41370149Y11232781D02*
X41560625Y11232781D01*
X41560625Y11232781D02*
X41655863Y11280400D01*
X41655863Y11280400D02*
X41703482Y11328020D01*
X41703482Y11328020D02*
X41751101Y11423258D01*
X41751101Y11423258D02*
X41751101Y12232781D01*
X42227292Y11232781D02*
X42227292Y12232781D01*
X42227292Y12232781D02*
X42608244Y12232781D01*
X42608244Y12232781D02*
X42703482Y12185162D01*
X42703482Y12185162D02*
X42751101Y12137543D01*
X42751101Y12137543D02*
X42798720Y12042305D01*
X42798720Y12042305D02*
X42798720Y11899448D01*
X42798720Y11899448D02*
X42751101Y11804210D01*
X42751101Y11804210D02*
X42703482Y11756591D01*
X42703482Y11756591D02*
X42608244Y11708972D01*
X42608244Y11708972D02*
X42227292Y11708972D01*
X50641101Y6152781D02*
X50307768Y6628972D01*
X50069673Y6152781D02*
X50069673Y7152781D01*
X50069673Y7152781D02*
X50450625Y7152781D01*
X50450625Y7152781D02*
X50545863Y7105162D01*
X50545863Y7105162D02*
X50593482Y7057543D01*
X50593482Y7057543D02*
X50641101Y6962305D01*
X50641101Y6962305D02*
X50641101Y6819448D01*
X50641101Y6819448D02*
X50593482Y6724210D01*
X50593482Y6724210D02*
X50545863Y6676591D01*
X50545863Y6676591D02*
X50450625Y6628972D01*
X50450625Y6628972D02*
X50069673Y6628972D01*
X51069673Y6152781D02*
X51069673Y7152781D01*
X52069672Y7105162D02*
X51974434Y7152781D01*
X51974434Y7152781D02*
X51831577Y7152781D01*
X51831577Y7152781D02*
X51688720Y7105162D01*
X51688720Y7105162D02*
X51593482Y7009924D01*
X51593482Y7009924D02*
X51545863Y6914686D01*
X51545863Y6914686D02*
X51498244Y6724210D01*
X51498244Y6724210D02*
X51498244Y6581353D01*
X51498244Y6581353D02*
X51545863Y6390877D01*
X51545863Y6390877D02*
X51593482Y6295639D01*
X51593482Y6295639D02*
X51688720Y6200400D01*
X51688720Y6200400D02*
X51831577Y6152781D01*
X51831577Y6152781D02*
X51926815Y6152781D01*
X51926815Y6152781D02*
X52069672Y6200400D01*
X52069672Y6200400D02*
X52117291Y6248020D01*
X52117291Y6248020D02*
X52117291Y6581353D01*
X52117291Y6581353D02*
X51926815Y6581353D01*
X52545863Y6152781D02*
X52545863Y7152781D01*
X52545863Y6676591D02*
X53117291Y6676591D01*
X53117291Y6152781D02*
X53117291Y7152781D01*
X53450625Y7152781D02*
X54022053Y7152781D01*
X53736339Y6152781D02*
X53736339Y7152781D01*
X63992054Y6438496D02*
X64468244Y6438496D01*
X63896816Y6152781D02*
X64230149Y7152781D01*
X64230149Y7152781D02*
X64563482Y6152781D01*
X65468244Y6248020D02*
X65420625Y6200400D01*
X65420625Y6200400D02*
X65277768Y6152781D01*
X65277768Y6152781D02*
X65182530Y6152781D01*
X65182530Y6152781D02*
X65039673Y6200400D01*
X65039673Y6200400D02*
X64944435Y6295639D01*
X64944435Y6295639D02*
X64896816Y6390877D01*
X64896816Y6390877D02*
X64849197Y6581353D01*
X64849197Y6581353D02*
X64849197Y6724210D01*
X64849197Y6724210D02*
X64896816Y6914686D01*
X64896816Y6914686D02*
X64944435Y7009924D01*
X64944435Y7009924D02*
X65039673Y7105162D01*
X65039673Y7105162D02*
X65182530Y7152781D01*
X65182530Y7152781D02*
X65277768Y7152781D01*
X65277768Y7152781D02*
X65420625Y7105162D01*
X65420625Y7105162D02*
X65468244Y7057543D01*
X65753959Y7152781D02*
X66325387Y7152781D01*
X66039673Y6152781D02*
X66039673Y7152781D01*
X66658721Y6152781D02*
X66658721Y7152781D01*
X67325387Y7152781D02*
X67515863Y7152781D01*
X67515863Y7152781D02*
X67611101Y7105162D01*
X67611101Y7105162D02*
X67706339Y7009924D01*
X67706339Y7009924D02*
X67753958Y6819448D01*
X67753958Y6819448D02*
X67753958Y6486115D01*
X67753958Y6486115D02*
X67706339Y6295639D01*
X67706339Y6295639D02*
X67611101Y6200400D01*
X67611101Y6200400D02*
X67515863Y6152781D01*
X67515863Y6152781D02*
X67325387Y6152781D01*
X67325387Y6152781D02*
X67230149Y6200400D01*
X67230149Y6200400D02*
X67134911Y6295639D01*
X67134911Y6295639D02*
X67087292Y6486115D01*
X67087292Y6486115D02*
X67087292Y6819448D01*
X67087292Y6819448D02*
X67134911Y7009924D01*
X67134911Y7009924D02*
X67230149Y7105162D01*
X67230149Y7105162D02*
X67325387Y7152781D01*
X68182530Y6152781D02*
X68182530Y7152781D01*
X68182530Y7152781D02*
X68753958Y6152781D01*
X68753958Y6152781D02*
X68753958Y7152781D01*
D12*
X53339999Y5509130D02*
X53339999Y4294844D01*
X53339999Y4294844D02*
X53411428Y4151987D01*
X53411428Y4151987D02*
X53482857Y4080558D01*
X53482857Y4080558D02*
X53625714Y4009130D01*
X53625714Y4009130D02*
X53911428Y4009130D01*
X53911428Y4009130D02*
X54054285Y4080558D01*
X54054285Y4080558D02*
X54125714Y4151987D01*
X54125714Y4151987D02*
X54197142Y4294844D01*
X54197142Y4294844D02*
X54197142Y5509130D01*
X54911428Y4009130D02*
X54911428Y5509130D01*
X55554286Y4437701D02*
X56268572Y4437701D01*
X55411429Y4009130D02*
X55911429Y5509130D01*
X55911429Y5509130D02*
X56411429Y4009130D01*
X56911428Y4009130D02*
X56911428Y5509130D01*
X56911428Y5509130D02*
X57482857Y5509130D01*
X57482857Y5509130D02*
X57625714Y5437701D01*
X57625714Y5437701D02*
X57697143Y5366273D01*
X57697143Y5366273D02*
X57768571Y5223416D01*
X57768571Y5223416D02*
X57768571Y5009130D01*
X57768571Y5009130D02*
X57697143Y4866273D01*
X57697143Y4866273D02*
X57625714Y4794844D01*
X57625714Y4794844D02*
X57482857Y4723416D01*
X57482857Y4723416D02*
X56911428Y4723416D01*
X59054286Y4009130D02*
X59054286Y5509130D01*
X59054286Y4080558D02*
X58911428Y4009130D01*
X58911428Y4009130D02*
X58625714Y4009130D01*
X58625714Y4009130D02*
X58482857Y4080558D01*
X58482857Y4080558D02*
X58411428Y4151987D01*
X58411428Y4151987D02*
X58340000Y4294844D01*
X58340000Y4294844D02*
X58340000Y4723416D01*
X58340000Y4723416D02*
X58411428Y4866273D01*
X58411428Y4866273D02*
X58482857Y4937701D01*
X58482857Y4937701D02*
X58625714Y5009130D01*
X58625714Y5009130D02*
X58911428Y5009130D01*
X58911428Y5009130D02*
X59054286Y4937701D01*
X60411429Y5009130D02*
X60411429Y4009130D01*
X59768571Y5009130D02*
X59768571Y4223416D01*
X59768571Y4223416D02*
X59840000Y4080558D01*
X59840000Y4080558D02*
X59982857Y4009130D01*
X59982857Y4009130D02*
X60197143Y4009130D01*
X60197143Y4009130D02*
X60340000Y4080558D01*
X60340000Y4080558D02*
X60411429Y4151987D01*
X61125714Y4009130D02*
X61125714Y5009130D01*
X61125714Y5509130D02*
X61054286Y5437701D01*
X61054286Y5437701D02*
X61125714Y5366273D01*
X61125714Y5366273D02*
X61197143Y5437701D01*
X61197143Y5437701D02*
X61125714Y5509130D01*
X61125714Y5509130D02*
X61125714Y5366273D01*
X61840000Y5009130D02*
X61840000Y4009130D01*
X61840000Y4866273D02*
X61911429Y4937701D01*
X61911429Y4937701D02*
X62054286Y5009130D01*
X62054286Y5009130D02*
X62268572Y5009130D01*
X62268572Y5009130D02*
X62411429Y4937701D01*
X62411429Y4937701D02*
X62482858Y4794844D01*
X62482858Y4794844D02*
X62482858Y4009130D01*
X63411429Y4009130D02*
X63268572Y4080558D01*
X63268572Y4080558D02*
X63197143Y4151987D01*
X63197143Y4151987D02*
X63125715Y4294844D01*
X63125715Y4294844D02*
X63125715Y4723416D01*
X63125715Y4723416D02*
X63197143Y4866273D01*
X63197143Y4866273D02*
X63268572Y4937701D01*
X63268572Y4937701D02*
X63411429Y5009130D01*
X63411429Y5009130D02*
X63625715Y5009130D01*
X63625715Y5009130D02*
X63768572Y4937701D01*
X63768572Y4937701D02*
X63840001Y4866273D01*
X63840001Y4866273D02*
X63911429Y4723416D01*
X63911429Y4723416D02*
X63911429Y4294844D01*
X63911429Y4294844D02*
X63840001Y4151987D01*
X63840001Y4151987D02*
X63768572Y4080558D01*
X63768572Y4080558D02*
X63625715Y4009130D01*
X63625715Y4009130D02*
X63411429Y4009130D01*
X51804286Y3022785D02*
X51661429Y3094214D01*
X51661429Y3094214D02*
X51447143Y3094214D01*
X51447143Y3094214D02*
X51232857Y3022785D01*
X51232857Y3022785D02*
X51090000Y2879928D01*
X51090000Y2879928D02*
X51018571Y2737071D01*
X51018571Y2737071D02*
X50947143Y2451357D01*
X50947143Y2451357D02*
X50947143Y2237071D01*
X50947143Y2237071D02*
X51018571Y1951357D01*
X51018571Y1951357D02*
X51090000Y1808500D01*
X51090000Y1808500D02*
X51232857Y1665642D01*
X51232857Y1665642D02*
X51447143Y1594214D01*
X51447143Y1594214D02*
X51590000Y1594214D01*
X51590000Y1594214D02*
X51804286Y1665642D01*
X51804286Y1665642D02*
X51875714Y1737071D01*
X51875714Y1737071D02*
X51875714Y2237071D01*
X51875714Y2237071D02*
X51590000Y2237071D01*
X52447143Y2022785D02*
X53161429Y2022785D01*
X52304286Y1594214D02*
X52804286Y3094214D01*
X52804286Y3094214D02*
X53304286Y1594214D01*
X53804285Y1594214D02*
X53804285Y3094214D01*
X53804285Y3094214D02*
X54304285Y2022785D01*
X54304285Y2022785D02*
X54804285Y3094214D01*
X54804285Y3094214D02*
X54804285Y1594214D01*
X55518571Y2379928D02*
X56018571Y2379928D01*
X56232857Y1594214D02*
X55518571Y1594214D01*
X55518571Y1594214D02*
X55518571Y3094214D01*
X55518571Y3094214D02*
X56232857Y3094214D01*
X58875714Y1737071D02*
X58804286Y1665642D01*
X58804286Y1665642D02*
X58590000Y1594214D01*
X58590000Y1594214D02*
X58447143Y1594214D01*
X58447143Y1594214D02*
X58232857Y1665642D01*
X58232857Y1665642D02*
X58090000Y1808500D01*
X58090000Y1808500D02*
X58018571Y1951357D01*
X58018571Y1951357D02*
X57947143Y2237071D01*
X57947143Y2237071D02*
X57947143Y2451357D01*
X57947143Y2451357D02*
X58018571Y2737071D01*
X58018571Y2737071D02*
X58090000Y2879928D01*
X58090000Y2879928D02*
X58232857Y3022785D01*
X58232857Y3022785D02*
X58447143Y3094214D01*
X58447143Y3094214D02*
X58590000Y3094214D01*
X58590000Y3094214D02*
X58804286Y3022785D01*
X58804286Y3022785D02*
X58875714Y2951357D01*
X59732857Y1594214D02*
X59590000Y1665642D01*
X59590000Y1665642D02*
X59518571Y1737071D01*
X59518571Y1737071D02*
X59447143Y1879928D01*
X59447143Y1879928D02*
X59447143Y2308500D01*
X59447143Y2308500D02*
X59518571Y2451357D01*
X59518571Y2451357D02*
X59590000Y2522785D01*
X59590000Y2522785D02*
X59732857Y2594214D01*
X59732857Y2594214D02*
X59947143Y2594214D01*
X59947143Y2594214D02*
X60090000Y2522785D01*
X60090000Y2522785D02*
X60161429Y2451357D01*
X60161429Y2451357D02*
X60232857Y2308500D01*
X60232857Y2308500D02*
X60232857Y1879928D01*
X60232857Y1879928D02*
X60161429Y1737071D01*
X60161429Y1737071D02*
X60090000Y1665642D01*
X60090000Y1665642D02*
X59947143Y1594214D01*
X59947143Y1594214D02*
X59732857Y1594214D01*
X60875714Y2594214D02*
X60875714Y1594214D01*
X60875714Y2451357D02*
X60947143Y2522785D01*
X60947143Y2522785D02*
X61090000Y2594214D01*
X61090000Y2594214D02*
X61304286Y2594214D01*
X61304286Y2594214D02*
X61447143Y2522785D01*
X61447143Y2522785D02*
X61518572Y2379928D01*
X61518572Y2379928D02*
X61518572Y1594214D01*
X62161429Y1665642D02*
X62304286Y1594214D01*
X62304286Y1594214D02*
X62590000Y1594214D01*
X62590000Y1594214D02*
X62732857Y1665642D01*
X62732857Y1665642D02*
X62804286Y1808500D01*
X62804286Y1808500D02*
X62804286Y1879928D01*
X62804286Y1879928D02*
X62732857Y2022785D01*
X62732857Y2022785D02*
X62590000Y2094214D01*
X62590000Y2094214D02*
X62375715Y2094214D01*
X62375715Y2094214D02*
X62232857Y2165642D01*
X62232857Y2165642D02*
X62161429Y2308500D01*
X62161429Y2308500D02*
X62161429Y2379928D01*
X62161429Y2379928D02*
X62232857Y2522785D01*
X62232857Y2522785D02*
X62375715Y2594214D01*
X62375715Y2594214D02*
X62590000Y2594214D01*
X62590000Y2594214D02*
X62732857Y2522785D01*
X63661429Y1594214D02*
X63518572Y1665642D01*
X63518572Y1665642D02*
X63447143Y1737071D01*
X63447143Y1737071D02*
X63375715Y1879928D01*
X63375715Y1879928D02*
X63375715Y2308500D01*
X63375715Y2308500D02*
X63447143Y2451357D01*
X63447143Y2451357D02*
X63518572Y2522785D01*
X63518572Y2522785D02*
X63661429Y2594214D01*
X63661429Y2594214D02*
X63875715Y2594214D01*
X63875715Y2594214D02*
X64018572Y2522785D01*
X64018572Y2522785D02*
X64090001Y2451357D01*
X64090001Y2451357D02*
X64161429Y2308500D01*
X64161429Y2308500D02*
X64161429Y1879928D01*
X64161429Y1879928D02*
X64090001Y1737071D01*
X64090001Y1737071D02*
X64018572Y1665642D01*
X64018572Y1665642D02*
X63875715Y1594214D01*
X63875715Y1594214D02*
X63661429Y1594214D01*
X65018572Y1594214D02*
X64875715Y1665642D01*
X64875715Y1665642D02*
X64804286Y1808500D01*
X64804286Y1808500D02*
X64804286Y3094214D01*
X66161429Y1665642D02*
X66018572Y1594214D01*
X66018572Y1594214D02*
X65732858Y1594214D01*
X65732858Y1594214D02*
X65590000Y1665642D01*
X65590000Y1665642D02*
X65518572Y1808500D01*
X65518572Y1808500D02*
X65518572Y2379928D01*
X65518572Y2379928D02*
X65590000Y2522785D01*
X65590000Y2522785D02*
X65732858Y2594214D01*
X65732858Y2594214D02*
X66018572Y2594214D01*
X66018572Y2594214D02*
X66161429Y2522785D01*
X66161429Y2522785D02*
X66232858Y2379928D01*
X66232858Y2379928D02*
X66232858Y2237071D01*
X66232858Y2237071D02*
X65518572Y2094214D01*
D10*
X30101667Y11962800D02*
X30244524Y11915181D01*
X30244524Y11915181D02*
X30482619Y11915181D01*
X30482619Y11915181D02*
X30577857Y11962800D01*
X30577857Y11962800D02*
X30625476Y12010420D01*
X30625476Y12010420D02*
X30673095Y12105658D01*
X30673095Y12105658D02*
X30673095Y12200896D01*
X30673095Y12200896D02*
X30625476Y12296134D01*
X30625476Y12296134D02*
X30577857Y12343753D01*
X30577857Y12343753D02*
X30482619Y12391372D01*
X30482619Y12391372D02*
X30292143Y12438991D01*
X30292143Y12438991D02*
X30196905Y12486610D01*
X30196905Y12486610D02*
X30149286Y12534229D01*
X30149286Y12534229D02*
X30101667Y12629467D01*
X30101667Y12629467D02*
X30101667Y12724705D01*
X30101667Y12724705D02*
X30149286Y12819943D01*
X30149286Y12819943D02*
X30196905Y12867562D01*
X30196905Y12867562D02*
X30292143Y12915181D01*
X30292143Y12915181D02*
X30530238Y12915181D01*
X30530238Y12915181D02*
X30673095Y12867562D01*
X31006429Y12915181D02*
X31244524Y11915181D01*
X31244524Y11915181D02*
X31435000Y12629467D01*
X31435000Y12629467D02*
X31625476Y11915181D01*
X31625476Y11915181D02*
X31863572Y12915181D01*
X32768333Y11915181D02*
X32196905Y11915181D01*
X32482619Y11915181D02*
X32482619Y12915181D01*
X32482619Y12915181D02*
X32387381Y12772324D01*
X32387381Y12772324D02*
X32292143Y12677086D01*
X32292143Y12677086D02*
X32196905Y12629467D01*
X64316667Y10982800D02*
X64459524Y10935181D01*
X64459524Y10935181D02*
X64697619Y10935181D01*
X64697619Y10935181D02*
X64792857Y10982800D01*
X64792857Y10982800D02*
X64840476Y11030420D01*
X64840476Y11030420D02*
X64888095Y11125658D01*
X64888095Y11125658D02*
X64888095Y11220896D01*
X64888095Y11220896D02*
X64840476Y11316134D01*
X64840476Y11316134D02*
X64792857Y11363753D01*
X64792857Y11363753D02*
X64697619Y11411372D01*
X64697619Y11411372D02*
X64507143Y11458991D01*
X64507143Y11458991D02*
X64411905Y11506610D01*
X64411905Y11506610D02*
X64364286Y11554229D01*
X64364286Y11554229D02*
X64316667Y11649467D01*
X64316667Y11649467D02*
X64316667Y11744705D01*
X64316667Y11744705D02*
X64364286Y11839943D01*
X64364286Y11839943D02*
X64411905Y11887562D01*
X64411905Y11887562D02*
X64507143Y11935181D01*
X64507143Y11935181D02*
X64745238Y11935181D01*
X64745238Y11935181D02*
X64888095Y11887562D01*
X65221429Y11935181D02*
X65459524Y10935181D01*
X65459524Y10935181D02*
X65650000Y11649467D01*
X65650000Y11649467D02*
X65840476Y10935181D01*
X65840476Y10935181D02*
X66078572Y11935181D01*
X66364286Y11935181D02*
X66983333Y11935181D01*
X66983333Y11935181D02*
X66650000Y11554229D01*
X66650000Y11554229D02*
X66792857Y11554229D01*
X66792857Y11554229D02*
X66888095Y11506610D01*
X66888095Y11506610D02*
X66935714Y11458991D01*
X66935714Y11458991D02*
X66983333Y11363753D01*
X66983333Y11363753D02*
X66983333Y11125658D01*
X66983333Y11125658D02*
X66935714Y11030420D01*
X66935714Y11030420D02*
X66888095Y10982800D01*
X66888095Y10982800D02*
X66792857Y10935181D01*
X66792857Y10935181D02*
X66507143Y10935181D01*
X66507143Y10935181D02*
X66411905Y10982800D01*
X66411905Y10982800D02*
X66364286Y11030420D01*
X20944819Y606667D02*
X21659104Y606667D01*
X21659104Y606667D02*
X21801961Y559048D01*
X21801961Y559048D02*
X21897200Y463810D01*
X21897200Y463810D02*
X21944819Y320953D01*
X21944819Y320953D02*
X21944819Y225715D01*
X21040057Y1035239D02*
X20992438Y1082858D01*
X20992438Y1082858D02*
X20944819Y1178096D01*
X20944819Y1178096D02*
X20944819Y1416191D01*
X20944819Y1416191D02*
X20992438Y1511429D01*
X20992438Y1511429D02*
X21040057Y1559048D01*
X21040057Y1559048D02*
X21135295Y1606667D01*
X21135295Y1606667D02*
X21230533Y1606667D01*
X21230533Y1606667D02*
X21373390Y1559048D01*
X21373390Y1559048D02*
X21944819Y987620D01*
X21944819Y987620D02*
X21944819Y1606667D01*
X50346667Y10982800D02*
X50489524Y10935181D01*
X50489524Y10935181D02*
X50727619Y10935181D01*
X50727619Y10935181D02*
X50822857Y10982800D01*
X50822857Y10982800D02*
X50870476Y11030420D01*
X50870476Y11030420D02*
X50918095Y11125658D01*
X50918095Y11125658D02*
X50918095Y11220896D01*
X50918095Y11220896D02*
X50870476Y11316134D01*
X50870476Y11316134D02*
X50822857Y11363753D01*
X50822857Y11363753D02*
X50727619Y11411372D01*
X50727619Y11411372D02*
X50537143Y11458991D01*
X50537143Y11458991D02*
X50441905Y11506610D01*
X50441905Y11506610D02*
X50394286Y11554229D01*
X50394286Y11554229D02*
X50346667Y11649467D01*
X50346667Y11649467D02*
X50346667Y11744705D01*
X50346667Y11744705D02*
X50394286Y11839943D01*
X50394286Y11839943D02*
X50441905Y11887562D01*
X50441905Y11887562D02*
X50537143Y11935181D01*
X50537143Y11935181D02*
X50775238Y11935181D01*
X50775238Y11935181D02*
X50918095Y11887562D01*
X51251429Y11935181D02*
X51489524Y10935181D01*
X51489524Y10935181D02*
X51680000Y11649467D01*
X51680000Y11649467D02*
X51870476Y10935181D01*
X51870476Y10935181D02*
X52108572Y11935181D01*
X52441905Y11839943D02*
X52489524Y11887562D01*
X52489524Y11887562D02*
X52584762Y11935181D01*
X52584762Y11935181D02*
X52822857Y11935181D01*
X52822857Y11935181D02*
X52918095Y11887562D01*
X52918095Y11887562D02*
X52965714Y11839943D01*
X52965714Y11839943D02*
X53013333Y11744705D01*
X53013333Y11744705D02*
X53013333Y11649467D01*
X53013333Y11649467D02*
X52965714Y11506610D01*
X52965714Y11506610D02*
X52394286Y10935181D01*
X52394286Y10935181D02*
X53013333Y10935181D01*
X19522380Y11790274D02*
X19522380Y10762179D01*
X19522380Y10762179D02*
X19582857Y10641227D01*
X19582857Y10641227D02*
X19643333Y10580750D01*
X19643333Y10580750D02*
X19764285Y10520274D01*
X19764285Y10520274D02*
X20006190Y10520274D01*
X20006190Y10520274D02*
X20127142Y10580750D01*
X20127142Y10580750D02*
X20187619Y10641227D01*
X20187619Y10641227D02*
X20248095Y10762179D01*
X20248095Y10762179D02*
X20248095Y11790274D01*
X20731904Y11790274D02*
X21518095Y11790274D01*
X21518095Y11790274D02*
X21094761Y11306465D01*
X21094761Y11306465D02*
X21276190Y11306465D01*
X21276190Y11306465D02*
X21397142Y11245989D01*
X21397142Y11245989D02*
X21457618Y11185512D01*
X21457618Y11185512D02*
X21518095Y11064560D01*
X21518095Y11064560D02*
X21518095Y10762179D01*
X21518095Y10762179D02*
X21457618Y10641227D01*
X21457618Y10641227D02*
X21397142Y10580750D01*
X21397142Y10580750D02*
X21276190Y10520274D01*
X21276190Y10520274D02*
X20913333Y10520274D01*
X20913333Y10520274D02*
X20792380Y10580750D01*
X20792380Y10580750D02*
X20731904Y10641227D01*
X62987142Y40675181D02*
X62510952Y40675181D01*
X62510952Y40675181D02*
X62510952Y41675181D01*
X63272857Y40722800D02*
X63415714Y40675181D01*
X63415714Y40675181D02*
X63653809Y40675181D01*
X63653809Y40675181D02*
X63749047Y40722800D01*
X63749047Y40722800D02*
X63796666Y40770420D01*
X63796666Y40770420D02*
X63844285Y40865658D01*
X63844285Y40865658D02*
X63844285Y40960896D01*
X63844285Y40960896D02*
X63796666Y41056134D01*
X63796666Y41056134D02*
X63749047Y41103753D01*
X63749047Y41103753D02*
X63653809Y41151372D01*
X63653809Y41151372D02*
X63463333Y41198991D01*
X63463333Y41198991D02*
X63368095Y41246610D01*
X63368095Y41246610D02*
X63320476Y41294229D01*
X63320476Y41294229D02*
X63272857Y41389467D01*
X63272857Y41389467D02*
X63272857Y41484705D01*
X63272857Y41484705D02*
X63320476Y41579943D01*
X63320476Y41579943D02*
X63368095Y41627562D01*
X63368095Y41627562D02*
X63463333Y41675181D01*
X63463333Y41675181D02*
X63701428Y41675181D01*
X63701428Y41675181D02*
X63844285Y41627562D01*
X64796666Y40675181D02*
X64225238Y40675181D01*
X64510952Y40675181D02*
X64510952Y41675181D01*
X64510952Y41675181D02*
X64415714Y41532324D01*
X64415714Y41532324D02*
X64320476Y41437086D01*
X64320476Y41437086D02*
X64225238Y41389467D01*
X40186667Y4342800D02*
X40329524Y4295181D01*
X40329524Y4295181D02*
X40567619Y4295181D01*
X40567619Y4295181D02*
X40662857Y4342800D01*
X40662857Y4342800D02*
X40710476Y4390420D01*
X40710476Y4390420D02*
X40758095Y4485658D01*
X40758095Y4485658D02*
X40758095Y4580896D01*
X40758095Y4580896D02*
X40710476Y4676134D01*
X40710476Y4676134D02*
X40662857Y4723753D01*
X40662857Y4723753D02*
X40567619Y4771372D01*
X40567619Y4771372D02*
X40377143Y4818991D01*
X40377143Y4818991D02*
X40281905Y4866610D01*
X40281905Y4866610D02*
X40234286Y4914229D01*
X40234286Y4914229D02*
X40186667Y5009467D01*
X40186667Y5009467D02*
X40186667Y5104705D01*
X40186667Y5104705D02*
X40234286Y5199943D01*
X40234286Y5199943D02*
X40281905Y5247562D01*
X40281905Y5247562D02*
X40377143Y5295181D01*
X40377143Y5295181D02*
X40615238Y5295181D01*
X40615238Y5295181D02*
X40758095Y5247562D01*
X41091429Y5295181D02*
X41329524Y4295181D01*
X41329524Y4295181D02*
X41520000Y5009467D01*
X41520000Y5009467D02*
X41710476Y4295181D01*
X41710476Y4295181D02*
X41948572Y5295181D01*
X42805714Y5295181D02*
X42329524Y5295181D01*
X42329524Y5295181D02*
X42281905Y4818991D01*
X42281905Y4818991D02*
X42329524Y4866610D01*
X42329524Y4866610D02*
X42424762Y4914229D01*
X42424762Y4914229D02*
X42662857Y4914229D01*
X42662857Y4914229D02*
X42758095Y4866610D01*
X42758095Y4866610D02*
X42805714Y4818991D01*
X42805714Y4818991D02*
X42853333Y4723753D01*
X42853333Y4723753D02*
X42853333Y4485658D01*
X42853333Y4485658D02*
X42805714Y4390420D01*
X42805714Y4390420D02*
X42758095Y4342800D01*
X42758095Y4342800D02*
X42662857Y4295181D01*
X42662857Y4295181D02*
X42424762Y4295181D01*
X42424762Y4295181D02*
X42329524Y4342800D01*
X42329524Y4342800D02*
X42281905Y4390420D01*
X40186667Y14502800D02*
X40329524Y14455181D01*
X40329524Y14455181D02*
X40567619Y14455181D01*
X40567619Y14455181D02*
X40662857Y14502800D01*
X40662857Y14502800D02*
X40710476Y14550420D01*
X40710476Y14550420D02*
X40758095Y14645658D01*
X40758095Y14645658D02*
X40758095Y14740896D01*
X40758095Y14740896D02*
X40710476Y14836134D01*
X40710476Y14836134D02*
X40662857Y14883753D01*
X40662857Y14883753D02*
X40567619Y14931372D01*
X40567619Y14931372D02*
X40377143Y14978991D01*
X40377143Y14978991D02*
X40281905Y15026610D01*
X40281905Y15026610D02*
X40234286Y15074229D01*
X40234286Y15074229D02*
X40186667Y15169467D01*
X40186667Y15169467D02*
X40186667Y15264705D01*
X40186667Y15264705D02*
X40234286Y15359943D01*
X40234286Y15359943D02*
X40281905Y15407562D01*
X40281905Y15407562D02*
X40377143Y15455181D01*
X40377143Y15455181D02*
X40615238Y15455181D01*
X40615238Y15455181D02*
X40758095Y15407562D01*
X41091429Y15455181D02*
X41329524Y14455181D01*
X41329524Y14455181D02*
X41520000Y15169467D01*
X41520000Y15169467D02*
X41710476Y14455181D01*
X41710476Y14455181D02*
X41948572Y15455181D01*
X42758095Y15121848D02*
X42758095Y14455181D01*
X42520000Y15502800D02*
X42281905Y14788515D01*
X42281905Y14788515D02*
X42900952Y14788515D01*
X37462095Y34795181D02*
X37462095Y33985658D01*
X37462095Y33985658D02*
X37509714Y33890420D01*
X37509714Y33890420D02*
X37557333Y33842800D01*
X37557333Y33842800D02*
X37652571Y33795181D01*
X37652571Y33795181D02*
X37843047Y33795181D01*
X37843047Y33795181D02*
X37938285Y33842800D01*
X37938285Y33842800D02*
X37985904Y33890420D01*
X37985904Y33890420D02*
X38033523Y33985658D01*
X38033523Y33985658D02*
X38033523Y34795181D01*
X38938285Y34461848D02*
X38938285Y33795181D01*
X38700190Y34842800D02*
X38462095Y34128515D01*
X38462095Y34128515D02*
X39081142Y34128515D01*
X31300476Y42519610D02*
X31224286Y42557705D01*
X31224286Y42557705D02*
X31110000Y42557705D01*
X31110000Y42557705D02*
X30995714Y42519610D01*
X30995714Y42519610D02*
X30919524Y42443420D01*
X30919524Y42443420D02*
X30881429Y42367229D01*
X30881429Y42367229D02*
X30843333Y42214848D01*
X30843333Y42214848D02*
X30843333Y42100562D01*
X30843333Y42100562D02*
X30881429Y41948181D01*
X30881429Y41948181D02*
X30919524Y41871991D01*
X30919524Y41871991D02*
X30995714Y41795800D01*
X30995714Y41795800D02*
X31110000Y41757705D01*
X31110000Y41757705D02*
X31186191Y41757705D01*
X31186191Y41757705D02*
X31300476Y41795800D01*
X31300476Y41795800D02*
X31338572Y41833896D01*
X31338572Y41833896D02*
X31338572Y42100562D01*
X31338572Y42100562D02*
X31186191Y42100562D01*
X31681429Y41757705D02*
X31681429Y42557705D01*
X31681429Y42557705D02*
X32138572Y41757705D01*
X32138572Y41757705D02*
X32138572Y42557705D01*
X32519524Y41757705D02*
X32519524Y42557705D01*
X32519524Y42557705D02*
X32710000Y42557705D01*
X32710000Y42557705D02*
X32824286Y42519610D01*
X32824286Y42519610D02*
X32900476Y42443420D01*
X32900476Y42443420D02*
X32938571Y42367229D01*
X32938571Y42367229D02*
X32976667Y42214848D01*
X32976667Y42214848D02*
X32976667Y42100562D01*
X32976667Y42100562D02*
X32938571Y41948181D01*
X32938571Y41948181D02*
X32900476Y41871991D01*
X32900476Y41871991D02*
X32824286Y41795800D01*
X32824286Y41795800D02*
X32710000Y41757705D01*
X32710000Y41757705D02*
X32519524Y41757705D01*
X33343333Y42557705D02*
X33610000Y41757705D01*
X33610000Y41757705D02*
X33876666Y42557705D01*
X34600476Y41833896D02*
X34562380Y41795800D01*
X34562380Y41795800D02*
X34448095Y41757705D01*
X34448095Y41757705D02*
X34371904Y41757705D01*
X34371904Y41757705D02*
X34257618Y41795800D01*
X34257618Y41795800D02*
X34181428Y41871991D01*
X34181428Y41871991D02*
X34143333Y41948181D01*
X34143333Y41948181D02*
X34105237Y42100562D01*
X34105237Y42100562D02*
X34105237Y42214848D01*
X34105237Y42214848D02*
X34143333Y42367229D01*
X34143333Y42367229D02*
X34181428Y42443420D01*
X34181428Y42443420D02*
X34257618Y42519610D01*
X34257618Y42519610D02*
X34371904Y42557705D01*
X34371904Y42557705D02*
X34448095Y42557705D01*
X34448095Y42557705D02*
X34562380Y42519610D01*
X34562380Y42519610D02*
X34600476Y42481515D01*
X35400476Y41833896D02*
X35362380Y41795800D01*
X35362380Y41795800D02*
X35248095Y41757705D01*
X35248095Y41757705D02*
X35171904Y41757705D01*
X35171904Y41757705D02*
X35057618Y41795800D01*
X35057618Y41795800D02*
X34981428Y41871991D01*
X34981428Y41871991D02*
X34943333Y41948181D01*
X34943333Y41948181D02*
X34905237Y42100562D01*
X34905237Y42100562D02*
X34905237Y42214848D01*
X34905237Y42214848D02*
X34943333Y42367229D01*
X34943333Y42367229D02*
X34981428Y42443420D01*
X34981428Y42443420D02*
X35057618Y42519610D01*
X35057618Y42519610D02*
X35171904Y42557705D01*
X35171904Y42557705D02*
X35248095Y42557705D01*
X35248095Y42557705D02*
X35362380Y42519610D01*
X35362380Y42519610D02*
X35400476Y42481515D01*
X35957618Y41795800D02*
X36071904Y41757705D01*
X36071904Y41757705D02*
X36262380Y41757705D01*
X36262380Y41757705D02*
X36338571Y41795800D01*
X36338571Y41795800D02*
X36376666Y41833896D01*
X36376666Y41833896D02*
X36414761Y41910086D01*
X36414761Y41910086D02*
X36414761Y41986277D01*
X36414761Y41986277D02*
X36376666Y42062467D01*
X36376666Y42062467D02*
X36338571Y42100562D01*
X36338571Y42100562D02*
X36262380Y42138658D01*
X36262380Y42138658D02*
X36109999Y42176753D01*
X36109999Y42176753D02*
X36033809Y42214848D01*
X36033809Y42214848D02*
X35995714Y42252943D01*
X35995714Y42252943D02*
X35957618Y42329134D01*
X35957618Y42329134D02*
X35957618Y42405324D01*
X35957618Y42405324D02*
X35995714Y42481515D01*
X35995714Y42481515D02*
X36033809Y42519610D01*
X36033809Y42519610D02*
X36109999Y42557705D01*
X36109999Y42557705D02*
X36300476Y42557705D01*
X36300476Y42557705D02*
X36414761Y42519610D01*
X37214762Y41833896D02*
X37176666Y41795800D01*
X37176666Y41795800D02*
X37062381Y41757705D01*
X37062381Y41757705D02*
X36986190Y41757705D01*
X36986190Y41757705D02*
X36871904Y41795800D01*
X36871904Y41795800D02*
X36795714Y41871991D01*
X36795714Y41871991D02*
X36757619Y41948181D01*
X36757619Y41948181D02*
X36719523Y42100562D01*
X36719523Y42100562D02*
X36719523Y42214848D01*
X36719523Y42214848D02*
X36757619Y42367229D01*
X36757619Y42367229D02*
X36795714Y42443420D01*
X36795714Y42443420D02*
X36871904Y42519610D01*
X36871904Y42519610D02*
X36986190Y42557705D01*
X36986190Y42557705D02*
X37062381Y42557705D01*
X37062381Y42557705D02*
X37176666Y42519610D01*
X37176666Y42519610D02*
X37214762Y42481515D01*
X37938571Y41757705D02*
X37557619Y41757705D01*
X37557619Y41757705D02*
X37557619Y42557705D01*
X38538571Y41795800D02*
X38652857Y41757705D01*
X38652857Y41757705D02*
X38843333Y41757705D01*
X38843333Y41757705D02*
X38919524Y41795800D01*
X38919524Y41795800D02*
X38957619Y41833896D01*
X38957619Y41833896D02*
X38995714Y41910086D01*
X38995714Y41910086D02*
X38995714Y41986277D01*
X38995714Y41986277D02*
X38957619Y42062467D01*
X38957619Y42062467D02*
X38919524Y42100562D01*
X38919524Y42100562D02*
X38843333Y42138658D01*
X38843333Y42138658D02*
X38690952Y42176753D01*
X38690952Y42176753D02*
X38614762Y42214848D01*
X38614762Y42214848D02*
X38576667Y42252943D01*
X38576667Y42252943D02*
X38538571Y42329134D01*
X38538571Y42329134D02*
X38538571Y42405324D01*
X38538571Y42405324D02*
X38576667Y42481515D01*
X38576667Y42481515D02*
X38614762Y42519610D01*
X38614762Y42519610D02*
X38690952Y42557705D01*
X38690952Y42557705D02*
X38881429Y42557705D01*
X38881429Y42557705D02*
X38995714Y42519610D01*
X39338572Y41757705D02*
X39338572Y42557705D01*
X39338572Y42557705D02*
X39529048Y42557705D01*
X39529048Y42557705D02*
X39643334Y42519610D01*
X39643334Y42519610D02*
X39719524Y42443420D01*
X39719524Y42443420D02*
X39757619Y42367229D01*
X39757619Y42367229D02*
X39795715Y42214848D01*
X39795715Y42214848D02*
X39795715Y42100562D01*
X39795715Y42100562D02*
X39757619Y41948181D01*
X39757619Y41948181D02*
X39719524Y41871991D01*
X39719524Y41871991D02*
X39643334Y41795800D01*
X39643334Y41795800D02*
X39529048Y41757705D01*
X39529048Y41757705D02*
X39338572Y41757705D01*
X40100476Y41986277D02*
X40481429Y41986277D01*
X40024286Y41757705D02*
X40290953Y42557705D01*
X40290953Y42557705D02*
X40557619Y41757705D01*
X36764000Y31826610D02*
X36668762Y31874229D01*
X36668762Y31874229D02*
X36621143Y31921848D01*
X36621143Y31921848D02*
X36573524Y32017086D01*
X36573524Y32017086D02*
X36573524Y32064705D01*
X36573524Y32064705D02*
X36621143Y32159943D01*
X36621143Y32159943D02*
X36668762Y32207562D01*
X36668762Y32207562D02*
X36764000Y32255181D01*
X36764000Y32255181D02*
X36954476Y32255181D01*
X36954476Y32255181D02*
X37049714Y32207562D01*
X37049714Y32207562D02*
X37097333Y32159943D01*
X37097333Y32159943D02*
X37144952Y32064705D01*
X37144952Y32064705D02*
X37144952Y32017086D01*
X37144952Y32017086D02*
X37097333Y31921848D01*
X37097333Y31921848D02*
X37049714Y31874229D01*
X37049714Y31874229D02*
X36954476Y31826610D01*
X36954476Y31826610D02*
X36764000Y31826610D01*
X36764000Y31826610D02*
X36668762Y31778991D01*
X36668762Y31778991D02*
X36621143Y31731372D01*
X36621143Y31731372D02*
X36573524Y31636134D01*
X36573524Y31636134D02*
X36573524Y31445658D01*
X36573524Y31445658D02*
X36621143Y31350420D01*
X36621143Y31350420D02*
X36668762Y31302800D01*
X36668762Y31302800D02*
X36764000Y31255181D01*
X36764000Y31255181D02*
X36954476Y31255181D01*
X36954476Y31255181D02*
X37049714Y31302800D01*
X37049714Y31302800D02*
X37097333Y31350420D01*
X37097333Y31350420D02*
X37144952Y31445658D01*
X37144952Y31445658D02*
X37144952Y31636134D01*
X37144952Y31636134D02*
X37097333Y31731372D01*
X37097333Y31731372D02*
X37049714Y31778991D01*
X37049714Y31778991D02*
X36954476Y31826610D01*
X37764000Y32255181D02*
X37859238Y32255181D01*
X37859238Y32255181D02*
X37954476Y32207562D01*
X37954476Y32207562D02*
X38002095Y32159943D01*
X38002095Y32159943D02*
X38049714Y32064705D01*
X38049714Y32064705D02*
X38097333Y31874229D01*
X38097333Y31874229D02*
X38097333Y31636134D01*
X38097333Y31636134D02*
X38049714Y31445658D01*
X38049714Y31445658D02*
X38002095Y31350420D01*
X38002095Y31350420D02*
X37954476Y31302800D01*
X37954476Y31302800D02*
X37859238Y31255181D01*
X37859238Y31255181D02*
X37764000Y31255181D01*
X37764000Y31255181D02*
X37668762Y31302800D01*
X37668762Y31302800D02*
X37621143Y31350420D01*
X37621143Y31350420D02*
X37573524Y31445658D01*
X37573524Y31445658D02*
X37525905Y31636134D01*
X37525905Y31636134D02*
X37525905Y31874229D01*
X37525905Y31874229D02*
X37573524Y32064705D01*
X37573524Y32064705D02*
X37621143Y32159943D01*
X37621143Y32159943D02*
X37668762Y32207562D01*
X37668762Y32207562D02*
X37764000Y32255181D01*
X38430667Y31255181D02*
X38954476Y31921848D01*
X38430667Y31921848D02*
X38954476Y31255181D01*
X39859238Y31255181D02*
X39287810Y31255181D01*
X39573524Y31255181D02*
X39573524Y32255181D01*
X39573524Y32255181D02*
X39478286Y32112324D01*
X39478286Y32112324D02*
X39383048Y32017086D01*
X39383048Y32017086D02*
X39287810Y31969467D01*
X40716381Y32255181D02*
X40525905Y32255181D01*
X40525905Y32255181D02*
X40430667Y32207562D01*
X40430667Y32207562D02*
X40383048Y32159943D01*
X40383048Y32159943D02*
X40287810Y32017086D01*
X40287810Y32017086D02*
X40240191Y31826610D01*
X40240191Y31826610D02*
X40240191Y31445658D01*
X40240191Y31445658D02*
X40287810Y31350420D01*
X40287810Y31350420D02*
X40335429Y31302800D01*
X40335429Y31302800D02*
X40430667Y31255181D01*
X40430667Y31255181D02*
X40621143Y31255181D01*
X40621143Y31255181D02*
X40716381Y31302800D01*
X40716381Y31302800D02*
X40764000Y31350420D01*
X40764000Y31350420D02*
X40811619Y31445658D01*
X40811619Y31445658D02*
X40811619Y31683753D01*
X40811619Y31683753D02*
X40764000Y31778991D01*
X40764000Y31778991D02*
X40716381Y31826610D01*
X40716381Y31826610D02*
X40621143Y31874229D01*
X40621143Y31874229D02*
X40430667Y31874229D01*
X40430667Y31874229D02*
X40335429Y31826610D01*
X40335429Y31826610D02*
X40287810Y31778991D01*
X40287810Y31778991D02*
X40240191Y31683753D01*
X41430667Y32255181D02*
X41525905Y32255181D01*
X41525905Y32255181D02*
X41621143Y32207562D01*
X41621143Y32207562D02*
X41668762Y32159943D01*
X41668762Y32159943D02*
X41716381Y32064705D01*
X41716381Y32064705D02*
X41764000Y31874229D01*
X41764000Y31874229D02*
X41764000Y31636134D01*
X41764000Y31636134D02*
X41716381Y31445658D01*
X41716381Y31445658D02*
X41668762Y31350420D01*
X41668762Y31350420D02*
X41621143Y31302800D01*
X41621143Y31302800D02*
X41525905Y31255181D01*
X41525905Y31255181D02*
X41430667Y31255181D01*
X41430667Y31255181D02*
X41335429Y31302800D01*
X41335429Y31302800D02*
X41287810Y31350420D01*
X41287810Y31350420D02*
X41240191Y31445658D01*
X41240191Y31445658D02*
X41192572Y31636134D01*
X41192572Y31636134D02*
X41192572Y31874229D01*
X41192572Y31874229D02*
X41240191Y32064705D01*
X41240191Y32064705D02*
X41287810Y32159943D01*
X41287810Y32159943D02*
X41335429Y32207562D01*
X41335429Y32207562D02*
X41430667Y32255181D01*
X42906858Y31302800D02*
X43049715Y31255181D01*
X43049715Y31255181D02*
X43287810Y31255181D01*
X43287810Y31255181D02*
X43383048Y31302800D01*
X43383048Y31302800D02*
X43430667Y31350420D01*
X43430667Y31350420D02*
X43478286Y31445658D01*
X43478286Y31445658D02*
X43478286Y31540896D01*
X43478286Y31540896D02*
X43430667Y31636134D01*
X43430667Y31636134D02*
X43383048Y31683753D01*
X43383048Y31683753D02*
X43287810Y31731372D01*
X43287810Y31731372D02*
X43097334Y31778991D01*
X43097334Y31778991D02*
X43002096Y31826610D01*
X43002096Y31826610D02*
X42954477Y31874229D01*
X42954477Y31874229D02*
X42906858Y31969467D01*
X42906858Y31969467D02*
X42906858Y32064705D01*
X42906858Y32064705D02*
X42954477Y32159943D01*
X42954477Y32159943D02*
X43002096Y32207562D01*
X43002096Y32207562D02*
X43097334Y32255181D01*
X43097334Y32255181D02*
X43335429Y32255181D01*
X43335429Y32255181D02*
X43478286Y32207562D01*
X43906858Y31255181D02*
X43906858Y32255181D01*
X43906858Y32255181D02*
X44287810Y32255181D01*
X44287810Y32255181D02*
X44383048Y32207562D01*
X44383048Y32207562D02*
X44430667Y32159943D01*
X44430667Y32159943D02*
X44478286Y32064705D01*
X44478286Y32064705D02*
X44478286Y31921848D01*
X44478286Y31921848D02*
X44430667Y31826610D01*
X44430667Y31826610D02*
X44383048Y31778991D01*
X44383048Y31778991D02*
X44287810Y31731372D01*
X44287810Y31731372D02*
X43906858Y31731372D01*
X44906858Y31255181D02*
X44906858Y32255181D01*
X41514762Y41757705D02*
X41248095Y42138658D01*
X41057619Y41757705D02*
X41057619Y42557705D01*
X41057619Y42557705D02*
X41362381Y42557705D01*
X41362381Y42557705D02*
X41438571Y42519610D01*
X41438571Y42519610D02*
X41476666Y42481515D01*
X41476666Y42481515D02*
X41514762Y42405324D01*
X41514762Y42405324D02*
X41514762Y42291039D01*
X41514762Y42291039D02*
X41476666Y42214848D01*
X41476666Y42214848D02*
X41438571Y42176753D01*
X41438571Y42176753D02*
X41362381Y42138658D01*
X41362381Y42138658D02*
X41057619Y42138658D01*
X41857619Y42176753D02*
X42124285Y42176753D01*
X42238571Y41757705D02*
X41857619Y41757705D01*
X41857619Y41757705D02*
X41857619Y42557705D01*
X41857619Y42557705D02*
X42238571Y42557705D01*
X42543333Y41795800D02*
X42657619Y41757705D01*
X42657619Y41757705D02*
X42848095Y41757705D01*
X42848095Y41757705D02*
X42924286Y41795800D01*
X42924286Y41795800D02*
X42962381Y41833896D01*
X42962381Y41833896D02*
X43000476Y41910086D01*
X43000476Y41910086D02*
X43000476Y41986277D01*
X43000476Y41986277D02*
X42962381Y42062467D01*
X42962381Y42062467D02*
X42924286Y42100562D01*
X42924286Y42100562D02*
X42848095Y42138658D01*
X42848095Y42138658D02*
X42695714Y42176753D01*
X42695714Y42176753D02*
X42619524Y42214848D01*
X42619524Y42214848D02*
X42581429Y42252943D01*
X42581429Y42252943D02*
X42543333Y42329134D01*
X42543333Y42329134D02*
X42543333Y42405324D01*
X42543333Y42405324D02*
X42581429Y42481515D01*
X42581429Y42481515D02*
X42619524Y42519610D01*
X42619524Y42519610D02*
X42695714Y42557705D01*
X42695714Y42557705D02*
X42886191Y42557705D01*
X42886191Y42557705D02*
X43000476Y42519610D01*
X44000476Y41757705D02*
X44000476Y42557705D01*
X44000476Y42557705D02*
X44190952Y42557705D01*
X44190952Y42557705D02*
X44305238Y42519610D01*
X44305238Y42519610D02*
X44381428Y42443420D01*
X44381428Y42443420D02*
X44419523Y42367229D01*
X44419523Y42367229D02*
X44457619Y42214848D01*
X44457619Y42214848D02*
X44457619Y42100562D01*
X44457619Y42100562D02*
X44419523Y41948181D01*
X44419523Y41948181D02*
X44381428Y41871991D01*
X44381428Y41871991D02*
X44305238Y41795800D01*
X44305238Y41795800D02*
X44190952Y41757705D01*
X44190952Y41757705D02*
X44000476Y41757705D01*
X45257619Y41833896D02*
X45219523Y41795800D01*
X45219523Y41795800D02*
X45105238Y41757705D01*
X45105238Y41757705D02*
X45029047Y41757705D01*
X45029047Y41757705D02*
X44914761Y41795800D01*
X44914761Y41795800D02*
X44838571Y41871991D01*
X44838571Y41871991D02*
X44800476Y41948181D01*
X44800476Y41948181D02*
X44762380Y42100562D01*
X44762380Y42100562D02*
X44762380Y42214848D01*
X44762380Y42214848D02*
X44800476Y42367229D01*
X44800476Y42367229D02*
X44838571Y42443420D01*
X44838571Y42443420D02*
X44914761Y42519610D01*
X44914761Y42519610D02*
X45029047Y42557705D01*
X45029047Y42557705D02*
X45105238Y42557705D01*
X45105238Y42557705D02*
X45219523Y42519610D01*
X45219523Y42519610D02*
X45257619Y42481515D01*
X46976667Y41833896D02*
X46938571Y41795800D01*
X46938571Y41795800D02*
X46824286Y41757705D01*
X46824286Y41757705D02*
X46748095Y41757705D01*
X46748095Y41757705D02*
X46633809Y41795800D01*
X46633809Y41795800D02*
X46557619Y41871991D01*
X46557619Y41871991D02*
X46519524Y41948181D01*
X46519524Y41948181D02*
X46481428Y42100562D01*
X46481428Y42100562D02*
X46481428Y42214848D01*
X46481428Y42214848D02*
X46519524Y42367229D01*
X46519524Y42367229D02*
X46557619Y42443420D01*
X46557619Y42443420D02*
X46633809Y42519610D01*
X46633809Y42519610D02*
X46748095Y42557705D01*
X46748095Y42557705D02*
X46824286Y42557705D01*
X46824286Y42557705D02*
X46938571Y42519610D01*
X46938571Y42519610D02*
X46976667Y42481515D01*
X47281428Y41795800D02*
X47395714Y41757705D01*
X47395714Y41757705D02*
X47586190Y41757705D01*
X47586190Y41757705D02*
X47662381Y41795800D01*
X47662381Y41795800D02*
X47700476Y41833896D01*
X47700476Y41833896D02*
X47738571Y41910086D01*
X47738571Y41910086D02*
X47738571Y41986277D01*
X47738571Y41986277D02*
X47700476Y42062467D01*
X47700476Y42062467D02*
X47662381Y42100562D01*
X47662381Y42100562D02*
X47586190Y42138658D01*
X47586190Y42138658D02*
X47433809Y42176753D01*
X47433809Y42176753D02*
X47357619Y42214848D01*
X47357619Y42214848D02*
X47319524Y42252943D01*
X47319524Y42252943D02*
X47281428Y42329134D01*
X47281428Y42329134D02*
X47281428Y42405324D01*
X47281428Y42405324D02*
X47319524Y42481515D01*
X47319524Y42481515D02*
X47357619Y42519610D01*
X47357619Y42519610D02*
X47433809Y42557705D01*
X47433809Y42557705D02*
X47624286Y42557705D01*
X47624286Y42557705D02*
X47738571Y42519610D01*
X49043333Y42176753D02*
X49157619Y42138658D01*
X49157619Y42138658D02*
X49195714Y42100562D01*
X49195714Y42100562D02*
X49233810Y42024372D01*
X49233810Y42024372D02*
X49233810Y41910086D01*
X49233810Y41910086D02*
X49195714Y41833896D01*
X49195714Y41833896D02*
X49157619Y41795800D01*
X49157619Y41795800D02*
X49081429Y41757705D01*
X49081429Y41757705D02*
X48776667Y41757705D01*
X48776667Y41757705D02*
X48776667Y42557705D01*
X48776667Y42557705D02*
X49043333Y42557705D01*
X49043333Y42557705D02*
X49119524Y42519610D01*
X49119524Y42519610D02*
X49157619Y42481515D01*
X49157619Y42481515D02*
X49195714Y42405324D01*
X49195714Y42405324D02*
X49195714Y42329134D01*
X49195714Y42329134D02*
X49157619Y42252943D01*
X49157619Y42252943D02*
X49119524Y42214848D01*
X49119524Y42214848D02*
X49043333Y42176753D01*
X49043333Y42176753D02*
X48776667Y42176753D01*
X49957619Y41757705D02*
X49576667Y41757705D01*
X49576667Y41757705D02*
X49576667Y42557705D01*
X50224286Y41757705D02*
X50224286Y42557705D01*
X50681429Y41757705D02*
X50338571Y42214848D01*
X50681429Y42557705D02*
X50224286Y42100562D01*
D13*
X27860000Y12140000D02*
X27860000Y10640000D01*
X29110000Y8140000D02*
X33610000Y8140000D01*
X33610000Y14640000D02*
X29110000Y14640000D01*
X34860000Y10640000D02*
X34860000Y12140000D01*
X62150000Y12140000D02*
X62150000Y10640000D01*
X63400000Y8140000D02*
X67900000Y8140000D01*
X67900000Y14640000D02*
X63400000Y14640000D01*
X69150000Y10640000D02*
X69150000Y12140000D01*
X8630000Y4247642D02*
X8630000Y3935000D01*
X8630000Y-4825000D02*
X8630000Y1175000D01*
X9490000Y4247642D02*
X9490000Y3935000D01*
X9490000Y1175000D02*
X9490000Y-4825000D01*
X9490000Y-4825000D02*
X8630000Y-4825000D01*
X10330000Y3935000D02*
X10330000Y1175000D01*
X11170000Y4247642D02*
X11170000Y3935000D01*
X11170000Y-4825000D02*
X11170000Y1175000D01*
X12030000Y4247642D02*
X12030000Y3935000D01*
X12030000Y1175000D02*
X12030000Y-4825000D01*
X12030000Y-4825000D02*
X11170000Y-4825000D01*
X12870000Y3935000D02*
X12870000Y1175000D01*
X13710000Y4247642D02*
X13710000Y3935000D01*
X13710000Y-4825000D02*
X13710000Y1175000D01*
X14570000Y4247642D02*
X14570000Y3935000D01*
X14570000Y1175000D02*
X14570000Y-4825000D01*
X14570000Y-4825000D02*
X13710000Y-4825000D01*
X15410000Y3935000D02*
X15410000Y1175000D01*
X16250000Y4247642D02*
X16250000Y3935000D01*
X16250000Y-4825000D02*
X16250000Y1175000D01*
X17110000Y4247642D02*
X17110000Y3935000D01*
X17110000Y1175000D02*
X17110000Y-4825000D01*
X17110000Y-4825000D02*
X16250000Y-4825000D01*
X17950000Y3935000D02*
X17950000Y1175000D01*
X18790000Y4165000D02*
X18790000Y3935000D01*
X19220000Y6595000D02*
X20490000Y6595000D01*
X19650000Y4165000D02*
X19650000Y3935000D01*
X20490000Y6595000D02*
X20490000Y5325000D01*
X18790000Y1175000D02*
X19650000Y1175000D01*
X19650000Y-4825000D01*
X18790000Y-4825000D01*
X18790000Y1175000D01*
G36*
X18790000Y1175000D02*
G01*
X19650000Y1175000D01*
X19650000Y-4825000D01*
X18790000Y-4825000D01*
X18790000Y1175000D01*
G37*
X7680000Y3935000D02*
X20600000Y3935000D01*
X20600000Y1175000D01*
X7680000Y1175000D01*
X7680000Y3935000D01*
X48180000Y12140000D02*
X48180000Y10640000D01*
X49430000Y8140000D02*
X53930000Y8140000D01*
X53930000Y14640000D02*
X49430000Y14640000D01*
X55180000Y10640000D02*
X55180000Y12140000D01*
D14*
X6520000Y45390000D02*
X6520000Y12370000D01*
X6520000Y12370000D02*
X24300000Y12370000D01*
X24300000Y45390000D02*
X6520000Y45390000D01*
X24300000Y12370000D02*
X24300000Y45390000D01*
D15*
X8894900Y43866000D02*
G75*
G02*
X7193100Y43866000I-850900J0D01*
G01*
X7193100Y43866000D02*
G75*
G02*
X8894900Y43866000I850900J0D01*
G01*
X12450900Y13894000D02*
G75*
G02*
X10749100Y13894000I-850900J0D01*
G01*
X10749100Y13894000D02*
G75*
G02*
X12450900Y13894000I850900J0D01*
G01*
X23626900Y43866000D02*
G75*
G02*
X21925100Y43866000I-850900J0D01*
G01*
X21925100Y43866000D02*
G75*
G02*
X23626900Y43866000I850900J0D01*
G01*
D16*
X20027720Y38806320D02*
X20015020Y38694560D01*
X19979460Y38587880D01*
X19918500Y38493900D01*
X19839760Y38415160D01*
X19745780Y38354200D01*
X19639100Y38318640D01*
X19529880Y38305940D01*
X19413040Y38318640D01*
X19306360Y38359280D01*
X19207300Y38422780D01*
X19128560Y38506600D01*
X19049820Y38590420D01*
X18953300Y38651380D01*
X18844080Y38692020D01*
X18729780Y38704720D01*
X12090220Y38704720D01*
X11975920Y38692020D01*
X11866700Y38651380D01*
X11770180Y38590420D01*
X11691440Y38506600D01*
X11612700Y38422780D01*
X11513640Y38359280D01*
X11406960Y38318640D01*
X11290120Y38305940D01*
X11180900Y38318640D01*
X11074220Y38354200D01*
X10980240Y38415160D01*
X10901500Y38493900D01*
X10840540Y38587880D01*
X10804980Y38694560D01*
X10792280Y38806320D01*
X10792280Y45405240D01*
X20027720Y45405240D01*
X20027720Y38806320D01*
D13*
X57230000Y32460001D02*
G75*
G02*
X57230000Y35460000I6400000J1499999D01*
G01*
X69860000Y33960000D02*
G75*
G02*
X57400000Y33960000I-6230000J0D01*
G01*
X57400000Y33960000D02*
G75*
G02*
X69860000Y33960000I6230000J0D01*
G01*
X38020000Y7060000D02*
X38020000Y5560000D01*
X39270000Y3060000D02*
X43770000Y3060000D01*
X43770000Y9560000D02*
X39270000Y9560000D01*
X45020000Y5560000D02*
X45020000Y7060000D01*
X38020000Y17220000D02*
X38020000Y15720000D01*
X39270000Y13220000D02*
X43770000Y13220000D01*
X43770000Y19720000D02*
X39270000Y19720000D01*
X45020000Y15720000D02*
X45020000Y17220000D01*
X25810000Y44450000D02*
X25810000Y41420000D01*
X25810000Y22630000D02*
X25810000Y25700000D01*
X25810000Y22630000D02*
X26920000Y21520000D01*
X26920000Y45920000D02*
X25810000Y44450000D01*
X26920000Y45920000D02*
X54700000Y45920000D01*
X26920000Y40310000D02*
X25810000Y41420000D01*
X26920000Y40310000D02*
X54870000Y40310000D01*
X26920000Y26810000D02*
X25810000Y25700000D01*
X26920000Y26810000D02*
X26920000Y40310000D01*
X26920000Y21520000D02*
X54700000Y21520000D01*
X31010000Y45020000D02*
X50610000Y45020000D01*
X31010000Y43220000D02*
X31010000Y45020000D01*
X32910000Y45020000D02*
X32910000Y43320000D01*
X50610000Y45020000D02*
X50610000Y43220000D01*
X50610000Y43220000D02*
X31010000Y43220000D01*
X54700000Y45920000D02*
X55810000Y44450000D01*
X54700000Y21520000D02*
X55810000Y22630000D01*
X54870000Y40310000D02*
X54870000Y26810000D01*
X54870000Y26810000D02*
X26920000Y26810000D01*
X55810000Y44450000D02*
X55810000Y22630000D01*
M02*
