G04 #@! TF.GenerationSoftware,KiCad,Pcbnew,10.0.1*
G04 #@! TF.CreationDate,2026-04-26T01:44:07+09:00*
G04 #@! TF.ProjectId,TinyGameConsole,54696e79-4761-46d6-9543-6f6e736f6c65,Ver.0.9*
G04 #@! TF.SameCoordinates,PX55d4a80PY5f5e100*
G04 #@! TF.FileFunction,Copper,L1,Top*
G04 #@! TF.FilePolarity,Positive*
%FSLAX46Y46*%
G04 Gerber Fmt 4.6, Leading zero omitted, Abs format (unit mm)*
G04 Created by KiCad (PCBNEW 10.0.1) date 2026-04-26 01:44:07*
%MOMM*%
%LPD*%
G01*
G04 APERTURE LIST*
G04 #@! TA.AperFunction,ComponentPad*
%ADD10C,2.000000*%
G04 #@! TD*
G04 #@! TA.AperFunction,ComponentPad*
%ADD11R,1.700000X1.700000*%
G04 #@! TD*
G04 #@! TA.AperFunction,ComponentPad*
%ADD12C,1.700000*%
G04 #@! TD*
G04 #@! TA.AperFunction,ComponentPad*
%ADD13R,3.400000X1.400000*%
G04 #@! TD*
G04 #@! TA.AperFunction,ComponentPad*
%ADD14R,2.000000X2.000000*%
G04 #@! TD*
G04 #@! TA.AperFunction,ComponentPad*
%ADD15R,1.600000X1.600000*%
G04 #@! TD*
G04 #@! TA.AperFunction,ComponentPad*
%ADD16C,1.600000*%
G04 #@! TD*
G04 #@! TA.AperFunction,ComponentPad*
%ADD17C,3.500000*%
G04 #@! TD*
G04 #@! TA.AperFunction,ViaPad*
%ADD18C,0.900000*%
G04 #@! TD*
G04 #@! TA.AperFunction,ViaPad*
%ADD19C,0.605000*%
G04 #@! TD*
G04 #@! TA.AperFunction,Conductor*
%ADD20C,0.400000*%
G04 #@! TD*
G04 #@! TA.AperFunction,Conductor*
%ADD21C,0.800000*%
G04 #@! TD*
G04 APERTURE END LIST*
D10*
X34610000Y9140000D03*
X28110000Y9140000D03*
X34610000Y13640000D03*
X28110000Y13640000D03*
X68900000Y9140000D03*
X62400000Y9140000D03*
X68900000Y13640000D03*
X62400000Y13640000D03*
D11*
X19220000Y5325000D03*
D12*
X16680000Y5325000D03*
X14140000Y5325000D03*
X11600000Y5325000D03*
X9060000Y5325000D03*
D10*
X54930000Y9140000D03*
X48430000Y9140000D03*
X54930000Y13640000D03*
X48430000Y13640000D03*
D13*
X6990000Y41580000D03*
X6990000Y39040000D03*
X6990000Y36500000D03*
X6990000Y33960000D03*
X6990000Y31420000D03*
X6990000Y28880000D03*
X6990000Y26340000D03*
X6990000Y23800000D03*
X6990000Y21260000D03*
X6990000Y18720000D03*
X6990000Y16180000D03*
X6990000Y13640000D03*
X23830000Y13640000D03*
X23830000Y16180000D03*
X23830000Y18720000D03*
X23830000Y21260000D03*
X23830000Y23800000D03*
X23830000Y26340000D03*
X23830000Y28880000D03*
X23830000Y31420000D03*
X23830000Y33960000D03*
X23830000Y36500000D03*
X23830000Y39040000D03*
X23830000Y41580000D03*
D14*
X61130000Y33960000D03*
D10*
X66130000Y33960000D03*
X44770000Y4060000D03*
X38270000Y4060000D03*
X44770000Y8560000D03*
X38270000Y8560000D03*
X44770000Y14220000D03*
X38270000Y14220000D03*
X44770000Y18720000D03*
X38270000Y18720000D03*
D15*
X31920000Y44120000D03*
D16*
X34460000Y44120000D03*
X37000000Y44120000D03*
X39540000Y44120000D03*
X42080000Y44120000D03*
X44620000Y44120000D03*
X47160000Y44120000D03*
X49700000Y44120000D03*
D17*
X28410000Y42890000D03*
X28410000Y24090000D03*
X53210000Y42890000D03*
X53210000Y24090000D03*
D18*
X64940000Y3480000D03*
X64940000Y44120000D03*
X26840000Y17450000D03*
X52240000Y30150000D03*
X6520000Y3480000D03*
X61130000Y17450000D03*
X1440000Y40310000D03*
X19220000Y28880000D03*
X31920000Y17450000D03*
X14140000Y28880000D03*
X70020000Y30150000D03*
X52240000Y40310000D03*
X6520000Y44120000D03*
X34460000Y3480000D03*
X23030000Y44120000D03*
X44620000Y11100000D03*
X21760000Y3480000D03*
X31920000Y40310000D03*
X1440000Y18720000D03*
X19220000Y9830000D03*
X31920000Y30150000D03*
X14140000Y19990000D03*
X1440000Y8560000D03*
X48430000Y3480000D03*
X58590000Y44120000D03*
X14140000Y33960000D03*
X52240000Y17450000D03*
X70020000Y17450000D03*
X1440000Y33960000D03*
X6520000Y7290000D03*
D19*
X19220000Y36500000D03*
X29380000Y37770000D03*
D18*
X24300000Y45390000D03*
X16045000Y33325000D03*
D20*
X23030000Y26340000D02*
X29722576Y26340000D01*
X29722576Y26340000D02*
X34460000Y21602576D01*
X34460000Y21602576D02*
X34460000Y13790000D01*
X34460000Y13790000D02*
X34610000Y13640000D01*
X28110000Y13640000D02*
X34610000Y13640000D01*
X26205000Y31420000D02*
X36365000Y21260000D01*
X54780000Y21260000D02*
X62400000Y13640000D01*
X36365000Y21260000D02*
X54780000Y21260000D01*
X23030000Y31420000D02*
X26205000Y31420000D01*
D21*
X21125000Y40945000D02*
X21125000Y35865000D01*
X21125000Y35865000D02*
X16680000Y31420000D01*
X23030000Y41580000D02*
X21760000Y41580000D01*
X16680000Y31420000D02*
X16680000Y5325000D01*
X21760000Y41580000D02*
X21125000Y40945000D01*
D20*
X7790000Y21260000D02*
X14140000Y14910000D01*
X14140000Y14910000D02*
X14140000Y5325000D01*
X7790000Y21260000D02*
X6425200Y21260000D01*
X5250000Y41580000D02*
X2710000Y39040000D01*
X10396600Y4121600D02*
X11600000Y5325000D01*
X7148400Y4121600D02*
X10396600Y4121600D01*
X2710000Y39040000D02*
X2710000Y8560000D01*
X7790000Y41580000D02*
X5250000Y41580000D01*
X2710000Y8560000D02*
X7148400Y4121600D01*
X7790000Y39040000D02*
X10330000Y36500000D01*
X10330000Y36500000D02*
X19220000Y36500000D01*
X29380000Y37770000D02*
X60495000Y37770000D01*
X7790000Y39040000D02*
X5250000Y39040000D01*
X5250000Y39040000D02*
X3263400Y37053400D01*
X60495000Y37770000D02*
X61130000Y37135000D01*
X3263400Y37053400D02*
X3263400Y8789226D01*
X3263400Y8789226D02*
X6727626Y5325000D01*
X61130000Y37135000D02*
X61130000Y33960000D01*
X6727626Y5325000D02*
X9060000Y5325000D01*
X36136188Y20707600D02*
X47160000Y20707600D01*
X27963788Y28880000D02*
X36136188Y20707600D01*
X48430000Y13640000D02*
X54930000Y13640000D01*
X23030000Y28880000D02*
X27963788Y28880000D01*
X47160000Y20707600D02*
X48430000Y19437600D01*
X48430000Y19437600D02*
X48430000Y13640000D01*
X16045000Y33325000D02*
X10330000Y27610000D01*
X10330000Y25070000D02*
X9060000Y23800000D01*
X45890000Y45390000D02*
X24300000Y45390000D01*
X10330000Y27610000D02*
X10330000Y25070000D01*
X47206000Y44074000D02*
X45890000Y45390000D01*
X9060000Y23800000D02*
X7790000Y23800000D01*
G04 #@! TA.AperFunction,Conductor*
G36*
X30571191Y44820593D02*
G01*
X30607155Y44771093D01*
X30612000Y44740500D01*
X30612000Y44374001D01*
X30612001Y44374000D01*
X31608314Y44374000D01*
X31599920Y44365606D01*
X31547259Y44274394D01*
X31520000Y44172661D01*
X31520000Y44067339D01*
X31547259Y43965606D01*
X31599920Y43874394D01*
X31608314Y43866000D01*
X30612001Y43866000D01*
X30612000Y43865999D01*
X30612000Y43539715D01*
X30593093Y43481524D01*
X30543593Y43445560D01*
X30482407Y43445560D01*
X30432907Y43481524D01*
X30417373Y43514092D01*
X30403295Y43566632D01*
X30297925Y43821017D01*
X30297923Y43821021D01*
X30160249Y44059479D01*
X29992628Y44277928D01*
X29797928Y44472628D01*
X29736191Y44520000D01*
X29579482Y44640247D01*
X29569954Y44645748D01*
X29554337Y44654765D01*
X29513398Y44700233D01*
X29507002Y44761083D01*
X29537595Y44814071D01*
X29593490Y44838958D01*
X29603839Y44839500D01*
X30513000Y44839500D01*
X30571191Y44820593D01*
G37*
G04 #@! TD.AperFunction*
G04 #@! TA.AperFunction,Conductor*
G36*
X70812271Y46487890D02*
G01*
X70912603Y46433105D01*
X70924483Y46425471D01*
X71107263Y46288644D01*
X71117939Y46279394D01*
X71279393Y46117940D01*
X71288643Y46107264D01*
X71425468Y45924487D01*
X71433104Y45912605D01*
X71487890Y45812272D01*
X71500000Y45764827D01*
X71500000Y1235175D01*
X71487890Y1187729D01*
X71433104Y1087396D01*
X71425468Y1075514D01*
X71288643Y892737D01*
X71279393Y882061D01*
X71117939Y720607D01*
X71107263Y711357D01*
X70924486Y574532D01*
X70912604Y566896D01*
X70812272Y512110D01*
X70764826Y500000D01*
X1235174Y500000D01*
X1187728Y512110D01*
X1087395Y566896D01*
X1075513Y574532D01*
X892736Y711357D01*
X882060Y720607D01*
X720606Y882061D01*
X711356Y892737D01*
X574531Y1075514D01*
X566895Y1087396D01*
X519527Y1174145D01*
X512109Y1187730D01*
X500000Y1235175D01*
X500000Y3124567D01*
X1099500Y3124567D01*
X1099500Y2875434D01*
X1132017Y2628443D01*
X1132017Y2628438D01*
X1196496Y2387801D01*
X1196500Y2387788D01*
X1291832Y2157635D01*
X1291834Y2157631D01*
X1291836Y2157627D01*
X1382842Y2000000D01*
X1416403Y1941870D01*
X1568056Y1744231D01*
X1568058Y1744229D01*
X1568062Y1744224D01*
X1744224Y1568062D01*
X1744228Y1568059D01*
X1744230Y1568057D01*
X1805302Y1521195D01*
X1941873Y1416401D01*
X2157627Y1291836D01*
X2387793Y1196498D01*
X2628435Y1132018D01*
X2875435Y1099500D01*
X2875436Y1099500D01*
X3124564Y1099500D01*
X3124565Y1099500D01*
X3371565Y1132018D01*
X3612207Y1196498D01*
X3842373Y1291836D01*
X4058127Y1416401D01*
X4255776Y1568062D01*
X4431938Y1744224D01*
X4583599Y1941873D01*
X4708164Y2157627D01*
X4803502Y2387793D01*
X4867982Y2628435D01*
X4900500Y2875435D01*
X4900500Y3124565D01*
X4867982Y3371565D01*
X4803502Y3612207D01*
X4708164Y3842373D01*
X4583599Y4058127D01*
X4542190Y4112093D01*
X4431943Y4255770D01*
X4431941Y4255772D01*
X4431938Y4255776D01*
X4255776Y4431938D01*
X4255771Y4431942D01*
X4255769Y4431944D01*
X4058130Y4583597D01*
X4021440Y4604780D01*
X3842373Y4708164D01*
X3842369Y4708166D01*
X3842365Y4708168D01*
X3612212Y4803500D01*
X3612211Y4803501D01*
X3612207Y4803502D01*
X3371565Y4867982D01*
X3371562Y4867983D01*
X3371560Y4867983D01*
X3124566Y4900500D01*
X3124565Y4900500D01*
X2875435Y4900500D01*
X2875433Y4900500D01*
X2628442Y4867983D01*
X2628437Y4867983D01*
X2387800Y4803504D01*
X2387787Y4803500D01*
X2157634Y4708168D01*
X1941869Y4583597D01*
X1744230Y4431944D01*
X1568056Y4255770D01*
X1416403Y4058131D01*
X1291832Y3842366D01*
X1196500Y3612213D01*
X1196496Y3612200D01*
X1132017Y3371563D01*
X1132017Y3371558D01*
X1099500Y3124567D01*
X500000Y3124567D01*
X500000Y39112475D01*
X2159500Y39112475D01*
X2159500Y8487526D01*
X2196694Y8348717D01*
X2196695Y8348711D01*
X2197014Y8347519D01*
X2197014Y8347518D01*
X2197016Y8347515D01*
X2269490Y8221985D01*
X6810385Y3681090D01*
X6929695Y3612207D01*
X6935915Y3608616D01*
X7075925Y3571100D01*
X7075926Y3571100D01*
X10469074Y3571100D01*
X10469075Y3571100D01*
X10609085Y3608616D01*
X10615305Y3612207D01*
X10734615Y3681090D01*
X11191980Y4138457D01*
X11246497Y4166234D01*
X11292577Y4162607D01*
X11304117Y4158858D01*
X11318882Y4154060D01*
X11318883Y4154060D01*
X11318885Y4154059D01*
X11505516Y4124500D01*
X11505519Y4124500D01*
X11694484Y4124500D01*
X11881113Y4154059D01*
X11881114Y4154060D01*
X11881118Y4154060D01*
X12060832Y4212453D01*
X12229199Y4298240D01*
X12382073Y4409310D01*
X12515690Y4542927D01*
X12626760Y4695801D01*
X12712547Y4864168D01*
X12770940Y5043882D01*
X12770941Y5043887D01*
X12772219Y5051954D01*
X12799996Y5106471D01*
X12854512Y5134249D01*
X12914944Y5124678D01*
X12958209Y5081414D01*
X12967781Y5051954D01*
X12969058Y5043887D01*
X13027453Y4864168D01*
X13106940Y4708164D01*
X13113240Y4695801D01*
X13224310Y4542927D01*
X13357927Y4409310D01*
X13510801Y4298240D01*
X13679168Y4212453D01*
X13858882Y4154060D01*
X13858883Y4154060D01*
X13858886Y4154059D01*
X14045516Y4124500D01*
X14045519Y4124500D01*
X14234484Y4124500D01*
X14421113Y4154059D01*
X14421114Y4154060D01*
X14421118Y4154060D01*
X14600832Y4212453D01*
X14769199Y4298240D01*
X14922073Y4409310D01*
X15055690Y4542927D01*
X15166760Y4695801D01*
X15252547Y4864168D01*
X15310940Y5043882D01*
X15310941Y5043887D01*
X15312219Y5051954D01*
X15339996Y5106471D01*
X15394512Y5134249D01*
X15454944Y5124678D01*
X15498209Y5081414D01*
X15507781Y5051954D01*
X15509058Y5043887D01*
X15567453Y4864168D01*
X15646940Y4708164D01*
X15653240Y4695801D01*
X15764310Y4542927D01*
X15897927Y4409310D01*
X16050801Y4298240D01*
X16219168Y4212453D01*
X16398882Y4154060D01*
X16398883Y4154060D01*
X16398886Y4154059D01*
X16585516Y4124500D01*
X16585519Y4124500D01*
X16774484Y4124500D01*
X16961113Y4154059D01*
X16961114Y4154060D01*
X16961118Y4154060D01*
X17140832Y4212453D01*
X17309199Y4298240D01*
X17462073Y4409310D01*
X17595690Y4542927D01*
X17682908Y4662972D01*
X17732408Y4698935D01*
X17793593Y4698935D01*
X17843093Y4662971D01*
X17862000Y4604780D01*
X17862000Y4426413D01*
X17868504Y4365912D01*
X17868506Y4365902D01*
X17919552Y4229040D01*
X18007092Y4112101D01*
X18007100Y4112093D01*
X18124039Y4024553D01*
X18260901Y3973507D01*
X18260911Y3973505D01*
X18321413Y3967000D01*
X18965999Y3967000D01*
X18966000Y3967001D01*
X18966000Y4894298D01*
X19027007Y4859075D01*
X19154174Y4825000D01*
X19285826Y4825000D01*
X19412993Y4859075D01*
X19474000Y4894298D01*
X19474000Y3967001D01*
X19474001Y3967000D01*
X20118587Y3967000D01*
X20179088Y3973505D01*
X20179098Y3973507D01*
X20315960Y4024553D01*
X20432899Y4112093D01*
X20432907Y4112101D01*
X20482752Y4178686D01*
X36762000Y4178686D01*
X36762000Y3941315D01*
X36799130Y3706881D01*
X36872482Y3481129D01*
X36980242Y3269638D01*
X37039231Y3188444D01*
X37745016Y3894230D01*
X37757482Y3847708D01*
X37829890Y3722292D01*
X37932292Y3619890D01*
X38057708Y3547482D01*
X38104226Y3535018D01*
X37398442Y2829233D01*
X37479637Y2770243D01*
X37691128Y2662483D01*
X37916880Y2589131D01*
X38151315Y2552000D01*
X38388685Y2552000D01*
X38623119Y2589131D01*
X38848871Y2662483D01*
X39060361Y2770242D01*
X39141555Y2829234D01*
X38435772Y3535017D01*
X38482292Y3547482D01*
X38607708Y3619890D01*
X38710110Y3722292D01*
X38782518Y3847708D01*
X38794983Y3894228D01*
X39500766Y3188445D01*
X39559758Y3269639D01*
X39667517Y3481129D01*
X39740869Y3706881D01*
X39778000Y3941315D01*
X39778000Y4178686D01*
X43262000Y4178686D01*
X43262000Y3941315D01*
X43299130Y3706881D01*
X43372482Y3481129D01*
X43480242Y3269638D01*
X43539231Y3188444D01*
X44245016Y3894230D01*
X44257482Y3847708D01*
X44329890Y3722292D01*
X44432292Y3619890D01*
X44557708Y3547482D01*
X44604226Y3535018D01*
X43898442Y2829233D01*
X43979637Y2770243D01*
X44191128Y2662483D01*
X44416880Y2589131D01*
X44651315Y2552000D01*
X44888685Y2552000D01*
X45123119Y2589131D01*
X45348871Y2662483D01*
X45560361Y2770242D01*
X45641555Y2829234D01*
X45346222Y3124567D01*
X67099500Y3124567D01*
X67099500Y2875434D01*
X67132017Y2628443D01*
X67132017Y2628438D01*
X67196496Y2387801D01*
X67196500Y2387788D01*
X67291832Y2157635D01*
X67291834Y2157631D01*
X67291836Y2157627D01*
X67382842Y2000000D01*
X67416403Y1941870D01*
X67568056Y1744231D01*
X67568058Y1744229D01*
X67568062Y1744224D01*
X67744224Y1568062D01*
X67744228Y1568059D01*
X67744230Y1568057D01*
X67805302Y1521195D01*
X67941873Y1416401D01*
X68157627Y1291836D01*
X68387793Y1196498D01*
X68628435Y1132018D01*
X68875435Y1099500D01*
X68875436Y1099500D01*
X69124564Y1099500D01*
X69124565Y1099500D01*
X69371565Y1132018D01*
X69612207Y1196498D01*
X69842373Y1291836D01*
X70058127Y1416401D01*
X70255776Y1568062D01*
X70431938Y1744224D01*
X70583599Y1941873D01*
X70708164Y2157627D01*
X70803502Y2387793D01*
X70867982Y2628435D01*
X70900500Y2875435D01*
X70900500Y3124565D01*
X70867982Y3371565D01*
X70803502Y3612207D01*
X70708164Y3842373D01*
X70583599Y4058127D01*
X70542190Y4112093D01*
X70431943Y4255770D01*
X70431941Y4255772D01*
X70431938Y4255776D01*
X70255776Y4431938D01*
X70255771Y4431942D01*
X70255769Y4431944D01*
X70058130Y4583597D01*
X70021440Y4604780D01*
X69842373Y4708164D01*
X69842369Y4708166D01*
X69842365Y4708168D01*
X69612212Y4803500D01*
X69612211Y4803501D01*
X69612207Y4803502D01*
X69371565Y4867982D01*
X69371562Y4867983D01*
X69371560Y4867983D01*
X69124566Y4900500D01*
X69124565Y4900500D01*
X68875435Y4900500D01*
X68875433Y4900500D01*
X68628442Y4867983D01*
X68628437Y4867983D01*
X68387800Y4803504D01*
X68387787Y4803500D01*
X68157634Y4708168D01*
X67941869Y4583597D01*
X67744230Y4431944D01*
X67568056Y4255770D01*
X67416403Y4058131D01*
X67291832Y3842366D01*
X67196500Y3612213D01*
X67196496Y3612200D01*
X67132017Y3371563D01*
X67132017Y3371558D01*
X67099500Y3124567D01*
X45346222Y3124567D01*
X44935772Y3535017D01*
X44982292Y3547482D01*
X45107708Y3619890D01*
X45210110Y3722292D01*
X45282518Y3847708D01*
X45294983Y3894228D01*
X46000766Y3188445D01*
X46059758Y3269639D01*
X46167517Y3481129D01*
X46240869Y3706881D01*
X46278000Y3941315D01*
X46278000Y4178686D01*
X46240869Y4413120D01*
X46167517Y4638872D01*
X46059757Y4850363D01*
X46000767Y4931558D01*
X45294982Y4225774D01*
X45282518Y4272292D01*
X45210110Y4397708D01*
X45107708Y4500110D01*
X44982292Y4572518D01*
X44935770Y4584984D01*
X45641556Y5290769D01*
X45560362Y5349758D01*
X45348871Y5457518D01*
X45123119Y5530870D01*
X44888685Y5568000D01*
X44651315Y5568000D01*
X44416880Y5530870D01*
X44191128Y5457518D01*
X43979632Y5349755D01*
X43898442Y5290769D01*
X44604227Y4584984D01*
X44557708Y4572518D01*
X44432292Y4500110D01*
X44329890Y4397708D01*
X44257482Y4272292D01*
X44245016Y4225773D01*
X43539231Y4931558D01*
X43480245Y4850368D01*
X43372482Y4638872D01*
X43299130Y4413120D01*
X43262000Y4178686D01*
X39778000Y4178686D01*
X39740869Y4413120D01*
X39667517Y4638872D01*
X39559757Y4850363D01*
X39500767Y4931558D01*
X38794982Y4225774D01*
X38782518Y4272292D01*
X38710110Y4397708D01*
X38607708Y4500110D01*
X38482292Y4572518D01*
X38435770Y4584984D01*
X39141556Y5290769D01*
X39060362Y5349758D01*
X38848871Y5457518D01*
X38623119Y5530870D01*
X38388685Y5568000D01*
X38151315Y5568000D01*
X37916880Y5530870D01*
X37691128Y5457518D01*
X37479632Y5349755D01*
X37398442Y5290769D01*
X38104227Y4584984D01*
X38057708Y4572518D01*
X37932292Y4500110D01*
X37829890Y4397708D01*
X37757482Y4272292D01*
X37745016Y4225773D01*
X37039231Y4931558D01*
X36980245Y4850368D01*
X36872482Y4638872D01*
X36799130Y4413120D01*
X36762000Y4178686D01*
X20482752Y4178686D01*
X20520445Y4229037D01*
X20520448Y4229042D01*
X20571493Y4365902D01*
X20571495Y4365912D01*
X20578000Y4426413D01*
X20578000Y5070999D01*
X20577999Y5071000D01*
X19650703Y5071000D01*
X19685925Y5132007D01*
X19720000Y5259174D01*
X19720000Y5390826D01*
X19685925Y5517993D01*
X19650703Y5579000D01*
X20577999Y5579000D01*
X20578000Y5579001D01*
X20578000Y6223588D01*
X20571495Y6284089D01*
X20571493Y6284099D01*
X20520447Y6420961D01*
X20432907Y6537900D01*
X20432899Y6537908D01*
X20315960Y6625448D01*
X20179098Y6676494D01*
X20179088Y6676496D01*
X20118587Y6683000D01*
X19474001Y6683000D01*
X19474000Y6682999D01*
X19474000Y5755703D01*
X19412993Y5790925D01*
X19285826Y5825000D01*
X19154174Y5825000D01*
X19027007Y5790925D01*
X18966000Y5755703D01*
X18966000Y6682999D01*
X18965999Y6683000D01*
X18321413Y6683000D01*
X18260911Y6676496D01*
X18260901Y6676494D01*
X18124039Y6625448D01*
X18007100Y6537908D01*
X18007092Y6537900D01*
X17919552Y6420961D01*
X17868506Y6284099D01*
X17868504Y6284089D01*
X17862000Y6223588D01*
X17862000Y6045221D01*
X17843093Y5987030D01*
X17793593Y5951066D01*
X17732407Y5951066D01*
X17682908Y5987030D01*
X17595694Y6107068D01*
X17595692Y6107070D01*
X17595690Y6107073D01*
X17462073Y6240690D01*
X17462069Y6240693D01*
X17459496Y6243266D01*
X17431719Y6297783D01*
X17430500Y6313270D01*
X17430500Y9258686D01*
X26602000Y9258686D01*
X26602000Y9021315D01*
X26639130Y8786881D01*
X26712482Y8561129D01*
X26820242Y8349638D01*
X26879231Y8268444D01*
X27585016Y8974230D01*
X27597482Y8927708D01*
X27669890Y8802292D01*
X27772292Y8699890D01*
X27897708Y8627482D01*
X27944226Y8615018D01*
X27238442Y7909233D01*
X27319637Y7850243D01*
X27531128Y7742483D01*
X27756880Y7669131D01*
X27991315Y7632000D01*
X28228685Y7632000D01*
X28463119Y7669131D01*
X28688871Y7742483D01*
X28900361Y7850242D01*
X28981555Y7909234D01*
X28275772Y8615017D01*
X28322292Y8627482D01*
X28447708Y8699890D01*
X28550110Y8802292D01*
X28622518Y8927708D01*
X28634983Y8974228D01*
X29340766Y8268445D01*
X29399758Y8349639D01*
X29507517Y8561129D01*
X29580869Y8786881D01*
X29618000Y9021315D01*
X29618000Y9258686D01*
X33102000Y9258686D01*
X33102000Y9021315D01*
X33139130Y8786881D01*
X33212482Y8561129D01*
X33320242Y8349638D01*
X33379231Y8268444D01*
X34085016Y8974230D01*
X34097482Y8927708D01*
X34169890Y8802292D01*
X34272292Y8699890D01*
X34397708Y8627482D01*
X34444226Y8615018D01*
X33738442Y7909233D01*
X33819637Y7850243D01*
X34031128Y7742483D01*
X34256880Y7669131D01*
X34491315Y7632000D01*
X34728685Y7632000D01*
X34963119Y7669131D01*
X35188871Y7742483D01*
X35400361Y7850242D01*
X35481555Y7909234D01*
X34775772Y8615017D01*
X34822292Y8627482D01*
X34947708Y8699890D01*
X35050110Y8802292D01*
X35122518Y8927708D01*
X35134983Y8974228D01*
X35840766Y8268445D01*
X35899758Y8349639D01*
X36007517Y8561129D01*
X36041687Y8666291D01*
X36919500Y8666291D01*
X36919500Y8453710D01*
X36952752Y8243762D01*
X37018443Y8041588D01*
X37114948Y7852185D01*
X37114950Y7852181D01*
X37239891Y7680214D01*
X37239893Y7680212D01*
X37239896Y7680208D01*
X37390208Y7529896D01*
X37390211Y7529894D01*
X37390213Y7529892D01*
X37562180Y7404951D01*
X37562184Y7404949D01*
X37751588Y7308443D01*
X37953757Y7242754D01*
X37953758Y7242754D01*
X37953761Y7242753D01*
X38163710Y7209500D01*
X38163713Y7209500D01*
X38376290Y7209500D01*
X38586238Y7242753D01*
X38586239Y7242754D01*
X38586243Y7242754D01*
X38788412Y7308443D01*
X38977816Y7404949D01*
X39149792Y7529896D01*
X39300104Y7680208D01*
X39425051Y7852184D01*
X39521557Y8041588D01*
X39587246Y8243757D01*
X39603680Y8347515D01*
X39620500Y8453710D01*
X39620500Y8666291D01*
X43419500Y8666291D01*
X43419500Y8453710D01*
X43452752Y8243762D01*
X43518443Y8041588D01*
X43614948Y7852185D01*
X43614950Y7852181D01*
X43739891Y7680214D01*
X43739893Y7680212D01*
X43739896Y7680208D01*
X43890208Y7529896D01*
X43890211Y7529894D01*
X43890213Y7529892D01*
X44062180Y7404951D01*
X44062184Y7404949D01*
X44251588Y7308443D01*
X44453757Y7242754D01*
X44453758Y7242754D01*
X44453761Y7242753D01*
X44663710Y7209500D01*
X44663713Y7209500D01*
X44876290Y7209500D01*
X45086238Y7242753D01*
X45086239Y7242754D01*
X45086243Y7242754D01*
X45288412Y7308443D01*
X45477816Y7404949D01*
X45649792Y7529896D01*
X45800104Y7680208D01*
X45925051Y7852184D01*
X45996246Y7991912D01*
X46021554Y8041581D01*
X46021555Y8041584D01*
X46021555Y8041585D01*
X46021557Y8041588D01*
X46087246Y8243757D01*
X46103680Y8347515D01*
X46120500Y8453710D01*
X46120500Y8666291D01*
X46087247Y8876239D01*
X46070524Y8927708D01*
X46021557Y9078412D01*
X45985301Y9149568D01*
X45950624Y9217627D01*
X45950623Y9217629D01*
X45929703Y9258686D01*
X46922000Y9258686D01*
X46922000Y9021315D01*
X46959130Y8786881D01*
X47032482Y8561129D01*
X47140242Y8349638D01*
X47199231Y8268444D01*
X47905016Y8974230D01*
X47917482Y8927708D01*
X47989890Y8802292D01*
X48092292Y8699890D01*
X48217708Y8627482D01*
X48264226Y8615018D01*
X47558442Y7909233D01*
X47639637Y7850243D01*
X47851128Y7742483D01*
X48076880Y7669131D01*
X48311315Y7632000D01*
X48548685Y7632000D01*
X48783119Y7669131D01*
X49008871Y7742483D01*
X49220361Y7850242D01*
X49301555Y7909234D01*
X48595772Y8615017D01*
X48642292Y8627482D01*
X48767708Y8699890D01*
X48870110Y8802292D01*
X48942518Y8927708D01*
X48954983Y8974228D01*
X49660766Y8268445D01*
X49719758Y8349639D01*
X49827517Y8561129D01*
X49900869Y8786881D01*
X49938000Y9021315D01*
X49938000Y9258686D01*
X53422000Y9258686D01*
X53422000Y9021315D01*
X53459130Y8786881D01*
X53532482Y8561129D01*
X53640242Y8349638D01*
X53699231Y8268444D01*
X54405016Y8974230D01*
X54417482Y8927708D01*
X54489890Y8802292D01*
X54592292Y8699890D01*
X54717708Y8627482D01*
X54764226Y8615018D01*
X54058442Y7909233D01*
X54139637Y7850243D01*
X54351128Y7742483D01*
X54576880Y7669131D01*
X54811315Y7632000D01*
X55048685Y7632000D01*
X55283119Y7669131D01*
X55508871Y7742483D01*
X55720361Y7850242D01*
X55801555Y7909234D01*
X55095772Y8615017D01*
X55142292Y8627482D01*
X55267708Y8699890D01*
X55370110Y8802292D01*
X55442518Y8927708D01*
X55454983Y8974228D01*
X56160766Y8268445D01*
X56219758Y8349639D01*
X56327517Y8561129D01*
X56400869Y8786881D01*
X56438000Y9021315D01*
X56438000Y9258686D01*
X60892000Y9258686D01*
X60892000Y9021315D01*
X60929130Y8786881D01*
X61002482Y8561129D01*
X61110242Y8349638D01*
X61169231Y8268444D01*
X61875016Y8974230D01*
X61887482Y8927708D01*
X61959890Y8802292D01*
X62062292Y8699890D01*
X62187708Y8627482D01*
X62234226Y8615018D01*
X61528442Y7909233D01*
X61609637Y7850243D01*
X61821128Y7742483D01*
X62046880Y7669131D01*
X62281315Y7632000D01*
X62518685Y7632000D01*
X62753119Y7669131D01*
X62978871Y7742483D01*
X63190361Y7850242D01*
X63271555Y7909234D01*
X62565772Y8615017D01*
X62612292Y8627482D01*
X62737708Y8699890D01*
X62840110Y8802292D01*
X62912518Y8927708D01*
X62924983Y8974228D01*
X63630766Y8268445D01*
X63689758Y8349639D01*
X63797517Y8561129D01*
X63870869Y8786881D01*
X63908000Y9021315D01*
X63908000Y9258686D01*
X67392000Y9258686D01*
X67392000Y9021315D01*
X67429130Y8786881D01*
X67502482Y8561129D01*
X67610242Y8349638D01*
X67669231Y8268444D01*
X68375016Y8974230D01*
X68387482Y8927708D01*
X68459890Y8802292D01*
X68562292Y8699890D01*
X68687708Y8627482D01*
X68734226Y8615018D01*
X68028442Y7909233D01*
X68109637Y7850243D01*
X68321128Y7742483D01*
X68546880Y7669131D01*
X68781315Y7632000D01*
X69018685Y7632000D01*
X69253119Y7669131D01*
X69478871Y7742483D01*
X69690361Y7850242D01*
X69771555Y7909234D01*
X69065772Y8615017D01*
X69112292Y8627482D01*
X69237708Y8699890D01*
X69340110Y8802292D01*
X69412518Y8927708D01*
X69424983Y8974228D01*
X70130766Y8268445D01*
X70189758Y8349639D01*
X70297517Y8561129D01*
X70370869Y8786881D01*
X70408000Y9021315D01*
X70408000Y9258686D01*
X70370869Y9493120D01*
X70297517Y9718872D01*
X70189757Y9930363D01*
X70130767Y10011558D01*
X69424982Y9305774D01*
X69412518Y9352292D01*
X69340110Y9477708D01*
X69237708Y9580110D01*
X69112292Y9652518D01*
X69065770Y9664984D01*
X69771556Y10370769D01*
X69690362Y10429758D01*
X69478871Y10537518D01*
X69253119Y10610870D01*
X69018685Y10648000D01*
X68781315Y10648000D01*
X68546880Y10610870D01*
X68321128Y10537518D01*
X68109632Y10429755D01*
X68028442Y10370769D01*
X68734227Y9664984D01*
X68687708Y9652518D01*
X68562292Y9580110D01*
X68459890Y9477708D01*
X68387482Y9352292D01*
X68375016Y9305773D01*
X67669231Y10011558D01*
X67610245Y9930368D01*
X67502482Y9718872D01*
X67429130Y9493120D01*
X67392000Y9258686D01*
X63908000Y9258686D01*
X63870869Y9493120D01*
X63797517Y9718872D01*
X63689757Y9930363D01*
X63630767Y10011558D01*
X62924982Y9305774D01*
X62912518Y9352292D01*
X62840110Y9477708D01*
X62737708Y9580110D01*
X62612292Y9652518D01*
X62565770Y9664984D01*
X63271556Y10370769D01*
X63190362Y10429758D01*
X62978871Y10537518D01*
X62753119Y10610870D01*
X62518685Y10648000D01*
X62281315Y10648000D01*
X62046880Y10610870D01*
X61821128Y10537518D01*
X61609632Y10429755D01*
X61528442Y10370769D01*
X62234227Y9664984D01*
X62187708Y9652518D01*
X62062292Y9580110D01*
X61959890Y9477708D01*
X61887482Y9352292D01*
X61875016Y9305773D01*
X61169231Y10011558D01*
X61110245Y9930368D01*
X61002482Y9718872D01*
X60929130Y9493120D01*
X60892000Y9258686D01*
X56438000Y9258686D01*
X56400869Y9493120D01*
X56327517Y9718872D01*
X56219757Y9930363D01*
X56160767Y10011558D01*
X55454982Y9305774D01*
X55442518Y9352292D01*
X55370110Y9477708D01*
X55267708Y9580110D01*
X55142292Y9652518D01*
X55095770Y9664984D01*
X55801556Y10370769D01*
X55720362Y10429758D01*
X55508871Y10537518D01*
X55283119Y10610870D01*
X55048685Y10648000D01*
X54811315Y10648000D01*
X54576880Y10610870D01*
X54351128Y10537518D01*
X54139632Y10429755D01*
X54058442Y10370769D01*
X54764227Y9664984D01*
X54717708Y9652518D01*
X54592292Y9580110D01*
X54489890Y9477708D01*
X54417482Y9352292D01*
X54405016Y9305773D01*
X53699231Y10011558D01*
X53640245Y9930368D01*
X53532482Y9718872D01*
X53459130Y9493120D01*
X53422000Y9258686D01*
X49938000Y9258686D01*
X49900869Y9493120D01*
X49827517Y9718872D01*
X49719757Y9930363D01*
X49660767Y10011558D01*
X48954982Y9305774D01*
X48942518Y9352292D01*
X48870110Y9477708D01*
X48767708Y9580110D01*
X48642292Y9652518D01*
X48595770Y9664984D01*
X49301556Y10370769D01*
X49220362Y10429758D01*
X49008871Y10537518D01*
X48783119Y10610870D01*
X48548685Y10648000D01*
X48311315Y10648000D01*
X48076880Y10610870D01*
X47851128Y10537518D01*
X47639632Y10429755D01*
X47558442Y10370769D01*
X48264227Y9664984D01*
X48217708Y9652518D01*
X48092292Y9580110D01*
X47989890Y9477708D01*
X47917482Y9352292D01*
X47905016Y9305773D01*
X47199231Y10011558D01*
X47140245Y9930368D01*
X47032482Y9718872D01*
X46959130Y9493120D01*
X46922000Y9258686D01*
X45929703Y9258686D01*
X45925054Y9267811D01*
X45925049Y9267820D01*
X45800108Y9439787D01*
X45800106Y9439789D01*
X45800104Y9439792D01*
X45649792Y9590104D01*
X45649788Y9590107D01*
X45649786Y9590109D01*
X45477819Y9715050D01*
X45477815Y9715052D01*
X45288412Y9811557D01*
X45086238Y9877248D01*
X44876290Y9910500D01*
X44876287Y9910500D01*
X44663713Y9910500D01*
X44663710Y9910500D01*
X44453761Y9877248D01*
X44251587Y9811557D01*
X44062184Y9715052D01*
X44062180Y9715050D01*
X43890213Y9590109D01*
X43739891Y9439787D01*
X43614950Y9267820D01*
X43614948Y9267816D01*
X43518443Y9078413D01*
X43452752Y8876239D01*
X43419500Y8666291D01*
X39620500Y8666291D01*
X39587247Y8876239D01*
X39570524Y8927708D01*
X39521557Y9078412D01*
X39425051Y9267816D01*
X39425049Y9267820D01*
X39300108Y9439787D01*
X39300106Y9439789D01*
X39300104Y9439792D01*
X39149792Y9590104D01*
X39149788Y9590107D01*
X39149786Y9590109D01*
X38977819Y9715050D01*
X38977815Y9715052D01*
X38788412Y9811557D01*
X38586238Y9877248D01*
X38376290Y9910500D01*
X38376287Y9910500D01*
X38163713Y9910500D01*
X38163710Y9910500D01*
X37953761Y9877248D01*
X37751587Y9811557D01*
X37562184Y9715052D01*
X37562180Y9715050D01*
X37390213Y9590109D01*
X37239891Y9439787D01*
X37114950Y9267820D01*
X37114948Y9267816D01*
X37018443Y9078413D01*
X36952752Y8876239D01*
X36919500Y8666291D01*
X36041687Y8666291D01*
X36052890Y8700770D01*
X36080869Y8786881D01*
X36118000Y9021315D01*
X36118000Y9258686D01*
X36080869Y9493120D01*
X36007517Y9718872D01*
X35899757Y9930363D01*
X35840767Y10011558D01*
X35134982Y9305774D01*
X35122518Y9352292D01*
X35050110Y9477708D01*
X34947708Y9580110D01*
X34822292Y9652518D01*
X34775770Y9664984D01*
X35481556Y10370769D01*
X35400362Y10429758D01*
X35188871Y10537518D01*
X34963119Y10610870D01*
X34728685Y10648000D01*
X34491315Y10648000D01*
X34256880Y10610870D01*
X34031128Y10537518D01*
X33819632Y10429755D01*
X33738442Y10370769D01*
X34444227Y9664984D01*
X34397708Y9652518D01*
X34272292Y9580110D01*
X34169890Y9477708D01*
X34097482Y9352292D01*
X34085016Y9305773D01*
X33379231Y10011558D01*
X33320245Y9930368D01*
X33212482Y9718872D01*
X33139130Y9493120D01*
X33102000Y9258686D01*
X29618000Y9258686D01*
X29580869Y9493120D01*
X29507517Y9718872D01*
X29399757Y9930363D01*
X29340767Y10011558D01*
X28634982Y9305774D01*
X28622518Y9352292D01*
X28550110Y9477708D01*
X28447708Y9580110D01*
X28322292Y9652518D01*
X28275770Y9664984D01*
X28981556Y10370769D01*
X28900362Y10429758D01*
X28688871Y10537518D01*
X28463119Y10610870D01*
X28228685Y10648000D01*
X27991315Y10648000D01*
X27756880Y10610870D01*
X27531128Y10537518D01*
X27319632Y10429755D01*
X27238442Y10370769D01*
X27944227Y9664984D01*
X27897708Y9652518D01*
X27772292Y9580110D01*
X27669890Y9477708D01*
X27597482Y9352292D01*
X27585016Y9305773D01*
X26879231Y10011558D01*
X26820245Y9930368D01*
X26712482Y9718872D01*
X26639130Y9493120D01*
X26602000Y9258686D01*
X17430500Y9258686D01*
X17430500Y14373260D01*
X21779500Y14373260D01*
X21779500Y12906740D01*
X21786118Y12861318D01*
X21789427Y12838605D01*
X21833169Y12749131D01*
X21840802Y12733517D01*
X21923517Y12650802D01*
X21977285Y12624517D01*
X22028604Y12599428D01*
X22028605Y12599428D01*
X22028607Y12599427D01*
X22096740Y12589500D01*
X22096743Y12589500D01*
X25563257Y12589500D01*
X25563260Y12589500D01*
X25631393Y12599427D01*
X25736483Y12650802D01*
X25819198Y12733517D01*
X25870573Y12838607D01*
X25880500Y12906740D01*
X25880500Y14373260D01*
X25870573Y14441393D01*
X25819198Y14546483D01*
X25736483Y14629198D01*
X25712409Y14640967D01*
X25631395Y14680573D01*
X25604139Y14684544D01*
X25563260Y14690500D01*
X22096740Y14690500D01*
X22062673Y14685537D01*
X22028604Y14680573D01*
X21923518Y14629199D01*
X21840801Y14546482D01*
X21789427Y14441396D01*
X21789427Y14441393D01*
X21779500Y14373260D01*
X17430500Y14373260D01*
X17430500Y16913260D01*
X21779500Y16913260D01*
X21779500Y15446740D01*
X21786118Y15401318D01*
X21789427Y15378605D01*
X21840801Y15273519D01*
X21840802Y15273517D01*
X21923517Y15190802D01*
X21977285Y15164517D01*
X22028604Y15139428D01*
X22028605Y15139428D01*
X22028607Y15139427D01*
X22096740Y15129500D01*
X22096743Y15129500D01*
X25563257Y15129500D01*
X25563260Y15129500D01*
X25631393Y15139427D01*
X25736483Y15190802D01*
X25819198Y15273517D01*
X25870573Y15378607D01*
X25880500Y15446740D01*
X25880500Y16913260D01*
X25870573Y16981393D01*
X25819198Y17086483D01*
X25736483Y17169198D01*
X25736481Y17169199D01*
X25631395Y17220573D01*
X25604139Y17224544D01*
X25563260Y17230500D01*
X22096740Y17230500D01*
X22062673Y17225537D01*
X22028604Y17220573D01*
X21923518Y17169199D01*
X21840801Y17086482D01*
X21789427Y16981396D01*
X21789427Y16981393D01*
X21779500Y16913260D01*
X17430500Y16913260D01*
X17430500Y19453260D01*
X21779500Y19453260D01*
X21779500Y17986740D01*
X21786118Y17941318D01*
X21789427Y17918605D01*
X21840801Y17813519D01*
X21840802Y17813517D01*
X21923517Y17730802D01*
X21977285Y17704517D01*
X22028604Y17679428D01*
X22028605Y17679428D01*
X22028607Y17679427D01*
X22096740Y17669500D01*
X22096743Y17669500D01*
X25563257Y17669500D01*
X25563260Y17669500D01*
X25631393Y17679427D01*
X25736483Y17730802D01*
X25819198Y17813517D01*
X25870573Y17918607D01*
X25880500Y17986740D01*
X25880500Y19453260D01*
X25870573Y19521393D01*
X25819198Y19626483D01*
X25736483Y19709198D01*
X25736479Y19709200D01*
X25631395Y19760573D01*
X25604139Y19764544D01*
X25563260Y19770500D01*
X22096740Y19770500D01*
X22062673Y19765537D01*
X22028604Y19760573D01*
X21923518Y19709199D01*
X21840801Y19626482D01*
X21789427Y19521396D01*
X21789427Y19521393D01*
X21779500Y19453260D01*
X17430500Y19453260D01*
X17430500Y21993260D01*
X21779500Y21993260D01*
X21779500Y20526740D01*
X21786118Y20481318D01*
X21789427Y20458605D01*
X21840801Y20353519D01*
X21840802Y20353517D01*
X21923517Y20270802D01*
X21977285Y20244517D01*
X22028604Y20219428D01*
X22028605Y20219428D01*
X22028607Y20219427D01*
X22096740Y20209500D01*
X22096743Y20209500D01*
X25563257Y20209500D01*
X25563260Y20209500D01*
X25631393Y20219427D01*
X25736483Y20270802D01*
X25819198Y20353517D01*
X25870573Y20458607D01*
X25880500Y20526740D01*
X25880500Y21993260D01*
X25870573Y22061393D01*
X25819198Y22166483D01*
X25736483Y22249198D01*
X25736481Y22249199D01*
X25631395Y22300573D01*
X25604139Y22304544D01*
X25563260Y22310500D01*
X22096740Y22310500D01*
X22062673Y22305537D01*
X22028604Y22300573D01*
X21923518Y22249199D01*
X21840801Y22166482D01*
X21789427Y22061396D01*
X21789427Y22061393D01*
X21779500Y21993260D01*
X17430500Y21993260D01*
X17430500Y24533260D01*
X21779500Y24533260D01*
X21779500Y23066740D01*
X21786118Y23021318D01*
X21789427Y22998605D01*
X21827602Y22920518D01*
X21840802Y22893517D01*
X21923517Y22810802D01*
X21977285Y22784517D01*
X22028604Y22759428D01*
X22028605Y22759428D01*
X22028607Y22759427D01*
X22096740Y22749500D01*
X22096743Y22749500D01*
X25563257Y22749500D01*
X25563260Y22749500D01*
X25631393Y22759427D01*
X25736483Y22810802D01*
X25819198Y22893517D01*
X25870573Y22998607D01*
X25880500Y23066740D01*
X25880500Y24533260D01*
X25870573Y24601393D01*
X25819198Y24706483D01*
X25736483Y24789198D01*
X25736481Y24789199D01*
X25631395Y24840573D01*
X25604139Y24844544D01*
X25563260Y24850500D01*
X22096740Y24850500D01*
X22062673Y24845537D01*
X22028604Y24840573D01*
X21923518Y24789199D01*
X21840801Y24706482D01*
X21789427Y24601396D01*
X21789427Y24601393D01*
X21779500Y24533260D01*
X17430500Y24533260D01*
X17430500Y31068126D01*
X17449407Y31126317D01*
X17459490Y31138124D01*
X18474626Y32153260D01*
X21779500Y32153260D01*
X21779500Y30686740D01*
X21786118Y30641318D01*
X21789427Y30618605D01*
X21840801Y30513519D01*
X21840802Y30513517D01*
X21923517Y30430802D01*
X21977285Y30404517D01*
X22028604Y30379428D01*
X22028605Y30379428D01*
X22028607Y30379427D01*
X22096740Y30369500D01*
X22096743Y30369500D01*
X25563257Y30369500D01*
X25563260Y30369500D01*
X25631393Y30379427D01*
X25736483Y30430802D01*
X25819198Y30513517D01*
X25870573Y30618607D01*
X25880500Y30686740D01*
X25880500Y30726967D01*
X25899407Y30785158D01*
X25948907Y30821122D01*
X26010093Y30821122D01*
X26049504Y30796971D01*
X27246971Y29599504D01*
X27274748Y29544987D01*
X27265177Y29484555D01*
X27221912Y29441290D01*
X27176967Y29430500D01*
X25979500Y29430500D01*
X25921309Y29449407D01*
X25885345Y29498907D01*
X25880500Y29529500D01*
X25880500Y29613257D01*
X25880500Y29613260D01*
X25870573Y29681393D01*
X25819198Y29786483D01*
X25736483Y29869198D01*
X25736481Y29869199D01*
X25631395Y29920573D01*
X25604139Y29924544D01*
X25563260Y29930500D01*
X22096740Y29930500D01*
X22062673Y29925537D01*
X22028604Y29920573D01*
X21923518Y29869199D01*
X21840801Y29786482D01*
X21789427Y29681396D01*
X21789427Y29681393D01*
X21779500Y29613260D01*
X21779500Y28146740D01*
X21786118Y28101318D01*
X21789427Y28078605D01*
X21840801Y27973519D01*
X21840802Y27973517D01*
X21923517Y27890802D01*
X21977285Y27864517D01*
X22028604Y27839428D01*
X22028605Y27839428D01*
X22028607Y27839427D01*
X22096740Y27829500D01*
X22096743Y27829500D01*
X25563257Y27829500D01*
X25563260Y27829500D01*
X25631393Y27839427D01*
X25736483Y27890802D01*
X25819198Y27973517D01*
X25870573Y28078607D01*
X25880500Y28146740D01*
X25880500Y28230500D01*
X25899407Y28288691D01*
X25948907Y28324655D01*
X25979500Y28329500D01*
X27694755Y28329500D01*
X27752946Y28310593D01*
X27764759Y28300504D01*
X29005759Y27059504D01*
X29033536Y27004987D01*
X29023965Y26944555D01*
X28980700Y26901290D01*
X28935755Y26890500D01*
X25979500Y26890500D01*
X25921309Y26909407D01*
X25885345Y26958907D01*
X25880500Y26989500D01*
X25880500Y27073257D01*
X25880500Y27073260D01*
X25870573Y27141393D01*
X25819198Y27246483D01*
X25736483Y27329198D01*
X25712407Y27340968D01*
X25631395Y27380573D01*
X25604139Y27384544D01*
X25563260Y27390500D01*
X22096740Y27390500D01*
X22062673Y27385537D01*
X22028604Y27380573D01*
X21923518Y27329199D01*
X21840801Y27246482D01*
X21789427Y27141396D01*
X21789427Y27141393D01*
X21779500Y27073260D01*
X21779500Y25606740D01*
X21786118Y25561318D01*
X21789427Y25538605D01*
X21819091Y25477928D01*
X21840802Y25433517D01*
X21923517Y25350802D01*
X21977285Y25324517D01*
X22028604Y25299428D01*
X22028605Y25299428D01*
X22028607Y25299427D01*
X22096740Y25289500D01*
X22096743Y25289500D01*
X25563257Y25289500D01*
X25563260Y25289500D01*
X25631393Y25299427D01*
X25736483Y25350802D01*
X25819198Y25433517D01*
X25870573Y25538607D01*
X25880500Y25606740D01*
X25880500Y25690500D01*
X25899407Y25748691D01*
X25948907Y25784655D01*
X25979500Y25789500D01*
X26899937Y25789500D01*
X26958128Y25770593D01*
X26994092Y25721093D01*
X26994092Y25659907D01*
X26969942Y25620499D01*
X26888051Y25538607D01*
X26827369Y25477925D01*
X26659753Y25259483D01*
X26522074Y25021017D01*
X26416704Y24766632D01*
X26381847Y24636540D01*
X26345440Y24500666D01*
X26309500Y24227674D01*
X26309500Y23952326D01*
X26345440Y23679334D01*
X26384253Y23534479D01*
X26416704Y23413369D01*
X26522074Y23158984D01*
X26522077Y23158979D01*
X26659751Y22920521D01*
X26827372Y22702072D01*
X27022072Y22507372D01*
X27240521Y22339751D01*
X27478979Y22202077D01*
X27478980Y22202077D01*
X27478983Y22202075D01*
X27564912Y22166482D01*
X27733368Y22096705D01*
X27999334Y22025440D01*
X28272326Y21989500D01*
X28272327Y21989500D01*
X28547673Y21989500D01*
X28547674Y21989500D01*
X28820666Y22025440D01*
X29086632Y22096705D01*
X29341021Y22202077D01*
X29579479Y22339751D01*
X29797928Y22507372D01*
X29992628Y22702072D01*
X30160249Y22920521D01*
X30297923Y23158979D01*
X30403295Y23413368D01*
X30474560Y23679334D01*
X30510500Y23952326D01*
X30510500Y24227674D01*
X30474560Y24500666D01*
X30457148Y24565649D01*
X30460351Y24626746D01*
X30498856Y24674296D01*
X30557956Y24690132D01*
X30615078Y24668205D01*
X30622779Y24661272D01*
X33880504Y21403547D01*
X33908281Y21349030D01*
X33909500Y21333543D01*
X33909500Y14850810D01*
X33890593Y14792619D01*
X33868691Y14770717D01*
X33730210Y14670106D01*
X33579891Y14519787D01*
X33454950Y14347820D01*
X33454948Y14347816D01*
X33402335Y14244555D01*
X33359070Y14201290D01*
X33314125Y14190500D01*
X29405875Y14190500D01*
X29347684Y14209407D01*
X29317665Y14244555D01*
X29265051Y14347816D01*
X29265049Y14347820D01*
X29140108Y14519787D01*
X29140106Y14519789D01*
X29140104Y14519792D01*
X28989792Y14670104D01*
X28989788Y14670107D01*
X28989786Y14670109D01*
X28817819Y14795050D01*
X28817815Y14795052D01*
X28628412Y14891557D01*
X28426238Y14957248D01*
X28216290Y14990500D01*
X28216287Y14990500D01*
X28003713Y14990500D01*
X28003710Y14990500D01*
X27793761Y14957248D01*
X27591587Y14891557D01*
X27402184Y14795052D01*
X27402180Y14795050D01*
X27230213Y14670109D01*
X27079891Y14519787D01*
X26954950Y14347820D01*
X26954948Y14347816D01*
X26858443Y14158413D01*
X26792752Y13956239D01*
X26759500Y13746291D01*
X26759500Y13533710D01*
X26792752Y13323762D01*
X26858443Y13121588D01*
X26954948Y12932185D01*
X26954950Y12932181D01*
X27079891Y12760214D01*
X27079893Y12760212D01*
X27079896Y12760208D01*
X27230208Y12609896D01*
X27230211Y12609894D01*
X27230213Y12609892D01*
X27402180Y12484951D01*
X27402184Y12484949D01*
X27591588Y12388443D01*
X27793757Y12322754D01*
X27793758Y12322754D01*
X27793761Y12322753D01*
X28003710Y12289500D01*
X28003713Y12289500D01*
X28216290Y12289500D01*
X28426238Y12322753D01*
X28426239Y12322754D01*
X28426243Y12322754D01*
X28628412Y12388443D01*
X28817816Y12484949D01*
X28989792Y12609896D01*
X29140104Y12760208D01*
X29265051Y12932184D01*
X29317665Y13035445D01*
X29360930Y13078710D01*
X29405875Y13089500D01*
X33314125Y13089500D01*
X33372316Y13070593D01*
X33402335Y13035445D01*
X33454948Y12932185D01*
X33454950Y12932181D01*
X33579891Y12760214D01*
X33579893Y12760212D01*
X33579896Y12760208D01*
X33730208Y12609896D01*
X33730211Y12609894D01*
X33730213Y12609892D01*
X33902180Y12484951D01*
X33902184Y12484949D01*
X34091588Y12388443D01*
X34293757Y12322754D01*
X34293758Y12322754D01*
X34293761Y12322753D01*
X34503710Y12289500D01*
X34503713Y12289500D01*
X34716290Y12289500D01*
X34926238Y12322753D01*
X34926239Y12322754D01*
X34926243Y12322754D01*
X35128412Y12388443D01*
X35317816Y12484949D01*
X35489792Y12609896D01*
X35640104Y12760208D01*
X35765051Y12932184D01*
X35839710Y13078710D01*
X35861554Y13121581D01*
X35861555Y13121584D01*
X35861555Y13121585D01*
X35861557Y13121588D01*
X35927246Y13323757D01*
X35944016Y13429638D01*
X35960500Y13533710D01*
X35960500Y13746291D01*
X35927247Y13956239D01*
X35910524Y14007708D01*
X35861557Y14158412D01*
X35817665Y14244555D01*
X35790624Y14297627D01*
X35790623Y14297629D01*
X35769703Y14338686D01*
X36762000Y14338686D01*
X36762000Y14101315D01*
X36799130Y13866881D01*
X36872482Y13641129D01*
X36980242Y13429638D01*
X37039231Y13348444D01*
X37745016Y14054230D01*
X37757482Y14007708D01*
X37829890Y13882292D01*
X37932292Y13779890D01*
X38057708Y13707482D01*
X38104226Y13695018D01*
X37398442Y12989233D01*
X37479637Y12930243D01*
X37691128Y12822483D01*
X37916880Y12749131D01*
X38151315Y12712000D01*
X38388685Y12712000D01*
X38623119Y12749131D01*
X38848871Y12822483D01*
X39060361Y12930242D01*
X39141555Y12989234D01*
X38435772Y13695017D01*
X38482292Y13707482D01*
X38607708Y13779890D01*
X38710110Y13882292D01*
X38782518Y14007708D01*
X38794983Y14054228D01*
X39500766Y13348445D01*
X39559758Y13429639D01*
X39667517Y13641129D01*
X39740869Y13866881D01*
X39778000Y14101315D01*
X39778000Y14338686D01*
X43262000Y14338686D01*
X43262000Y14101315D01*
X43299130Y13866881D01*
X43372482Y13641129D01*
X43480242Y13429638D01*
X43539231Y13348444D01*
X44245016Y14054230D01*
X44257482Y14007708D01*
X44329890Y13882292D01*
X44432292Y13779890D01*
X44557708Y13707482D01*
X44604226Y13695018D01*
X43898442Y12989233D01*
X43979637Y12930243D01*
X44191128Y12822483D01*
X44416880Y12749131D01*
X44651315Y12712000D01*
X44888685Y12712000D01*
X45123119Y12749131D01*
X45348871Y12822483D01*
X45560361Y12930242D01*
X45641555Y12989234D01*
X44935772Y13695017D01*
X44982292Y13707482D01*
X45107708Y13779890D01*
X45210110Y13882292D01*
X45282518Y14007708D01*
X45294983Y14054228D01*
X46000766Y13348445D01*
X46059758Y13429639D01*
X46167517Y13641129D01*
X46240869Y13866881D01*
X46278000Y14101315D01*
X46278000Y14338686D01*
X46240869Y14573120D01*
X46167517Y14798872D01*
X46059757Y15010363D01*
X46000767Y15091558D01*
X45294982Y14385774D01*
X45282518Y14432292D01*
X45210110Y14557708D01*
X45107708Y14660110D01*
X44982292Y14732518D01*
X44935770Y14744984D01*
X45641556Y15450769D01*
X45560362Y15509758D01*
X45348871Y15617518D01*
X45123119Y15690870D01*
X44888685Y15728000D01*
X44651315Y15728000D01*
X44416880Y15690870D01*
X44191128Y15617518D01*
X43979632Y15509755D01*
X43898442Y15450769D01*
X44604227Y14744984D01*
X44557708Y14732518D01*
X44432292Y14660110D01*
X44329890Y14557708D01*
X44257482Y14432292D01*
X44245016Y14385773D01*
X43539231Y15091558D01*
X43480245Y15010368D01*
X43372482Y14798872D01*
X43299130Y14573120D01*
X43262000Y14338686D01*
X39778000Y14338686D01*
X39740869Y14573120D01*
X39667517Y14798872D01*
X39559757Y15010363D01*
X39500767Y15091558D01*
X38794982Y14385774D01*
X38782518Y14432292D01*
X38710110Y14557708D01*
X38607708Y14660110D01*
X38482292Y14732518D01*
X38435770Y14744984D01*
X39141556Y15450769D01*
X39060362Y15509758D01*
X38848871Y15617518D01*
X38623119Y15690870D01*
X38388685Y15728000D01*
X38151315Y15728000D01*
X37916880Y15690870D01*
X37691128Y15617518D01*
X37479632Y15509755D01*
X37398442Y15450769D01*
X38104227Y14744984D01*
X38057708Y14732518D01*
X37932292Y14660110D01*
X37829890Y14557708D01*
X37757482Y14432292D01*
X37745016Y14385773D01*
X37039231Y15091558D01*
X36980245Y15010368D01*
X36872482Y14798872D01*
X36799130Y14573120D01*
X36762000Y14338686D01*
X35769703Y14338686D01*
X35765054Y14347811D01*
X35765049Y14347820D01*
X35640108Y14519787D01*
X35640106Y14519789D01*
X35640104Y14519792D01*
X35489792Y14670104D01*
X35489788Y14670107D01*
X35489786Y14670109D01*
X35317819Y14795050D01*
X35317815Y14795052D01*
X35214551Y14847667D01*
X35128412Y14891557D01*
X35128409Y14891558D01*
X35128407Y14891559D01*
X35078906Y14907643D01*
X35029407Y14943607D01*
X35010500Y15001797D01*
X35010500Y20815756D01*
X35029407Y20873947D01*
X35078907Y20909911D01*
X35140093Y20909911D01*
X35179501Y20885762D01*
X35798173Y20267090D01*
X35880729Y20219427D01*
X35923703Y20194616D01*
X36063713Y20157100D01*
X36063714Y20157100D01*
X36208662Y20157100D01*
X37703371Y20157100D01*
X37761562Y20138193D01*
X37797526Y20088693D01*
X37797526Y20027507D01*
X37761562Y19978007D01*
X37748316Y19969890D01*
X37562184Y19875052D01*
X37562180Y19875050D01*
X37390213Y19750109D01*
X37239891Y19599787D01*
X37114950Y19427820D01*
X37114948Y19427816D01*
X37018443Y19238413D01*
X36952752Y19036239D01*
X36919500Y18826291D01*
X36919500Y18613710D01*
X36952752Y18403762D01*
X37018443Y18201588D01*
X37114948Y18012185D01*
X37114950Y18012181D01*
X37239891Y17840214D01*
X37239893Y17840212D01*
X37239896Y17840208D01*
X37390208Y17689896D01*
X37390211Y17689894D01*
X37390213Y17689892D01*
X37562180Y17564951D01*
X37562184Y17564949D01*
X37751588Y17468443D01*
X37953757Y17402754D01*
X37953758Y17402754D01*
X37953761Y17402753D01*
X38163710Y17369500D01*
X38163713Y17369500D01*
X38376290Y17369500D01*
X38586238Y17402753D01*
X38586239Y17402754D01*
X38586243Y17402754D01*
X38788412Y17468443D01*
X38977816Y17564949D01*
X39149792Y17689896D01*
X39300104Y17840208D01*
X39425051Y18012184D01*
X39521557Y18201588D01*
X39587246Y18403757D01*
X39620500Y18613713D01*
X39620500Y18826287D01*
X39620500Y18826291D01*
X39587247Y19036239D01*
X39587246Y19036243D01*
X39521557Y19238412D01*
X39425051Y19427816D01*
X39425049Y19427820D01*
X39300108Y19599787D01*
X39300106Y19599789D01*
X39300104Y19599792D01*
X39149792Y19750104D01*
X39149788Y19750107D01*
X39149786Y19750109D01*
X38977819Y19875050D01*
X38977815Y19875052D01*
X38791684Y19969890D01*
X38748419Y20013155D01*
X38738848Y20073587D01*
X38766625Y20128104D01*
X38821142Y20155881D01*
X38836629Y20157100D01*
X44203371Y20157100D01*
X44261562Y20138193D01*
X44297526Y20088693D01*
X44297526Y20027507D01*
X44261562Y19978007D01*
X44248316Y19969890D01*
X44062184Y19875052D01*
X44062180Y19875050D01*
X43890213Y19750109D01*
X43739891Y19599787D01*
X43614950Y19427820D01*
X43614948Y19427816D01*
X43518443Y19238413D01*
X43452752Y19036239D01*
X43419500Y18826291D01*
X43419500Y18613710D01*
X43452752Y18403762D01*
X43518443Y18201588D01*
X43614948Y18012185D01*
X43614950Y18012181D01*
X43739891Y17840214D01*
X43739893Y17840212D01*
X43739896Y17840208D01*
X43890208Y17689896D01*
X43890211Y17689894D01*
X43890213Y17689892D01*
X44062180Y17564951D01*
X44062184Y17564949D01*
X44251588Y17468443D01*
X44453757Y17402754D01*
X44453758Y17402754D01*
X44453761Y17402753D01*
X44663710Y17369500D01*
X44663713Y17369500D01*
X44876290Y17369500D01*
X45086238Y17402753D01*
X45086239Y17402754D01*
X45086243Y17402754D01*
X45288412Y17468443D01*
X45477816Y17564949D01*
X45649792Y17689896D01*
X45800104Y17840208D01*
X45925051Y18012184D01*
X46021557Y18201588D01*
X46087246Y18403757D01*
X46120500Y18613713D01*
X46120500Y18826287D01*
X46120500Y18826291D01*
X46087247Y19036239D01*
X46087246Y19036243D01*
X46021557Y19238412D01*
X45925051Y19427816D01*
X45925049Y19427820D01*
X45800108Y19599787D01*
X45800106Y19599789D01*
X45800104Y19599792D01*
X45649792Y19750104D01*
X45649788Y19750107D01*
X45649786Y19750109D01*
X45477819Y19875050D01*
X45477815Y19875052D01*
X45291684Y19969890D01*
X45248419Y20013155D01*
X45238848Y20073587D01*
X45266625Y20128104D01*
X45321142Y20155881D01*
X45336629Y20157100D01*
X46890967Y20157100D01*
X46949158Y20138193D01*
X46960971Y20128104D01*
X47850504Y19238571D01*
X47878281Y19184054D01*
X47879500Y19168567D01*
X47879500Y14935876D01*
X47860593Y14877685D01*
X47825446Y14847667D01*
X47722189Y14795055D01*
X47722180Y14795050D01*
X47550213Y14670109D01*
X47399891Y14519787D01*
X47274950Y14347820D01*
X47274948Y14347816D01*
X47178443Y14158413D01*
X47112752Y13956239D01*
X47079500Y13746291D01*
X47079500Y13533710D01*
X47112752Y13323762D01*
X47178443Y13121588D01*
X47274948Y12932185D01*
X47274950Y12932181D01*
X47399891Y12760214D01*
X47399893Y12760212D01*
X47399896Y12760208D01*
X47550208Y12609896D01*
X47550211Y12609894D01*
X47550213Y12609892D01*
X47722180Y12484951D01*
X47722184Y12484949D01*
X47911588Y12388443D01*
X48113757Y12322754D01*
X48113758Y12322754D01*
X48113761Y12322753D01*
X48323710Y12289500D01*
X48323713Y12289500D01*
X48536290Y12289500D01*
X48746238Y12322753D01*
X48746239Y12322754D01*
X48746243Y12322754D01*
X48948412Y12388443D01*
X49137816Y12484949D01*
X49309792Y12609896D01*
X49460104Y12760208D01*
X49585051Y12932184D01*
X49637665Y13035445D01*
X49680930Y13078710D01*
X49725875Y13089500D01*
X53634125Y13089500D01*
X53692316Y13070593D01*
X53722335Y13035445D01*
X53774948Y12932185D01*
X53774950Y12932181D01*
X53899891Y12760214D01*
X53899893Y12760212D01*
X53899896Y12760208D01*
X54050208Y12609896D01*
X54050211Y12609894D01*
X54050213Y12609892D01*
X54222180Y12484951D01*
X54222184Y12484949D01*
X54411588Y12388443D01*
X54613757Y12322754D01*
X54613758Y12322754D01*
X54613761Y12322753D01*
X54823710Y12289500D01*
X54823713Y12289500D01*
X55036290Y12289500D01*
X55246238Y12322753D01*
X55246239Y12322754D01*
X55246243Y12322754D01*
X55448412Y12388443D01*
X55637816Y12484949D01*
X55809792Y12609896D01*
X55960104Y12760208D01*
X56085051Y12932184D01*
X56181557Y13121588D01*
X56247246Y13323757D01*
X56264016Y13429638D01*
X56280500Y13533710D01*
X56280500Y13746291D01*
X56247247Y13956239D01*
X56230524Y14007708D01*
X56181557Y14158412D01*
X56085051Y14347816D01*
X56085049Y14347820D01*
X55960108Y14519787D01*
X55960106Y14519789D01*
X55960104Y14519792D01*
X55809792Y14670104D01*
X55809788Y14670107D01*
X55809786Y14670109D01*
X55637819Y14795050D01*
X55637815Y14795052D01*
X55448412Y14891557D01*
X55246238Y14957248D01*
X55036290Y14990500D01*
X55036287Y14990500D01*
X54823713Y14990500D01*
X54823710Y14990500D01*
X54613761Y14957248D01*
X54411587Y14891557D01*
X54222184Y14795052D01*
X54222180Y14795050D01*
X54050213Y14670109D01*
X53899891Y14519787D01*
X53774950Y14347820D01*
X53774948Y14347816D01*
X53722335Y14244555D01*
X53679070Y14201290D01*
X53634125Y14190500D01*
X49725875Y14190500D01*
X49667684Y14209407D01*
X49637665Y14244555D01*
X49585051Y14347816D01*
X49585049Y14347820D01*
X49460108Y14519787D01*
X49460106Y14519789D01*
X49460104Y14519792D01*
X49309792Y14670104D01*
X49309788Y14670107D01*
X49309786Y14670109D01*
X49137819Y14795050D01*
X49137810Y14795055D01*
X49034554Y14847667D01*
X48991290Y14890932D01*
X48980500Y14935876D01*
X48980500Y19510075D01*
X48977467Y19521393D01*
X48942984Y19650085D01*
X48908855Y19709198D01*
X48870510Y19775615D01*
X48105629Y20540496D01*
X48077852Y20595013D01*
X48087423Y20655445D01*
X48130688Y20698710D01*
X48175633Y20709500D01*
X54510967Y20709500D01*
X54569158Y20690593D01*
X54580971Y20680504D01*
X61094415Y14167060D01*
X61122192Y14112543D01*
X61118566Y14066464D01*
X61082753Y13956241D01*
X61049500Y13746291D01*
X61049500Y13533710D01*
X61082752Y13323762D01*
X61148443Y13121588D01*
X61244948Y12932185D01*
X61244950Y12932181D01*
X61369891Y12760214D01*
X61369893Y12760212D01*
X61369896Y12760208D01*
X61520208Y12609896D01*
X61520211Y12609894D01*
X61520213Y12609892D01*
X61692180Y12484951D01*
X61692184Y12484949D01*
X61881588Y12388443D01*
X62083757Y12322754D01*
X62083758Y12322754D01*
X62083761Y12322753D01*
X62293710Y12289500D01*
X62293713Y12289500D01*
X62506290Y12289500D01*
X62716238Y12322753D01*
X62716239Y12322754D01*
X62716243Y12322754D01*
X62918412Y12388443D01*
X63107816Y12484949D01*
X63279792Y12609896D01*
X63430104Y12760208D01*
X63555051Y12932184D01*
X63651557Y13121588D01*
X63717246Y13323757D01*
X63734016Y13429638D01*
X63750500Y13533710D01*
X63750500Y13746291D01*
X67549500Y13746291D01*
X67549500Y13533710D01*
X67582752Y13323762D01*
X67648443Y13121588D01*
X67744948Y12932185D01*
X67744950Y12932181D01*
X67869891Y12760214D01*
X67869893Y12760212D01*
X67869896Y12760208D01*
X68020208Y12609896D01*
X68020211Y12609894D01*
X68020213Y12609892D01*
X68192180Y12484951D01*
X68192184Y12484949D01*
X68381588Y12388443D01*
X68583757Y12322754D01*
X68583758Y12322754D01*
X68583761Y12322753D01*
X68793710Y12289500D01*
X68793713Y12289500D01*
X69006290Y12289500D01*
X69216238Y12322753D01*
X69216239Y12322754D01*
X69216243Y12322754D01*
X69418412Y12388443D01*
X69607816Y12484949D01*
X69779792Y12609896D01*
X69930104Y12760208D01*
X70055051Y12932184D01*
X70151557Y13121588D01*
X70217246Y13323757D01*
X70234016Y13429638D01*
X70250500Y13533710D01*
X70250500Y13746291D01*
X70217247Y13956239D01*
X70200524Y14007708D01*
X70151557Y14158412D01*
X70055051Y14347816D01*
X70055049Y14347820D01*
X69930108Y14519787D01*
X69930106Y14519789D01*
X69930104Y14519792D01*
X69779792Y14670104D01*
X69779788Y14670107D01*
X69779786Y14670109D01*
X69607819Y14795050D01*
X69607815Y14795052D01*
X69418412Y14891557D01*
X69216238Y14957248D01*
X69006290Y14990500D01*
X69006287Y14990500D01*
X68793713Y14990500D01*
X68793710Y14990500D01*
X68583761Y14957248D01*
X68381587Y14891557D01*
X68192184Y14795052D01*
X68192180Y14795050D01*
X68020213Y14670109D01*
X67869891Y14519787D01*
X67744950Y14347820D01*
X67744948Y14347816D01*
X67648443Y14158413D01*
X67582752Y13956239D01*
X67549500Y13746291D01*
X63750500Y13746291D01*
X63717247Y13956239D01*
X63700524Y14007708D01*
X63651557Y14158412D01*
X63555051Y14347816D01*
X63555049Y14347820D01*
X63430108Y14519787D01*
X63430106Y14519789D01*
X63430104Y14519792D01*
X63279792Y14670104D01*
X63279788Y14670107D01*
X63279786Y14670109D01*
X63107819Y14795050D01*
X63107815Y14795052D01*
X62918412Y14891557D01*
X62716238Y14957248D01*
X62506290Y14990500D01*
X62506287Y14990500D01*
X62293713Y14990500D01*
X62293710Y14990500D01*
X62083759Y14957247D01*
X61973536Y14921434D01*
X61912351Y14921435D01*
X61872940Y14945585D01*
X58616937Y18201588D01*
X55118015Y21700510D01*
X54992485Y21772984D01*
X54852475Y21810500D01*
X54852474Y21810500D01*
X53498482Y21810500D01*
X53440291Y21829407D01*
X53404327Y21878907D01*
X53404327Y21940093D01*
X53440291Y21989593D01*
X53485560Y22007653D01*
X53620666Y22025440D01*
X53886632Y22096705D01*
X54141021Y22202077D01*
X54379479Y22339751D01*
X54597928Y22507372D01*
X54792628Y22702072D01*
X54960249Y22920521D01*
X55097923Y23158979D01*
X55203295Y23413368D01*
X55274560Y23679334D01*
X55310500Y23952326D01*
X55310500Y24227674D01*
X55274560Y24500666D01*
X55203295Y24766632D01*
X55193947Y24789199D01*
X55097925Y25021017D01*
X55097923Y25021021D01*
X54960249Y25259479D01*
X54792628Y25477928D01*
X54597928Y25672628D01*
X54379479Y25840249D01*
X54141021Y25977923D01*
X54141016Y25977926D01*
X53886631Y26083296D01*
X53765521Y26115747D01*
X53620666Y26154560D01*
X53620659Y26154561D01*
X53347675Y26190500D01*
X53347674Y26190500D01*
X53072326Y26190500D01*
X53072324Y26190500D01*
X52799340Y26154561D01*
X52799338Y26154561D01*
X52799334Y26154560D01*
X52698805Y26127624D01*
X52533368Y26083296D01*
X52278983Y25977926D01*
X52040517Y25840247D01*
X51822075Y25672631D01*
X51627369Y25477925D01*
X51459753Y25259483D01*
X51322074Y25021017D01*
X51216704Y24766632D01*
X51181847Y24636540D01*
X51145440Y24500666D01*
X51109500Y24227674D01*
X51109500Y23952326D01*
X51145440Y23679334D01*
X51184253Y23534479D01*
X51216704Y23413369D01*
X51322074Y23158984D01*
X51322077Y23158979D01*
X51459751Y22920521D01*
X51627372Y22702072D01*
X51822072Y22507372D01*
X52040521Y22339751D01*
X52278979Y22202077D01*
X52278980Y22202077D01*
X52278983Y22202075D01*
X52364912Y22166482D01*
X52533368Y22096705D01*
X52799334Y22025440D01*
X52934440Y22007653D01*
X52989665Y21981312D01*
X53018860Y21927541D01*
X53010874Y21866879D01*
X52968757Y21822497D01*
X52921518Y21810500D01*
X36634033Y21810500D01*
X36575842Y21829407D01*
X36564029Y21839496D01*
X32213025Y26190500D01*
X26543015Y31860510D01*
X26417485Y31932984D01*
X26277475Y31970500D01*
X26277474Y31970500D01*
X25979500Y31970500D01*
X25921309Y31989407D01*
X25885345Y32038907D01*
X25880500Y32069500D01*
X25880500Y32153257D01*
X25880500Y32153260D01*
X25870573Y32221393D01*
X25819198Y32326483D01*
X25736483Y32409198D01*
X25736481Y32409199D01*
X25631395Y32460573D01*
X25604139Y32464544D01*
X25563260Y32470500D01*
X22096740Y32470500D01*
X22062673Y32465537D01*
X22028604Y32460573D01*
X21923518Y32409199D01*
X21840801Y32326482D01*
X21789427Y32221396D01*
X21789427Y32221393D01*
X21779500Y32153260D01*
X18474626Y32153260D01*
X21014627Y34693260D01*
X21779500Y34693260D01*
X21779500Y33226740D01*
X21786118Y33181318D01*
X21789427Y33158605D01*
X21822231Y33091504D01*
X21840802Y33053517D01*
X21923517Y32970802D01*
X21974607Y32945826D01*
X22028604Y32919428D01*
X22028605Y32919428D01*
X22028607Y32919427D01*
X22096740Y32909500D01*
X22096743Y32909500D01*
X25563257Y32909500D01*
X25563260Y32909500D01*
X25631393Y32919427D01*
X25736483Y32970802D01*
X25819198Y33053517D01*
X25870573Y33158607D01*
X25880500Y33226740D01*
X25880500Y34693260D01*
X25870573Y34761393D01*
X25867907Y34766846D01*
X25845483Y34812715D01*
X25819198Y34866483D01*
X25736483Y34949198D01*
X25736481Y34949199D01*
X25631395Y35000573D01*
X25604139Y35004544D01*
X25563260Y35010500D01*
X22096740Y35010500D01*
X22062673Y35005537D01*
X22028604Y35000573D01*
X21923518Y34949199D01*
X21840801Y34866482D01*
X21789427Y34761396D01*
X21787820Y34750363D01*
X21779500Y34693260D01*
X21014627Y34693260D01*
X21707951Y35386584D01*
X21777034Y35489976D01*
X21825083Y35527854D01*
X21886222Y35530256D01*
X21916876Y35515544D01*
X21923514Y35510805D01*
X21923517Y35510802D01*
X21966122Y35489974D01*
X22028604Y35459428D01*
X22028605Y35459428D01*
X22028607Y35459427D01*
X22096740Y35449500D01*
X22096743Y35449500D01*
X25563257Y35449500D01*
X25563260Y35449500D01*
X25631393Y35459427D01*
X25736483Y35510802D01*
X25819198Y35593517D01*
X25870573Y35698607D01*
X25880500Y35766740D01*
X25880500Y37233260D01*
X25870573Y37301393D01*
X25819198Y37406483D01*
X25736483Y37489198D01*
X25736481Y37489199D01*
X25631395Y37540573D01*
X25604139Y37544544D01*
X25563260Y37550500D01*
X22096740Y37550500D01*
X22028607Y37540573D01*
X22028606Y37540573D01*
X22028602Y37540572D01*
X22017977Y37535378D01*
X22010887Y37534376D01*
X22005093Y37530165D01*
X21981122Y37530165D01*
X21957395Y37526809D01*
X21951070Y37530165D01*
X21943907Y37530165D01*
X21924514Y37544255D01*
X21903346Y37555486D01*
X21900201Y37561920D01*
X21894407Y37566129D01*
X21886999Y37588927D01*
X21876476Y37610456D01*
X21875500Y37624320D01*
X21875500Y37750152D01*
X21894407Y37808343D01*
X21943907Y37844307D01*
X22005093Y37844307D01*
X22009097Y37842910D01*
X22020904Y37838507D01*
X22020911Y37838505D01*
X22081413Y37832000D01*
X23575999Y37832000D01*
X23576000Y37832001D01*
X23576000Y38785999D01*
X24084000Y38785999D01*
X24084000Y37832001D01*
X24084001Y37832000D01*
X25578587Y37832000D01*
X25600146Y37834318D01*
X28727000Y37834318D01*
X28727000Y37705683D01*
X28752094Y37579528D01*
X28752094Y37579526D01*
X28801317Y37460691D01*
X28801318Y37460689D01*
X28801319Y37460688D01*
X28872781Y37353737D01*
X28963737Y37262781D01*
X29070688Y37191319D01*
X29070689Y37191319D01*
X29070690Y37191318D01*
X29097610Y37180168D01*
X29189527Y37142094D01*
X29315685Y37117000D01*
X29315686Y37117000D01*
X29444314Y37117000D01*
X29444315Y37117000D01*
X29570473Y37142094D01*
X29689312Y37191319D01*
X29706517Y37202816D01*
X29761519Y37219500D01*
X60225968Y37219500D01*
X60284159Y37200593D01*
X60295971Y37190504D01*
X60550503Y36935973D01*
X60578281Y36881456D01*
X60579500Y36865969D01*
X60579500Y35409500D01*
X60560593Y35351309D01*
X60511093Y35315345D01*
X60480500Y35310500D01*
X60096740Y35310500D01*
X60062673Y35305537D01*
X60028604Y35300573D01*
X59923518Y35249199D01*
X59840801Y35166482D01*
X59789427Y35061396D01*
X59789427Y35061393D01*
X59779500Y34993260D01*
X59779500Y32926740D01*
X59783820Y32897093D01*
X59789427Y32858605D01*
X59840801Y32753519D01*
X59840802Y32753517D01*
X59923517Y32670802D01*
X59924663Y32670242D01*
X60028604Y32619428D01*
X60028605Y32619428D01*
X60028607Y32619427D01*
X60096740Y32609500D01*
X60096743Y32609500D01*
X62163257Y32609500D01*
X62163260Y32609500D01*
X62231393Y32619427D01*
X62336483Y32670802D01*
X62419198Y32753517D01*
X62470573Y32858607D01*
X62480500Y32926740D01*
X62480500Y34078686D01*
X64622000Y34078686D01*
X64622000Y33841315D01*
X64659130Y33606881D01*
X64732482Y33381129D01*
X64840242Y33169638D01*
X64899231Y33088444D01*
X65645841Y33835055D01*
X65664075Y33767007D01*
X65729901Y33652993D01*
X65822993Y33559901D01*
X65937007Y33494075D01*
X66005051Y33475843D01*
X65258442Y32729233D01*
X65339637Y32670243D01*
X65551128Y32562483D01*
X65776880Y32489131D01*
X66011315Y32452000D01*
X66248685Y32452000D01*
X66483119Y32489131D01*
X66708871Y32562483D01*
X66920361Y32670242D01*
X67001555Y32729234D01*
X66254947Y33475842D01*
X66322993Y33494075D01*
X66437007Y33559901D01*
X66530099Y33652993D01*
X66595925Y33767007D01*
X66614158Y33835053D01*
X67360766Y33088445D01*
X67419758Y33169639D01*
X67527517Y33381129D01*
X67600869Y33606881D01*
X67638000Y33841315D01*
X67638000Y34078686D01*
X67600869Y34313120D01*
X67527517Y34538872D01*
X67419757Y34750363D01*
X67360767Y34831558D01*
X66614157Y34084949D01*
X66595925Y34152993D01*
X66530099Y34267007D01*
X66437007Y34360099D01*
X66322993Y34425925D01*
X66254945Y34444159D01*
X67001556Y35190769D01*
X66920362Y35249758D01*
X66708871Y35357518D01*
X66483119Y35430870D01*
X66248685Y35468000D01*
X66011315Y35468000D01*
X65776880Y35430870D01*
X65551128Y35357518D01*
X65339632Y35249755D01*
X65258442Y35190769D01*
X66005052Y34444159D01*
X65937007Y34425925D01*
X65822993Y34360099D01*
X65729901Y34267007D01*
X65664075Y34152993D01*
X65645841Y34084948D01*
X64899231Y34831558D01*
X64840245Y34750368D01*
X64732482Y34538872D01*
X64659130Y34313120D01*
X64622000Y34078686D01*
X62480500Y34078686D01*
X62480500Y34993260D01*
X62470573Y35061393D01*
X62419198Y35166483D01*
X62336483Y35249198D01*
X62335344Y35249755D01*
X62231395Y35300573D01*
X62204139Y35304544D01*
X62163260Y35310500D01*
X62163257Y35310500D01*
X61779500Y35310500D01*
X61721309Y35329407D01*
X61685345Y35378907D01*
X61680500Y35409500D01*
X61680500Y37207475D01*
X61665681Y37262779D01*
X61642984Y37347485D01*
X61639374Y37353737D01*
X61617621Y37391415D01*
X61617621Y37391416D01*
X61570511Y37473012D01*
X61570510Y37473014D01*
X60833015Y38210510D01*
X60707485Y38282984D01*
X60707484Y38282985D01*
X60707481Y38282986D01*
X60618828Y38306741D01*
X60618828Y38306740D01*
X60593151Y38313620D01*
X60567475Y38320500D01*
X60567474Y38320500D01*
X29761519Y38320500D01*
X29706517Y38337185D01*
X29689312Y38348681D01*
X29689307Y38348683D01*
X29570473Y38397906D01*
X29444317Y38423000D01*
X29444315Y38423000D01*
X29315685Y38423000D01*
X29315682Y38423000D01*
X29189527Y38397906D01*
X29189525Y38397906D01*
X29070690Y38348683D01*
X28963740Y38277222D01*
X28872778Y38186260D01*
X28801317Y38079310D01*
X28752094Y37960475D01*
X28752094Y37960473D01*
X28727000Y37834318D01*
X25600146Y37834318D01*
X25639088Y37838505D01*
X25639098Y37838507D01*
X25775960Y37889553D01*
X25814537Y37918431D01*
X25892899Y37977093D01*
X25892907Y37977101D01*
X25980447Y38094040D01*
X26031493Y38230902D01*
X26031495Y38230912D01*
X26038000Y38291413D01*
X26038000Y38785999D01*
X26037999Y38786000D01*
X24084001Y38786000D01*
X24084000Y38785999D01*
X23576000Y38785999D01*
X23576000Y40247999D01*
X24084000Y40247999D01*
X24084000Y39294001D01*
X24084001Y39294000D01*
X26037999Y39294000D01*
X26038000Y39294001D01*
X26038000Y39788588D01*
X26031495Y39849089D01*
X26031493Y39849099D01*
X25980447Y39985961D01*
X25892907Y40102900D01*
X25892899Y40102908D01*
X25775960Y40190448D01*
X25639098Y40241494D01*
X25639088Y40241496D01*
X25578587Y40248000D01*
X24084001Y40248000D01*
X24084000Y40247999D01*
X23576000Y40247999D01*
X23575999Y40248000D01*
X22081413Y40248000D01*
X22020911Y40241496D01*
X22020905Y40241495D01*
X22009093Y40237089D01*
X22006882Y40236995D01*
X22005093Y40235694D01*
X21976507Y40235694D01*
X21947963Y40234472D01*
X21946120Y40235694D01*
X21943907Y40235694D01*
X21920780Y40252497D01*
X21896970Y40268285D01*
X21896197Y40270358D01*
X21894407Y40271658D01*
X21885573Y40298846D01*
X21875591Y40325614D01*
X21875500Y40329849D01*
X21875500Y40455681D01*
X21894407Y40513872D01*
X21943907Y40549836D01*
X22005093Y40549836D01*
X22017981Y40544621D01*
X22027965Y40539741D01*
X22028607Y40539427D01*
X22096740Y40529500D01*
X22096743Y40529500D01*
X25563257Y40529500D01*
X25563260Y40529500D01*
X25631393Y40539427D01*
X25736483Y40590802D01*
X25819198Y40673517D01*
X25870573Y40778607D01*
X25880500Y40846740D01*
X25880500Y42313260D01*
X25870573Y42381393D01*
X25819198Y42486483D01*
X25736483Y42569198D01*
X25736481Y42569199D01*
X25631395Y42620573D01*
X25604139Y42624544D01*
X25563260Y42630500D01*
X22096740Y42630500D01*
X22062673Y42625537D01*
X22028604Y42620573D01*
X21923518Y42569199D01*
X21840801Y42486482D01*
X21791689Y42386020D01*
X21749146Y42342046D01*
X21702748Y42330500D01*
X21686075Y42330500D01*
X21657241Y42324765D01*
X21657241Y42324764D01*
X21541088Y42301659D01*
X21541086Y42301659D01*
X21461079Y42268519D01*
X21404507Y42245086D01*
X21331791Y42196498D01*
X21281588Y42162955D01*
X20542045Y41423413D01*
X20504697Y41367515D01*
X20459914Y41300493D01*
X20403342Y41163915D01*
X20374500Y41018919D01*
X20374500Y36216876D01*
X20355593Y36158685D01*
X20345504Y36146872D01*
X16097047Y31898415D01*
X16071721Y31860510D01*
X16014914Y31775493D01*
X15958342Y31638915D01*
X15929500Y31493919D01*
X15929500Y6313270D01*
X15910593Y6255079D01*
X15900504Y6243266D01*
X15897930Y6240693D01*
X15897927Y6240690D01*
X15764310Y6107073D01*
X15764309Y6107072D01*
X15653238Y5954197D01*
X15567453Y5785833D01*
X15509058Y5606114D01*
X15507781Y5598046D01*
X15480004Y5543529D01*
X15425487Y5515752D01*
X15365055Y5525323D01*
X15321790Y5568588D01*
X15312219Y5598046D01*
X15310941Y5606114D01*
X15272280Y5725099D01*
X15252547Y5785832D01*
X15166760Y5954199D01*
X15055690Y6107073D01*
X14922073Y6240690D01*
X14769199Y6351760D01*
X14756218Y6358375D01*
X14744552Y6364319D01*
X14701289Y6407585D01*
X14690500Y6452527D01*
X14690500Y14982473D01*
X14690500Y14982475D01*
X14652984Y15122485D01*
X14643203Y15139427D01*
X14580510Y15248015D01*
X9069496Y20759029D01*
X9041719Y20813546D01*
X9040500Y20829033D01*
X9040500Y21993257D01*
X9040500Y21993260D01*
X9030573Y22061393D01*
X8979198Y22166483D01*
X8896483Y22249198D01*
X8896481Y22249199D01*
X8791395Y22300573D01*
X8764139Y22304544D01*
X8723260Y22310500D01*
X5256740Y22310500D01*
X5222673Y22305537D01*
X5188604Y22300573D01*
X5083518Y22249199D01*
X5000801Y22166482D01*
X4949427Y22061396D01*
X4949427Y22061393D01*
X4939500Y21993260D01*
X4939500Y20526740D01*
X4946118Y20481318D01*
X4949427Y20458605D01*
X5000801Y20353519D01*
X5000802Y20353517D01*
X5083517Y20270802D01*
X5137285Y20244517D01*
X5188604Y20219428D01*
X5188605Y20219428D01*
X5188607Y20219427D01*
X5256740Y20209500D01*
X8020967Y20209500D01*
X8079158Y20190593D01*
X8090971Y20180504D01*
X8331971Y19939504D01*
X8359748Y19884987D01*
X8350177Y19824555D01*
X8306912Y19781290D01*
X8261967Y19770500D01*
X5256740Y19770500D01*
X5222673Y19765537D01*
X5188604Y19760573D01*
X5083518Y19709199D01*
X5000801Y19626482D01*
X4949427Y19521396D01*
X4949427Y19521393D01*
X4939500Y19453260D01*
X4939500Y17986740D01*
X4946118Y17941318D01*
X4949427Y17918605D01*
X5000801Y17813519D01*
X5000802Y17813517D01*
X5083517Y17730802D01*
X5137285Y17704517D01*
X5188604Y17679428D01*
X5188605Y17679428D01*
X5188607Y17679427D01*
X5256740Y17669500D01*
X5256743Y17669500D01*
X8723257Y17669500D01*
X8723260Y17669500D01*
X8791393Y17679427D01*
X8896483Y17730802D01*
X8979198Y17813517D01*
X9030573Y17918607D01*
X9040500Y17986740D01*
X9040500Y18991967D01*
X9059407Y19050158D01*
X9108907Y19086122D01*
X9170093Y19086122D01*
X9209504Y19061971D01*
X13560504Y14710971D01*
X13588281Y14656454D01*
X13589500Y14640967D01*
X13589500Y6452527D01*
X13570593Y6394336D01*
X13535448Y6364319D01*
X13510801Y6351760D01*
X13357928Y6240691D01*
X13224309Y6107072D01*
X13113238Y5954197D01*
X13027453Y5785833D01*
X12969058Y5606114D01*
X12967781Y5598046D01*
X12940004Y5543529D01*
X12885487Y5515752D01*
X12825055Y5525323D01*
X12781790Y5568588D01*
X12772219Y5598046D01*
X12770941Y5606114D01*
X12732280Y5725099D01*
X12712547Y5785832D01*
X12626760Y5954199D01*
X12515690Y6107073D01*
X12382073Y6240690D01*
X12229199Y6351760D01*
X12229198Y6351761D01*
X12229196Y6351762D01*
X12060832Y6437547D01*
X11881113Y6495942D01*
X11694484Y6525500D01*
X11694481Y6525500D01*
X11505519Y6525500D01*
X11505516Y6525500D01*
X11318886Y6495942D01*
X11139167Y6437547D01*
X10970803Y6351762D01*
X10817928Y6240691D01*
X10684309Y6107072D01*
X10573238Y5954197D01*
X10487453Y5785833D01*
X10429058Y5606114D01*
X10427781Y5598046D01*
X10400004Y5543529D01*
X10345487Y5515752D01*
X10285055Y5525323D01*
X10241790Y5568588D01*
X10232219Y5598046D01*
X10230941Y5606114D01*
X10192280Y5725099D01*
X10172547Y5785832D01*
X10086760Y5954199D01*
X9975690Y6107073D01*
X9842073Y6240690D01*
X9689199Y6351760D01*
X9689198Y6351761D01*
X9689196Y6351762D01*
X9520832Y6437547D01*
X9341113Y6495942D01*
X9154484Y6525500D01*
X9154481Y6525500D01*
X8965519Y6525500D01*
X8965516Y6525500D01*
X8778886Y6495942D01*
X8599167Y6437547D01*
X8430803Y6351762D01*
X8277928Y6240691D01*
X8144309Y6107072D01*
X8033237Y5954196D01*
X8033236Y5954194D01*
X8020682Y5929554D01*
X7977417Y5886290D01*
X7932473Y5875500D01*
X6996659Y5875500D01*
X6938468Y5894407D01*
X6926655Y5904496D01*
X3842896Y8988255D01*
X3815119Y9042772D01*
X3813900Y9058259D01*
X3813900Y14373260D01*
X4939500Y14373260D01*
X4939500Y12906740D01*
X4946118Y12861318D01*
X4949427Y12838605D01*
X4993169Y12749131D01*
X5000802Y12733517D01*
X5083517Y12650802D01*
X5137285Y12624517D01*
X5188604Y12599428D01*
X5188605Y12599428D01*
X5188607Y12599427D01*
X5256740Y12589500D01*
X5256743Y12589500D01*
X8723257Y12589500D01*
X8723260Y12589500D01*
X8791393Y12599427D01*
X8896483Y12650802D01*
X8979198Y12733517D01*
X9030573Y12838607D01*
X9040500Y12906740D01*
X9040500Y14373260D01*
X9030573Y14441393D01*
X8979198Y14546483D01*
X8896483Y14629198D01*
X8872409Y14640967D01*
X8791395Y14680573D01*
X8764139Y14684544D01*
X8723260Y14690500D01*
X5256740Y14690500D01*
X5222673Y14685537D01*
X5188604Y14680573D01*
X5083518Y14629199D01*
X5000801Y14546482D01*
X4949427Y14441396D01*
X4949427Y14441393D01*
X4939500Y14373260D01*
X3813900Y14373260D01*
X3813900Y16913260D01*
X4939500Y16913260D01*
X4939500Y15446740D01*
X4946118Y15401318D01*
X4949427Y15378605D01*
X5000801Y15273519D01*
X5000802Y15273517D01*
X5083517Y15190802D01*
X5137285Y15164517D01*
X5188604Y15139428D01*
X5188605Y15139428D01*
X5188607Y15139427D01*
X5256740Y15129500D01*
X5256743Y15129500D01*
X8723257Y15129500D01*
X8723260Y15129500D01*
X8791393Y15139427D01*
X8896483Y15190802D01*
X8979198Y15273517D01*
X9030573Y15378607D01*
X9040500Y15446740D01*
X9040500Y16913260D01*
X9030573Y16981393D01*
X8979198Y17086483D01*
X8896483Y17169198D01*
X8896481Y17169199D01*
X8791395Y17220573D01*
X8764139Y17224544D01*
X8723260Y17230500D01*
X5256740Y17230500D01*
X5222673Y17225537D01*
X5188604Y17220573D01*
X5083518Y17169199D01*
X5000801Y17086482D01*
X4949427Y16981396D01*
X4949427Y16981393D01*
X4939500Y16913260D01*
X3813900Y16913260D01*
X3813900Y24533260D01*
X4939500Y24533260D01*
X4939500Y23066740D01*
X4946118Y23021318D01*
X4949427Y22998605D01*
X4987602Y22920518D01*
X5000802Y22893517D01*
X5083517Y22810802D01*
X5137285Y22784517D01*
X5188604Y22759428D01*
X5188605Y22759428D01*
X5188607Y22759427D01*
X5256740Y22749500D01*
X5256743Y22749500D01*
X8723257Y22749500D01*
X8723260Y22749500D01*
X8791393Y22759427D01*
X8896483Y22810802D01*
X8979198Y22893517D01*
X9030573Y22998607D01*
X9040500Y23066740D01*
X9040500Y23150571D01*
X9059407Y23208762D01*
X9108907Y23244726D01*
X9112271Y23245753D01*
X9125369Y23249500D01*
X9132474Y23249500D01*
X9132475Y23249500D01*
X9272485Y23287016D01*
X9277617Y23289979D01*
X9398015Y23359490D01*
X10770510Y24731985D01*
X10842984Y24857515D01*
X10880500Y24997525D01*
X10880500Y27340968D01*
X10899407Y27399159D01*
X10909496Y27410972D01*
X15994028Y32495504D01*
X16048545Y32523281D01*
X16064032Y32524500D01*
X16123841Y32524500D01*
X16123842Y32524500D01*
X16278497Y32555263D01*
X16424179Y32615606D01*
X16555289Y32703211D01*
X16666789Y32814711D01*
X16754394Y32945821D01*
X16814737Y33091503D01*
X16845500Y33246158D01*
X16845500Y33403842D01*
X16814737Y33558497D01*
X16775596Y33652993D01*
X16754396Y33704175D01*
X16754390Y33704186D01*
X16719017Y33757124D01*
X16666789Y33835289D01*
X16555289Y33946789D01*
X16503059Y33981688D01*
X16424185Y34034391D01*
X16424174Y34034397D01*
X16278497Y34094737D01*
X16123844Y34125500D01*
X16123842Y34125500D01*
X15966158Y34125500D01*
X15966155Y34125500D01*
X15811503Y34094737D01*
X15811501Y34094737D01*
X15665825Y34034397D01*
X15665814Y34034391D01*
X15534711Y33946789D01*
X15534707Y33946786D01*
X15423214Y33835293D01*
X15423211Y33835289D01*
X15335609Y33704186D01*
X15335603Y33704175D01*
X15275263Y33558499D01*
X15275263Y33558497D01*
X15244500Y33403845D01*
X15244500Y33344033D01*
X15225593Y33285842D01*
X15215504Y33274029D01*
X9889490Y27948015D01*
X9826797Y27839427D01*
X9826796Y27839427D01*
X9817018Y27822490D01*
X9817017Y27822488D01*
X9817016Y27822485D01*
X9779500Y27682475D01*
X9779500Y27682473D01*
X9779500Y25339034D01*
X9760593Y25280843D01*
X9750504Y25269030D01*
X9145790Y24664317D01*
X9091273Y24636540D01*
X9030841Y24646111D01*
X8987576Y24689376D01*
X8986845Y24690840D01*
X8979198Y24706482D01*
X8979198Y24706483D01*
X8896483Y24789198D01*
X8896481Y24789199D01*
X8791395Y24840573D01*
X8764139Y24844544D01*
X8723260Y24850500D01*
X5256740Y24850500D01*
X5222673Y24845537D01*
X5188604Y24840573D01*
X5083518Y24789199D01*
X5000801Y24706482D01*
X4949427Y24601396D01*
X4949427Y24601393D01*
X4939500Y24533260D01*
X3813900Y24533260D01*
X3813900Y27073260D01*
X4939500Y27073260D01*
X4939500Y25606740D01*
X4946118Y25561318D01*
X4949427Y25538605D01*
X4979091Y25477928D01*
X5000802Y25433517D01*
X5083517Y25350802D01*
X5137285Y25324517D01*
X5188604Y25299428D01*
X5188605Y25299428D01*
X5188607Y25299427D01*
X5256740Y25289500D01*
X5256743Y25289500D01*
X8723257Y25289500D01*
X8723260Y25289500D01*
X8791393Y25299427D01*
X8896483Y25350802D01*
X8979198Y25433517D01*
X9030573Y25538607D01*
X9040500Y25606740D01*
X9040500Y27073260D01*
X9030573Y27141393D01*
X8979198Y27246483D01*
X8896483Y27329198D01*
X8872407Y27340968D01*
X8791395Y27380573D01*
X8764139Y27384544D01*
X8723260Y27390500D01*
X5256740Y27390500D01*
X5222673Y27385537D01*
X5188604Y27380573D01*
X5083518Y27329199D01*
X5000801Y27246482D01*
X4949427Y27141396D01*
X4949427Y27141393D01*
X4939500Y27073260D01*
X3813900Y27073260D01*
X3813900Y29613260D01*
X4939500Y29613260D01*
X4939500Y28146740D01*
X4946118Y28101318D01*
X4949427Y28078605D01*
X5000801Y27973519D01*
X5000802Y27973517D01*
X5083517Y27890802D01*
X5137285Y27864517D01*
X5188604Y27839428D01*
X5188605Y27839428D01*
X5188607Y27839427D01*
X5256740Y27829500D01*
X5256743Y27829500D01*
X8723257Y27829500D01*
X8723260Y27829500D01*
X8791393Y27839427D01*
X8896483Y27890802D01*
X8979198Y27973517D01*
X9030573Y28078607D01*
X9040500Y28146740D01*
X9040500Y29613260D01*
X9030573Y29681393D01*
X8979198Y29786483D01*
X8896483Y29869198D01*
X8896481Y29869199D01*
X8791395Y29920573D01*
X8764139Y29924544D01*
X8723260Y29930500D01*
X5256740Y29930500D01*
X5222673Y29925537D01*
X5188604Y29920573D01*
X5083518Y29869199D01*
X5000801Y29786482D01*
X4949427Y29681396D01*
X4949427Y29681393D01*
X4939500Y29613260D01*
X3813900Y29613260D01*
X3813900Y32153260D01*
X4939500Y32153260D01*
X4939500Y30686740D01*
X4946118Y30641318D01*
X4949427Y30618605D01*
X5000801Y30513519D01*
X5000802Y30513517D01*
X5083517Y30430802D01*
X5137285Y30404517D01*
X5188604Y30379428D01*
X5188605Y30379428D01*
X5188607Y30379427D01*
X5256740Y30369500D01*
X5256743Y30369500D01*
X8723257Y30369500D01*
X8723260Y30369500D01*
X8791393Y30379427D01*
X8896483Y30430802D01*
X8979198Y30513517D01*
X9030573Y30618607D01*
X9040500Y30686740D01*
X9040500Y32153260D01*
X9030573Y32221393D01*
X8979198Y32326483D01*
X8896483Y32409198D01*
X8896481Y32409199D01*
X8791395Y32460573D01*
X8764139Y32464544D01*
X8723260Y32470500D01*
X5256740Y32470500D01*
X5222673Y32465537D01*
X5188604Y32460573D01*
X5083518Y32409199D01*
X5000801Y32326482D01*
X4949427Y32221396D01*
X4949427Y32221393D01*
X4939500Y32153260D01*
X3813900Y32153260D01*
X3813900Y33705999D01*
X4782000Y33705999D01*
X4782000Y33211413D01*
X4788504Y33150912D01*
X4788506Y33150902D01*
X4839552Y33014040D01*
X4927092Y32897101D01*
X4927100Y32897093D01*
X5044039Y32809553D01*
X5180901Y32758507D01*
X5180911Y32758505D01*
X5241413Y32752000D01*
X6735999Y32752000D01*
X6736000Y32752001D01*
X6736000Y33705999D01*
X6735999Y33706000D01*
X4782001Y33706000D01*
X4782000Y33705999D01*
X3813900Y33705999D01*
X3813900Y36245999D01*
X4782000Y36245999D01*
X4782000Y35751413D01*
X4788504Y35690912D01*
X4788506Y35690902D01*
X4839552Y35554040D01*
X4927092Y35437101D01*
X4927100Y35437093D01*
X5044038Y35349554D01*
X5115881Y35322758D01*
X5163795Y35284708D01*
X5180193Y35225761D01*
X5158811Y35168433D01*
X5115881Y35137242D01*
X5044038Y35110447D01*
X4927100Y35022908D01*
X4927092Y35022900D01*
X4839552Y34905961D01*
X4788506Y34769099D01*
X4788504Y34769089D01*
X4782000Y34708588D01*
X4782000Y34214001D01*
X4782001Y34214000D01*
X6735999Y34214000D01*
X6736000Y34214001D01*
X6736000Y35175704D01*
X6716226Y35214513D01*
X6725797Y35274945D01*
X6736000Y35288989D01*
X6736000Y36245999D01*
X6735999Y36246000D01*
X4782001Y36246000D01*
X4782000Y36245999D01*
X3813900Y36245999D01*
X3813900Y36784369D01*
X3832807Y36842560D01*
X3842890Y36854367D01*
X4237111Y37248588D01*
X4782000Y37248588D01*
X4782000Y36754001D01*
X4782001Y36754000D01*
X6735999Y36754000D01*
X6736000Y36754001D01*
X6736000Y37707999D01*
X6735999Y37708000D01*
X5241413Y37708000D01*
X5180911Y37701496D01*
X5180901Y37701494D01*
X5044039Y37650448D01*
X4927100Y37562908D01*
X4927092Y37562900D01*
X4839552Y37445961D01*
X4788506Y37309099D01*
X4788504Y37309089D01*
X4782000Y37248588D01*
X4237111Y37248588D01*
X5003855Y38015333D01*
X5058370Y38043108D01*
X5117337Y38034268D01*
X5188604Y37999428D01*
X5188605Y37999428D01*
X5188607Y37999427D01*
X5256740Y37989500D01*
X8020967Y37989500D01*
X8028564Y37987032D01*
X8036454Y37988281D01*
X8057109Y37977757D01*
X8079158Y37970593D01*
X8090971Y37960504D01*
X8174471Y37877004D01*
X8202248Y37822487D01*
X8192677Y37762055D01*
X8149412Y37718790D01*
X8104467Y37708000D01*
X7244001Y37708000D01*
X7244000Y37707999D01*
X7244000Y36754001D01*
X7244001Y36754000D01*
X7417518Y36754000D01*
X7371059Y36673531D01*
X7340420Y36559188D01*
X7340420Y36440812D01*
X7371059Y36326469D01*
X7417518Y36246000D01*
X7244001Y36246000D01*
X7244000Y36245999D01*
X7244000Y35284297D01*
X7263774Y35245487D01*
X7254203Y35185055D01*
X7244000Y35171012D01*
X7244000Y34214001D01*
X7244001Y34214000D01*
X7417518Y34214000D01*
X7371059Y34133531D01*
X7340420Y34019188D01*
X7340420Y33900812D01*
X7371059Y33786469D01*
X7417518Y33706000D01*
X7244001Y33706000D01*
X7244000Y33705999D01*
X7244000Y32752001D01*
X7244001Y32752000D01*
X8738587Y32752000D01*
X8799088Y32758505D01*
X8799098Y32758507D01*
X8935960Y32809553D01*
X9052899Y32897093D01*
X9052907Y32897101D01*
X9140447Y33014040D01*
X9191493Y33150902D01*
X9191495Y33150912D01*
X9198000Y33211413D01*
X9198000Y33705999D01*
X9197999Y33706000D01*
X8162482Y33706000D01*
X8208941Y33786469D01*
X8239580Y33900812D01*
X8239580Y34019188D01*
X8208941Y34133531D01*
X8162482Y34214000D01*
X9197999Y34214000D01*
X9198000Y34214001D01*
X9198000Y34708588D01*
X9191495Y34769089D01*
X9191493Y34769099D01*
X9140447Y34905961D01*
X9052907Y35022900D01*
X9052899Y35022908D01*
X8935960Y35110448D01*
X8864119Y35137242D01*
X8816204Y35175292D01*
X8799806Y35234239D01*
X8821187Y35291567D01*
X8864119Y35322758D01*
X8935960Y35349553D01*
X9052899Y35437093D01*
X9052907Y35437101D01*
X9140447Y35554040D01*
X9191493Y35690902D01*
X9191495Y35690912D01*
X9198000Y35751413D01*
X9198000Y36245999D01*
X9197999Y36246000D01*
X8162482Y36246000D01*
X8208941Y36326469D01*
X8239580Y36440812D01*
X8239580Y36559188D01*
X8208941Y36673531D01*
X8162482Y36754000D01*
X9217505Y36754000D01*
X9232244Y36761511D01*
X9292677Y36751943D01*
X9317737Y36733738D01*
X9991985Y36059490D01*
X9991987Y36059489D01*
X10095889Y35999501D01*
X10095890Y35999501D01*
X10095892Y35999500D01*
X10117515Y35987016D01*
X10257525Y35949500D01*
X18838481Y35949500D01*
X18893482Y35932816D01*
X18910688Y35921319D01*
X19029527Y35872094D01*
X19155685Y35847000D01*
X19155686Y35847000D01*
X19284314Y35847000D01*
X19284315Y35847000D01*
X19410473Y35872094D01*
X19529312Y35921319D01*
X19636263Y35992781D01*
X19727219Y36083737D01*
X19798681Y36190688D01*
X19847906Y36309527D01*
X19873000Y36435685D01*
X19873000Y36564315D01*
X19847906Y36690473D01*
X19818481Y36761511D01*
X19798682Y36809310D01*
X19776465Y36842560D01*
X19727219Y36916263D01*
X19636263Y37007219D01*
X19529312Y37078681D01*
X19529311Y37078682D01*
X19529309Y37078683D01*
X19410473Y37127906D01*
X19284317Y37153000D01*
X19284315Y37153000D01*
X19155685Y37153000D01*
X19155682Y37153000D01*
X19029527Y37127906D01*
X19029525Y37127906D01*
X18910689Y37078682D01*
X18893483Y37067185D01*
X18838481Y37050500D01*
X10599033Y37050500D01*
X10540842Y37069407D01*
X10529029Y37079496D01*
X9069496Y38539029D01*
X9041719Y38593546D01*
X9040500Y38609033D01*
X9040500Y39773257D01*
X9040500Y39773260D01*
X9030573Y39841393D01*
X8979198Y39946483D01*
X8896483Y40029198D01*
X8896481Y40029199D01*
X8791395Y40080573D01*
X8764139Y40084544D01*
X8723260Y40090500D01*
X5256740Y40090500D01*
X5222673Y40085537D01*
X5188604Y40080573D01*
X5083518Y40029199D01*
X5000801Y39946482D01*
X4949427Y39841396D01*
X4949427Y39841393D01*
X4941734Y39788588D01*
X4939500Y39773257D01*
X4939500Y39549032D01*
X4920593Y39490841D01*
X4910504Y39479028D01*
X3429504Y37998029D01*
X3374987Y37970252D01*
X3314555Y37979823D01*
X3271290Y38023088D01*
X3260500Y38068033D01*
X3260500Y38770967D01*
X3279407Y38829158D01*
X3289496Y38840971D01*
X3997557Y39549032D01*
X5003857Y40555333D01*
X5058372Y40583108D01*
X5117340Y40574267D01*
X5188607Y40539427D01*
X5256740Y40529500D01*
X5256743Y40529500D01*
X8723257Y40529500D01*
X8723260Y40529500D01*
X8791393Y40539427D01*
X8896483Y40590802D01*
X8979198Y40673517D01*
X9030573Y40778607D01*
X9040500Y40846740D01*
X9040500Y42313260D01*
X9030573Y42381393D01*
X8979198Y42486483D01*
X8896483Y42569198D01*
X8896481Y42569199D01*
X8791395Y42620573D01*
X8764139Y42624544D01*
X8723260Y42630500D01*
X5256740Y42630500D01*
X5222673Y42625537D01*
X5188604Y42620573D01*
X5083518Y42569199D01*
X5000801Y42486482D01*
X4949427Y42381396D01*
X4949427Y42381393D01*
X4941177Y42324765D01*
X4939500Y42313257D01*
X4939500Y42089032D01*
X4920593Y42030841D01*
X4910509Y42019035D01*
X3564994Y40673519D01*
X2269489Y39378014D01*
X2209078Y39273376D01*
X2209076Y39273373D01*
X2197017Y39252489D01*
X2159500Y39112475D01*
X500000Y39112475D01*
X500000Y44124567D01*
X1099500Y44124567D01*
X1099500Y43875434D01*
X1132017Y43628443D01*
X1132017Y43628438D01*
X1196496Y43387801D01*
X1196500Y43387788D01*
X1291832Y43157635D01*
X1291834Y43157631D01*
X1291836Y43157627D01*
X1366863Y43027676D01*
X1416403Y42941870D01*
X1568056Y42744231D01*
X1568058Y42744229D01*
X1568062Y42744224D01*
X1744224Y42568062D01*
X1744228Y42568059D01*
X1744230Y42568057D01*
X1850540Y42486483D01*
X1941873Y42416401D01*
X2157627Y42291836D01*
X2387793Y42196498D01*
X2628435Y42132018D01*
X2875435Y42099500D01*
X2875436Y42099500D01*
X3124564Y42099500D01*
X3124565Y42099500D01*
X3371565Y42132018D01*
X3612207Y42196498D01*
X3842373Y42291836D01*
X4058127Y42416401D01*
X4255776Y42568062D01*
X4431938Y42744224D01*
X4583599Y42941873D01*
X4708164Y43157627D01*
X4803502Y43387793D01*
X4867982Y43628435D01*
X4900500Y43875435D01*
X4900500Y44124565D01*
X4867982Y44371565D01*
X4803502Y44612207D01*
X4708164Y44842373D01*
X4583599Y45058127D01*
X4521425Y45139154D01*
X4431943Y45255770D01*
X4431941Y45255772D01*
X4431938Y45255776D01*
X4255776Y45431938D01*
X4255771Y45431942D01*
X4255769Y45431944D01*
X4207678Y45468845D01*
X23499500Y45468845D01*
X23499500Y45311156D01*
X23513403Y45241264D01*
X23524353Y45186212D01*
X23530263Y45156504D01*
X23530263Y45156502D01*
X23590603Y45010826D01*
X23590609Y45010815D01*
X23628198Y44954560D01*
X23678211Y44879711D01*
X23789711Y44768211D01*
X23857383Y44722994D01*
X23920814Y44680610D01*
X23920825Y44680604D01*
X23934973Y44674744D01*
X24066503Y44620263D01*
X24221158Y44589500D01*
X24221159Y44589500D01*
X24378841Y44589500D01*
X24378842Y44589500D01*
X24533497Y44620263D01*
X24679179Y44680606D01*
X24810289Y44768211D01*
X24852582Y44810504D01*
X24907099Y44838281D01*
X24922586Y44839500D01*
X27216161Y44839500D01*
X27274352Y44820593D01*
X27310316Y44771093D01*
X27310316Y44709907D01*
X27274352Y44660407D01*
X27265669Y44654769D01*
X27250046Y44645748D01*
X27240517Y44640247D01*
X27022075Y44472631D01*
X26827369Y44277925D01*
X26659753Y44059483D01*
X26522074Y43821017D01*
X26416704Y43566632D01*
X26384264Y43445560D01*
X26345440Y43300666D01*
X26345439Y43300662D01*
X26345439Y43300660D01*
X26309500Y43027676D01*
X26309500Y42752325D01*
X26333609Y42569199D01*
X26345440Y42479334D01*
X26371683Y42381393D01*
X26416704Y42213369D01*
X26522074Y41958984D01*
X26522077Y41958979D01*
X26659751Y41720521D01*
X26827372Y41502072D01*
X27022072Y41307372D01*
X27240521Y41139751D01*
X27478979Y41002077D01*
X27478980Y41002077D01*
X27478983Y41002075D01*
X27733368Y40896705D01*
X27999334Y40825440D01*
X28272326Y40789500D01*
X28272327Y40789500D01*
X28547673Y40789500D01*
X28547674Y40789500D01*
X28820666Y40825440D01*
X29086632Y40896705D01*
X29341021Y41002077D01*
X29579479Y41139751D01*
X29797928Y41307372D01*
X29992628Y41502072D01*
X30160249Y41720521D01*
X30297923Y41958979D01*
X30403295Y42213368D01*
X30474560Y42479334D01*
X30510500Y42752326D01*
X30510500Y42989062D01*
X30529407Y43047253D01*
X30578907Y43083217D01*
X30640093Y43083217D01*
X30688753Y43048391D01*
X30757092Y42957101D01*
X30757100Y42957093D01*
X30874039Y42869553D01*
X31010901Y42818507D01*
X31010911Y42818505D01*
X31071413Y42812000D01*
X31665999Y42812000D01*
X31666000Y42812001D01*
X31666000Y43808314D01*
X31674394Y43799920D01*
X31765606Y43747259D01*
X31867339Y43720000D01*
X31972661Y43720000D01*
X32074394Y43747259D01*
X32165606Y43799920D01*
X32174000Y43808314D01*
X32174000Y42812001D01*
X32174001Y42812000D01*
X32768587Y42812000D01*
X32829088Y42818505D01*
X32829098Y42818507D01*
X32965960Y42869553D01*
X33082899Y42957093D01*
X33082907Y42957101D01*
X33170447Y43074040D01*
X33221493Y43210902D01*
X33221495Y43210912D01*
X33228000Y43271413D01*
X33228000Y43591376D01*
X33246907Y43649567D01*
X33296407Y43685531D01*
X33357593Y43685531D01*
X33407093Y43649567D01*
X33415207Y43636326D01*
X33476004Y43517006D01*
X33582447Y43370499D01*
X33710499Y43242447D01*
X33857006Y43136004D01*
X34018361Y43053789D01*
X34190591Y42997829D01*
X34245944Y42989062D01*
X34369451Y42969500D01*
X34369454Y42969500D01*
X34550549Y42969500D01*
X34639977Y42983665D01*
X34729409Y42997829D01*
X34901639Y43053789D01*
X35062994Y43136004D01*
X35209501Y43242447D01*
X35337553Y43370499D01*
X35443996Y43517006D01*
X35526211Y43678361D01*
X35582171Y43850591D01*
X35610500Y44029454D01*
X35610500Y44210546D01*
X35610500Y44210550D01*
X35584998Y44371558D01*
X35582171Y44389409D01*
X35526211Y44561639D01*
X35457977Y44695555D01*
X35448406Y44755987D01*
X35476183Y44810503D01*
X35530700Y44838281D01*
X35546187Y44839500D01*
X35913813Y44839500D01*
X35972004Y44820593D01*
X36007968Y44771093D01*
X36007968Y44709907D01*
X36002023Y44695555D01*
X35933788Y44561638D01*
X35877828Y44389407D01*
X35849500Y44210550D01*
X35849500Y44029451D01*
X35877828Y43850594D01*
X35933788Y43678363D01*
X35955209Y43636321D01*
X36016004Y43517006D01*
X36122447Y43370499D01*
X36250499Y43242447D01*
X36397006Y43136004D01*
X36558361Y43053789D01*
X36730591Y42997829D01*
X36785944Y42989062D01*
X36909451Y42969500D01*
X36909454Y42969500D01*
X37090549Y42969500D01*
X37179977Y42983665D01*
X37269409Y42997829D01*
X37441639Y43053789D01*
X37602994Y43136004D01*
X37749501Y43242447D01*
X37877553Y43370499D01*
X37983996Y43517006D01*
X38066211Y43678361D01*
X38122171Y43850591D01*
X38150500Y44029454D01*
X38150500Y44210546D01*
X38150500Y44210550D01*
X38124998Y44371558D01*
X38122171Y44389409D01*
X38066211Y44561639D01*
X37997977Y44695555D01*
X37988406Y44755987D01*
X38016183Y44810503D01*
X38070700Y44838281D01*
X38086187Y44839500D01*
X38453813Y44839500D01*
X38512004Y44820593D01*
X38547968Y44771093D01*
X38547968Y44709907D01*
X38542023Y44695555D01*
X38473788Y44561638D01*
X38417828Y44389407D01*
X38389500Y44210550D01*
X38389500Y44029451D01*
X38417828Y43850594D01*
X38473788Y43678363D01*
X38495209Y43636321D01*
X38556004Y43517006D01*
X38662447Y43370499D01*
X38790499Y43242447D01*
X38937006Y43136004D01*
X39098361Y43053789D01*
X39270591Y42997829D01*
X39325944Y42989062D01*
X39449451Y42969500D01*
X39449454Y42969500D01*
X39630549Y42969500D01*
X39719977Y42983665D01*
X39809409Y42997829D01*
X39981639Y43053789D01*
X40142994Y43136004D01*
X40289501Y43242447D01*
X40417553Y43370499D01*
X40523996Y43517006D01*
X40606211Y43678361D01*
X40662171Y43850591D01*
X40690500Y44029454D01*
X40690500Y44210546D01*
X40690500Y44210550D01*
X40664998Y44371558D01*
X40662171Y44389409D01*
X40606211Y44561639D01*
X40537977Y44695555D01*
X40528406Y44755987D01*
X40556183Y44810503D01*
X40610700Y44838281D01*
X40626187Y44839500D01*
X40993813Y44839500D01*
X41052004Y44820593D01*
X41087968Y44771093D01*
X41087968Y44709907D01*
X41082023Y44695555D01*
X41013788Y44561638D01*
X40957828Y44389407D01*
X40929500Y44210550D01*
X40929500Y44029451D01*
X40957828Y43850594D01*
X41013788Y43678363D01*
X41035209Y43636321D01*
X41096004Y43517006D01*
X41202447Y43370499D01*
X41330499Y43242447D01*
X41477006Y43136004D01*
X41638361Y43053789D01*
X41810591Y42997829D01*
X41865944Y42989062D01*
X41989451Y42969500D01*
X41989454Y42969500D01*
X42170549Y42969500D01*
X42259977Y42983665D01*
X42349409Y42997829D01*
X42521639Y43053789D01*
X42682994Y43136004D01*
X42829501Y43242447D01*
X42957553Y43370499D01*
X43063996Y43517006D01*
X43146211Y43678361D01*
X43202171Y43850591D01*
X43230500Y44029454D01*
X43230500Y44210546D01*
X43230500Y44210550D01*
X43204998Y44371558D01*
X43202171Y44389409D01*
X43146211Y44561639D01*
X43077977Y44695555D01*
X43068406Y44755987D01*
X43096183Y44810503D01*
X43150700Y44838281D01*
X43166187Y44839500D01*
X43533813Y44839500D01*
X43592004Y44820593D01*
X43627968Y44771093D01*
X43627968Y44709907D01*
X43622023Y44695555D01*
X43553788Y44561638D01*
X43497828Y44389407D01*
X43469500Y44210550D01*
X43469500Y44029451D01*
X43497828Y43850594D01*
X43553788Y43678363D01*
X43575209Y43636321D01*
X43636004Y43517006D01*
X43742447Y43370499D01*
X43870499Y43242447D01*
X44017006Y43136004D01*
X44178361Y43053789D01*
X44350591Y42997829D01*
X44405944Y42989062D01*
X44529451Y42969500D01*
X44529454Y42969500D01*
X44710549Y42969500D01*
X44799977Y42983665D01*
X44889409Y42997829D01*
X45061639Y43053789D01*
X45222994Y43136004D01*
X45369501Y43242447D01*
X45497553Y43370499D01*
X45603996Y43517006D01*
X45686211Y43678361D01*
X45742171Y43850591D01*
X45770500Y44029454D01*
X45770500Y44210546D01*
X45770500Y44210550D01*
X45744998Y44371558D01*
X45742171Y44389409D01*
X45691568Y44545152D01*
X45691569Y44606337D01*
X45727533Y44655837D01*
X45785723Y44674744D01*
X45843914Y44655836D01*
X45855727Y44645748D01*
X46013136Y44488339D01*
X46040913Y44433822D01*
X46037742Y44393428D01*
X46038736Y44393189D01*
X46037828Y44389412D01*
X46009500Y44210550D01*
X46009500Y44029451D01*
X46037828Y43850594D01*
X46093788Y43678363D01*
X46115209Y43636321D01*
X46176004Y43517006D01*
X46282447Y43370499D01*
X46410499Y43242447D01*
X46557006Y43136004D01*
X46718361Y43053789D01*
X46890591Y42997829D01*
X46945944Y42989062D01*
X47069451Y42969500D01*
X47069454Y42969500D01*
X47250549Y42969500D01*
X47339977Y42983665D01*
X47429409Y42997829D01*
X47601639Y43053789D01*
X47762994Y43136004D01*
X47909501Y43242447D01*
X48037553Y43370499D01*
X48143996Y43517006D01*
X48226211Y43678361D01*
X48282171Y43850591D01*
X48310500Y44029454D01*
X48310500Y44210546D01*
X48310500Y44210550D01*
X48549500Y44210550D01*
X48549500Y44029451D01*
X48577828Y43850594D01*
X48633788Y43678363D01*
X48655209Y43636321D01*
X48716004Y43517006D01*
X48822447Y43370499D01*
X48950499Y43242447D01*
X49097006Y43136004D01*
X49258361Y43053789D01*
X49430591Y42997829D01*
X49485944Y42989062D01*
X49609451Y42969500D01*
X49609454Y42969500D01*
X49790549Y42969500D01*
X49879977Y42983665D01*
X49969409Y42997829D01*
X50061270Y43027676D01*
X51109500Y43027676D01*
X51109500Y42752325D01*
X51133609Y42569199D01*
X51145440Y42479334D01*
X51171683Y42381393D01*
X51216704Y42213369D01*
X51322074Y41958984D01*
X51322077Y41958979D01*
X51459751Y41720521D01*
X51627372Y41502072D01*
X51822072Y41307372D01*
X52040521Y41139751D01*
X52278979Y41002077D01*
X52278980Y41002077D01*
X52278983Y41002075D01*
X52533368Y40896705D01*
X52799334Y40825440D01*
X53072326Y40789500D01*
X53072327Y40789500D01*
X53347673Y40789500D01*
X53347674Y40789500D01*
X53620666Y40825440D01*
X53886632Y40896705D01*
X54141021Y41002077D01*
X54379479Y41139751D01*
X54597928Y41307372D01*
X54792628Y41502072D01*
X54960249Y41720521D01*
X55097923Y41958979D01*
X55203295Y42213368D01*
X55274560Y42479334D01*
X55310500Y42752326D01*
X55310500Y43027674D01*
X55274560Y43300666D01*
X55203295Y43566632D01*
X55139768Y43720000D01*
X55097925Y43821017D01*
X55097923Y43821021D01*
X54960249Y44059479D01*
X54954063Y44067541D01*
X54954062Y44067543D01*
X54910306Y44124567D01*
X67099500Y44124567D01*
X67099500Y43875434D01*
X67132017Y43628443D01*
X67132017Y43628438D01*
X67196496Y43387801D01*
X67196500Y43387788D01*
X67291832Y43157635D01*
X67291834Y43157631D01*
X67291836Y43157627D01*
X67366863Y43027676D01*
X67416403Y42941870D01*
X67568056Y42744231D01*
X67568058Y42744229D01*
X67568062Y42744224D01*
X67744224Y42568062D01*
X67744228Y42568059D01*
X67744230Y42568057D01*
X67850540Y42486483D01*
X67941873Y42416401D01*
X68157627Y42291836D01*
X68387793Y42196498D01*
X68628435Y42132018D01*
X68875435Y42099500D01*
X68875436Y42099500D01*
X69124564Y42099500D01*
X69124565Y42099500D01*
X69371565Y42132018D01*
X69612207Y42196498D01*
X69842373Y42291836D01*
X70058127Y42416401D01*
X70255776Y42568062D01*
X70431938Y42744224D01*
X70583599Y42941873D01*
X70708164Y43157627D01*
X70803502Y43387793D01*
X70867982Y43628435D01*
X70900500Y43875435D01*
X70900500Y44124565D01*
X70867982Y44371565D01*
X70803502Y44612207D01*
X70708164Y44842373D01*
X70583599Y45058127D01*
X70521425Y45139154D01*
X70431943Y45255770D01*
X70431941Y45255772D01*
X70431938Y45255776D01*
X70255776Y45431938D01*
X70255771Y45431942D01*
X70255769Y45431944D01*
X70058130Y45583597D01*
X69989021Y45623497D01*
X69842373Y45708164D01*
X69842369Y45708166D01*
X69842365Y45708168D01*
X69612212Y45803500D01*
X69612211Y45803501D01*
X69612207Y45803502D01*
X69371565Y45867982D01*
X69371562Y45867983D01*
X69371560Y45867983D01*
X69124566Y45900500D01*
X69124565Y45900500D01*
X68875435Y45900500D01*
X68875433Y45900500D01*
X68628442Y45867983D01*
X68628437Y45867983D01*
X68387800Y45803504D01*
X68387787Y45803500D01*
X68157634Y45708168D01*
X67941869Y45583597D01*
X67744230Y45431944D01*
X67568056Y45255770D01*
X67416403Y45058131D01*
X67291832Y44842366D01*
X67196500Y44612213D01*
X67196496Y44612200D01*
X67132017Y44371563D01*
X67132017Y44371558D01*
X67099500Y44124567D01*
X54910306Y44124567D01*
X54841534Y44214191D01*
X54792628Y44277928D01*
X54597928Y44472628D01*
X54536191Y44520000D01*
X54379482Y44640247D01*
X54352481Y44655836D01*
X54141021Y44777923D01*
X54141016Y44777926D01*
X53886631Y44883296D01*
X53765521Y44915747D01*
X53620666Y44954560D01*
X53620659Y44954561D01*
X53347675Y44990500D01*
X53347674Y44990500D01*
X53072326Y44990500D01*
X53072324Y44990500D01*
X52799340Y44954561D01*
X52799338Y44954561D01*
X52799334Y44954560D01*
X52698805Y44927624D01*
X52533368Y44883296D01*
X52278983Y44777926D01*
X52040517Y44640247D01*
X51822075Y44472631D01*
X51627369Y44277925D01*
X51459753Y44059483D01*
X51322074Y43821017D01*
X51216704Y43566632D01*
X51184264Y43445560D01*
X51145440Y43300666D01*
X51145439Y43300662D01*
X51145439Y43300660D01*
X51109500Y43027676D01*
X50061270Y43027676D01*
X50141639Y43053789D01*
X50141642Y43053791D01*
X50141646Y43053792D01*
X50269857Y43119120D01*
X50269867Y43119125D01*
X50302994Y43136004D01*
X50449501Y43242447D01*
X50577553Y43370499D01*
X50683996Y43517006D01*
X50766211Y43678361D01*
X50822171Y43850591D01*
X50850500Y44029454D01*
X50850500Y44210546D01*
X50850500Y44210550D01*
X50824998Y44371558D01*
X50822171Y44389409D01*
X50766211Y44561639D01*
X50683996Y44722994D01*
X50577553Y44869501D01*
X50449501Y44997553D01*
X50302994Y45103996D01*
X50302993Y45103997D01*
X50302991Y45103998D01*
X50141637Y45186212D01*
X49969406Y45242172D01*
X49790549Y45270500D01*
X49790546Y45270500D01*
X49609454Y45270500D01*
X49609451Y45270500D01*
X49430593Y45242172D01*
X49258362Y45186212D01*
X49097008Y45103998D01*
X49033878Y45058131D01*
X48950499Y44997553D01*
X48822447Y44869501D01*
X48779583Y44810503D01*
X48716002Y44722992D01*
X48633788Y44561638D01*
X48577828Y44389407D01*
X48549500Y44210550D01*
X48310500Y44210550D01*
X48284998Y44371558D01*
X48282171Y44389409D01*
X48226211Y44561639D01*
X48143996Y44722994D01*
X48037553Y44869501D01*
X47909501Y44997553D01*
X47762994Y45103996D01*
X47762993Y45103997D01*
X47762991Y45103998D01*
X47601637Y45186212D01*
X47429406Y45242172D01*
X47250549Y45270500D01*
X47250546Y45270500D01*
X47069454Y45270500D01*
X47069451Y45270500D01*
X46890588Y45242172D01*
X46886811Y45241264D01*
X46886465Y45242704D01*
X46831035Y45242725D01*
X46791661Y45266864D01*
X46579720Y45478805D01*
X46228015Y45830510D01*
X46102485Y45902984D01*
X45962475Y45940500D01*
X45962474Y45940500D01*
X24922586Y45940500D01*
X24864395Y45959407D01*
X24852582Y45969496D01*
X24810292Y46011786D01*
X24810289Y46011789D01*
X24758059Y46046688D01*
X24679185Y46099391D01*
X24679174Y46099397D01*
X24533497Y46159737D01*
X24378844Y46190500D01*
X24378842Y46190500D01*
X24221158Y46190500D01*
X24221155Y46190500D01*
X24066503Y46159737D01*
X24066501Y46159737D01*
X23920825Y46099397D01*
X23920814Y46099391D01*
X23789711Y46011789D01*
X23789707Y46011786D01*
X23678214Y45900293D01*
X23678211Y45900289D01*
X23590609Y45769186D01*
X23590603Y45769175D01*
X23530263Y45623499D01*
X23530263Y45623497D01*
X23499500Y45468845D01*
X4207678Y45468845D01*
X4058130Y45583597D01*
X3989021Y45623497D01*
X3842373Y45708164D01*
X3842369Y45708166D01*
X3842365Y45708168D01*
X3612212Y45803500D01*
X3612211Y45803501D01*
X3612207Y45803502D01*
X3371565Y45867982D01*
X3371562Y45867983D01*
X3371560Y45867983D01*
X3124566Y45900500D01*
X3124565Y45900500D01*
X2875435Y45900500D01*
X2875433Y45900500D01*
X2628442Y45867983D01*
X2628437Y45867983D01*
X2387800Y45803504D01*
X2387787Y45803500D01*
X2157634Y45708168D01*
X1941869Y45583597D01*
X1744230Y45431944D01*
X1568056Y45255770D01*
X1416403Y45058131D01*
X1291832Y44842366D01*
X1196500Y44612213D01*
X1196496Y44612200D01*
X1132017Y44371563D01*
X1132017Y44371558D01*
X1099500Y44124567D01*
X500000Y44124567D01*
X500000Y45764827D01*
X512110Y45812272D01*
X566895Y45912604D01*
X566896Y45912605D01*
X574524Y45924478D01*
X711363Y46107273D01*
X720599Y46117933D01*
X882067Y46279401D01*
X892727Y46288637D01*
X1075522Y46425476D01*
X1087381Y46433097D01*
X1187730Y46487892D01*
X1235174Y46500000D01*
X70764826Y46500000D01*
X70812271Y46487890D01*
G37*
G04 #@! TD.AperFunction*
M02*
