M48
; DRILL file KiCad 10.0.1 date 2026-04-26T01:44:13
; FORMAT={-:-/ absolute / metric / decimal}
; #@! TF.CreationDate,2026-04-26T01:44:13+09:00
; #@! TF.GenerationSoftware,Kicad,Pcbnew,10.0.1
; #@! TF.FileFunction,Plated,1,2,PTH
FMAT,2
METRIC
; #@! TA.AperFunction,Plated,PTH,ViaDrill
T1C0.300
; #@! TA.AperFunction,Plated,PTH,ViaDrill
T2C0.500
; #@! TA.AperFunction,Plated,PTH,ComponentDrill
T3C0.800
; #@! TA.AperFunction,Plated,PTH,ComponentDrill
T4C0.899
; #@! TA.AperFunction,Plated,PTH,ComponentDrill
T5C1.000
; #@! TA.AperFunction,Plated,PTH,ComponentDrill
T6C1.100
; #@! TA.AperFunction,Plated,PTH,ComponentDrill
T7C2.000
%
G90
G05
T1
X19.22Y36.5
X29.38Y37.77
T2
X1.44Y40.31
X1.44Y33.96
X1.44Y18.72
X1.44Y8.56
X6.52Y44.12
X6.52Y7.29
X6.52Y3.48
X14.14Y33.96
X14.14Y28.88
X14.14Y19.99
X16.045Y33.325
X19.22Y28.88
X19.22Y9.83
X21.76Y3.48
X23.03Y44.12
X24.3Y45.39
X26.84Y17.45
X31.92Y40.31
X31.92Y30.15
X31.92Y17.45
X34.46Y3.48
X44.62Y11.1
X48.43Y3.48
X52.24Y40.31
X52.24Y30.15
X52.24Y17.45
X58.59Y44.12
X61.13Y17.45
X64.94Y44.12
X64.94Y3.48
X70.02Y30.15
X70.02Y17.45
T3
X31.92Y44.12
X34.46Y44.12
X37.0Y44.12
X39.54Y44.12
X42.08Y44.12
X44.62Y44.12
X47.16Y44.12
X49.7Y44.12
T4
X7.79Y41.58
X7.79Y39.04
X7.79Y36.5
X7.79Y33.96
X7.79Y31.42
X7.79Y28.88
X7.79Y26.34
X7.79Y23.8
X7.79Y21.26
X7.79Y18.72
X7.79Y16.18
X7.79Y13.64
X23.03Y41.58
X23.03Y39.04
X23.03Y36.5
X23.03Y33.96
X23.03Y31.42
X23.03Y28.88
X23.03Y26.34
X23.03Y23.8
X23.03Y21.26
X23.03Y18.72
X23.03Y16.18
X23.03Y13.64
T5
X9.06Y5.325
X11.6Y5.325
X14.14Y5.325
X16.68Y5.325
X19.22Y5.325
X61.13Y33.96
X66.13Y33.96
T6
X28.11Y13.64
X28.11Y9.14
X34.61Y13.64
X34.61Y9.14
X38.27Y18.72
X38.27Y14.22
X38.27Y8.56
X38.27Y4.06
X44.77Y18.72
X44.77Y14.22
X44.77Y8.56
X44.77Y4.06
X48.43Y13.64
X48.43Y9.14
X54.93Y13.64
X54.93Y9.14
X62.4Y13.64
X62.4Y9.14
X68.9Y13.64
X68.9Y9.14
T7
X28.41Y42.89
X28.41Y24.09
X53.21Y42.89
X53.21Y24.09
M30
