G04 #@! TF.GenerationSoftware,KiCad,Pcbnew,10.0.1*
G04 #@! TF.CreationDate,2026-04-26T01:44:08+09:00*
G04 #@! TF.ProjectId,TinyGameConsole,54696e79-4761-46d6-9543-6f6e736f6c65,Ver.0.9*
G04 #@! TF.SameCoordinates,PX55d4a80PY5f5e100*
G04 #@! TF.FileFunction,Soldermask,Bot*
G04 #@! TF.FilePolarity,Negative*
%FSLAX46Y46*%
G04 Gerber Fmt 4.6, Leading zero omitted, Abs format (unit mm)*
G04 Created by KiCad (PCBNEW 10.0.1) date 2026-04-26 01:44:08*
%MOMM*%
%LPD*%
G01*
G04 APERTURE LIST*
G04 Aperture macros list*
%AMFreePoly0*
4,1,34,0.646870,0.063711,0.622011,0.188685,0.573249,0.306408,0.502457,0.412356,0.412356,0.502457,0.306408,0.573249,0.188685,0.622011,0.063711,0.646870,-0.063711,0.646870,-0.188685,0.622011,-0.306408,0.573249,-0.412356,0.502457,-0.502457,0.412356,-0.573249,0.306408,-0.622011,0.188685,-0.646870,0.063711,-0.646870,-0.063711,-0.622011,-0.188685,-0.573249,-0.306408,-0.502457,-0.412356,
-0.412356,-0.502457,-0.306408,-0.573249,-0.188685,-0.622011,-0.063711,-0.646870,0.063711,-0.646870,0.188685,-0.622011,0.306408,-0.573249,0.412356,-0.502457,0.502457,-0.412356,0.573249,-0.306408,0.622011,-0.188685,0.646870,-0.063711,0.646870,0.063711,0.646870,0.063711,0.646870,0.063711,$1*%
G04 Aperture macros list end*
%ADD10C,2.000000*%
%ADD11C,3.200000*%
%ADD12R,1.700000X1.700000*%
%ADD13C,1.700000*%
%ADD14FreePoly0,0.000000*%
%ADD15R,2.000000X2.000000*%
%ADD16R,1.600000X1.600000*%
%ADD17C,1.600000*%
%ADD18C,3.500000*%
G04 APERTURE END LIST*
D10*
X34610000Y9140000D03*
X28110000Y9140000D03*
X34610000Y13640000D03*
X28110000Y13640000D03*
D11*
X3000000Y3000000D03*
D10*
X68900000Y9140000D03*
X62400000Y9140000D03*
X68900000Y13640000D03*
X62400000Y13640000D03*
D11*
X69000000Y3000000D03*
D12*
X19220000Y5325000D03*
D13*
X16680000Y5325000D03*
X14140000Y5325000D03*
X11600000Y5325000D03*
X9060000Y5325000D03*
D11*
X3000000Y44000000D03*
D10*
X54930000Y9140000D03*
X48430000Y9140000D03*
X54930000Y13640000D03*
X48430000Y13640000D03*
D14*
X7800000Y41580000D03*
X7800000Y39040000D03*
X7800000Y36500000D03*
X7800000Y33960000D03*
X7800000Y31420000D03*
X7800000Y28880000D03*
X7800000Y26340000D03*
X7800000Y23800000D03*
X7800000Y21260000D03*
X7800000Y18720000D03*
X7800000Y16180000D03*
X7800000Y13640000D03*
X23040000Y13640000D03*
X23040000Y16180000D03*
X23040000Y18720000D03*
X23040000Y21260000D03*
X23040000Y23800000D03*
X23040000Y26340000D03*
X23040000Y28880000D03*
X23040000Y31420000D03*
X23040000Y33960000D03*
X23040000Y36500000D03*
X23040000Y39040000D03*
X23040000Y41580000D03*
D15*
X61130000Y33960000D03*
D10*
X66130000Y33960000D03*
X44770000Y4060000D03*
X38270000Y4060000D03*
X44770000Y8560000D03*
X38270000Y8560000D03*
X44770000Y14220000D03*
X38270000Y14220000D03*
X44770000Y18720000D03*
X38270000Y18720000D03*
D11*
X69000000Y44000000D03*
D16*
X31920000Y44120000D03*
D17*
X34460000Y44120000D03*
X37000000Y44120000D03*
X39540000Y44120000D03*
X42080000Y44120000D03*
X44620000Y44120000D03*
X47160000Y44120000D03*
X49700000Y44120000D03*
D18*
X28410000Y42890000D03*
X28410000Y24090000D03*
X53210000Y42890000D03*
X53210000Y24090000D03*
M02*
